<svg xmlns="http://www.w3.org/2000/svg" xmlns:xlink="http://www.w3.org/1999/xlink" width="500" zoomAndPan="magnify" viewBox="0 0 375 374.999991" height="500" preserveAspectRatio="xMidYMid meet" version="1.0"><defs><g/><clipPath id="15ebb2acab"><path d="M 169 126 L 324.140625 126 L 324.140625 153 L 169 153 Z M 169 126 " clip-rule="nonzero"/></clipPath><clipPath id="f0e452232a"><path d="M 159 103.535156 L 288 103.535156 L 288 141 L 159 141 Z M 159 103.535156 " clip-rule="nonzero"/></clipPath><clipPath id="f51b5ebec9"><path d="M 51.140625 155 L 206 155 L 206 182 L 51.140625 182 Z M 51.140625 155 " clip-rule="nonzero"/></clipPath><clipPath id="6208ff8370"><path d="M 88 167 L 217 167 L 217 204.785156 L 88 204.785156 Z M 88 167 " clip-rule="nonzero"/></clipPath></defs><path fill="#000000" d="M 157.726562 139.339844 C 158.816406 139.339844 159.699219 140.21875 159.699219 141.304688 C 159.699219 142.390625 158.816406 143.269531 157.726562 143.269531 C 156.636719 143.269531 155.753906 142.390625 155.753906 141.304688 C 155.753906 140.21875 156.636719 139.339844 157.726562 139.339844 Z M 288.058594 176.796875 C 289.144531 176.796875 290.027344 177.679688 290.027344 178.765625 C 290.027344 179.851562 289.144531 180.730469 288.058594 180.730469 C 286.96875 180.730469 286.085938 179.851562 286.085938 178.765625 C 286.085938 177.679688 286.96875 176.796875 288.058594 176.796875 Z M 171.390625 196.3125 C 170.300781 196.3125 169.417969 195.433594 169.417969 194.347656 C 169.417969 193.261719 170.300781 192.378906 171.390625 192.378906 C 172.480469 192.378906 173.363281 193.261719 173.363281 194.347656 C 173.363281 195.433594 172.480469 196.3125 171.390625 196.3125 Z M 157.726562 144.386719 C 159.152344 144.386719 160.347656 143.425781 160.707031 142.121094 L 207.644531 142.121094 L 243.570312 177.949219 L 232.363281 177.949219 L 216.738281 193.53125 L 174.371094 193.53125 C 174.011719 192.226562 172.8125 191.265625 171.390625 191.265625 C 169.683594 191.265625 168.300781 192.644531 168.300781 194.347656 C 168.300781 196.046875 169.683594 197.429688 171.390625 197.429688 C 172.757812 197.429688 173.917969 196.542969 174.324219 195.3125 L 217.480469 195.3125 L 233.105469 179.730469 L 285.125 179.730469 C 285.53125 180.957031 286.691406 181.84375 288.058594 181.84375 C 289.765625 181.84375 291.148438 180.464844 291.148438 178.765625 C 291.148438 177.0625 289.765625 175.683594 288.058594 175.683594 C 286.632812 175.683594 285.4375 176.644531 285.078125 177.949219 L 246.097656 177.949219 L 208.382812 140.339844 L 160.660156 140.339844 C 160.253906 139.109375 159.09375 138.222656 157.726562 138.222656 C 156.019531 138.222656 154.636719 139.605469 154.636719 141.304688 C 154.636719 143.007812 156.019531 144.386719 157.726562 144.386719 " fill-opacity="1" fill-rule="nonzero"/><g clip-path="url(#15ebb2acab)"><path fill="#000000" d="M 232.324219 131.050781 L 180.890625 131.050781 C 180.222656 128.679688 178.039062 126.9375 175.445312 126.9375 C 172.324219 126.9375 169.789062 129.464844 169.789062 132.582031 C 169.789062 135.699219 172.324219 138.222656 175.445312 138.222656 C 177.855469 138.222656 179.910156 136.722656 180.726562 134.609375 L 230.84375 134.609375 L 245.632812 149.363281 L 313.105469 149.363281 C 313.921875 151.472656 315.976562 152.972656 318.386719 152.972656 C 321.511719 152.972656 324.042969 150.449219 324.042969 147.332031 C 324.042969 144.214844 321.511719 141.691406 318.386719 141.691406 C 315.792969 141.691406 313.609375 143.429688 312.941406 145.800781 L 247.113281 145.800781 L 232.324219 131.050781 " fill-opacity="1" fill-rule="nonzero"/></g><g clip-path="url(#f0e452232a)"><path fill="#000000" d="M 162.300781 104.652344 C 163.390625 104.652344 164.273438 105.53125 164.273438 106.617188 C 164.273438 107.707031 163.390625 108.585938 162.300781 108.585938 C 161.210938 108.585938 160.332031 107.707031 160.332031 106.617188 C 160.332031 105.53125 161.210938 104.652344 162.300781 104.652344 Z M 284.058594 135.675781 C 285.144531 135.675781 286.027344 136.558594 286.027344 137.644531 C 286.027344 138.730469 285.144531 139.609375 284.058594 139.609375 C 282.96875 139.609375 282.085938 138.730469 282.085938 137.644531 C 282.085938 136.558594 282.96875 135.675781 284.058594 135.675781 Z M 191.582031 124.1875 C 190.492188 124.1875 189.609375 123.304688 189.609375 122.222656 C 189.609375 121.136719 190.492188 120.253906 191.582031 120.253906 C 192.667969 120.253906 193.550781 121.136719 193.550781 122.222656 C 193.550781 123.304688 192.667969 124.1875 191.582031 124.1875 Z M 162.300781 109.699219 C 163.726562 109.699219 164.921875 108.738281 165.28125 107.433594 L 207.652344 107.433594 L 221.511719 121.253906 L 194.511719 121.253906 C 194.105469 120.027344 192.949219 119.140625 191.582031 119.140625 C 189.875 119.140625 188.492188 120.519531 188.492188 122.222656 C 188.492188 123.921875 189.875 125.300781 191.582031 125.300781 C 193.003906 125.300781 194.199219 124.339844 194.558594 123.035156 L 236.929688 123.035156 L 252.554688 138.617188 L 281.125 138.617188 C 281.535156 139.84375 282.691406 140.726562 284.058594 140.726562 C 285.761719 140.726562 287.148438 139.34375 287.148438 137.644531 C 287.148438 135.941406 285.761719 134.5625 284.058594 134.5625 C 282.628906 134.5625 281.429688 135.527344 281.074219 136.835938 L 253.292969 136.835938 L 237.667969 121.253906 L 236.9375 121.253906 L 236.9375 121.234375 L 224.015625 121.234375 L 208.390625 105.652344 L 165.234375 105.652344 C 164.828125 104.425781 163.667969 103.539062 162.300781 103.539062 C 160.597656 103.539062 159.210938 104.917969 159.210938 106.617188 C 159.210938 108.320312 160.597656 109.699219 162.300781 109.699219 " fill-opacity="1" fill-rule="nonzero"/></g><path fill="#000000" d="M 267.414062 162.894531 L 245.597656 162.894531 L 232.355469 149.6875 L 219.019531 149.6875 L 220.804688 151.46875 L 231.613281 151.46875 L 244.859375 164.675781 L 267.445312 164.675781 C 267.84375 165.917969 269.011719 166.820312 270.386719 166.820312 C 272.09375 166.820312 273.476562 165.441406 273.476562 163.738281 C 273.476562 162.035156 272.09375 160.65625 270.386719 160.65625 C 268.972656 160.65625 267.785156 161.605469 267.414062 162.894531 " fill-opacity="1" fill-rule="nonzero"/><path fill="#000000" d="M 215.753906 151.46875 L 213.96875 149.6875 L 177.121094 149.6875 C 176.753906 148.394531 175.5625 147.449219 174.148438 147.449219 C 172.441406 147.449219 171.058594 148.828125 171.058594 150.53125 C 171.058594 152.230469 172.441406 153.609375 174.148438 153.609375 C 175.527344 153.609375 176.695312 152.710938 177.089844 151.46875 L 215.753906 151.46875 " fill-opacity="1" fill-rule="nonzero"/><path fill="#000000" d="M 217.554688 168.996094 C 216.464844 168.996094 215.582031 168.113281 215.582031 167.027344 C 215.582031 165.941406 216.464844 165.0625 217.554688 165.0625 C 218.644531 165.0625 219.527344 165.941406 219.527344 167.027344 C 219.527344 168.113281 218.644531 168.996094 217.554688 168.996094 Z M 87.222656 131.535156 C 86.132812 131.535156 85.25 130.652344 85.25 129.566406 C 85.25 128.480469 86.132812 127.601562 87.222656 127.601562 C 88.3125 127.601562 89.195312 128.480469 89.195312 129.566406 C 89.195312 130.652344 88.3125 131.535156 87.222656 131.535156 Z M 203.890625 112.019531 C 204.980469 112.019531 205.863281 112.898438 205.863281 113.984375 C 205.863281 115.070312 204.980469 115.953125 203.890625 115.953125 C 202.800781 115.953125 201.917969 115.070312 201.917969 113.984375 C 201.917969 112.898438 202.800781 112.019531 203.890625 112.019531 Z M 217.554688 163.945312 C 216.128906 163.945312 214.933594 164.90625 214.574219 166.210938 L 167.636719 166.210938 L 131.710938 130.382812 L 142.917969 130.382812 L 158.542969 114.800781 L 200.910156 114.800781 C 201.269531 116.105469 202.46875 117.066406 203.890625 117.066406 C 205.597656 117.066406 206.980469 115.6875 206.980469 113.984375 C 206.980469 112.285156 205.597656 110.902344 203.890625 110.902344 C 202.523438 110.902344 201.363281 111.789062 200.957031 113.019531 L 157.800781 113.019531 L 142.175781 128.601562 L 90.15625 128.601562 C 89.75 127.375 88.589844 126.488281 87.222656 126.488281 C 85.515625 126.488281 84.132812 127.867188 84.132812 129.566406 C 84.132812 131.269531 85.515625 132.648438 87.222656 132.648438 C 88.648438 132.648438 89.84375 131.6875 90.203125 130.382812 L 129.1875 130.382812 L 166.898438 167.992188 L 214.621094 167.992188 C 215.027344 169.222656 216.1875 170.109375 217.554688 170.109375 C 219.257812 170.109375 220.644531 168.730469 220.644531 167.027344 C 220.644531 165.324219 219.257812 163.945312 217.554688 163.945312 " fill-opacity="1" fill-rule="nonzero"/><g clip-path="url(#f51b5ebec9)"><path fill="#000000" d="M 142.957031 177.28125 L 194.390625 177.28125 C 195.058594 179.652344 197.242188 181.390625 199.835938 181.390625 C 202.960938 181.390625 205.492188 178.867188 205.492188 175.75 C 205.492188 172.632812 202.960938 170.105469 199.835938 170.105469 C 197.429688 170.105469 195.375 171.605469 194.554688 173.71875 L 144.4375 173.71875 L 129.648438 158.96875 L 62.175781 158.96875 C 61.359375 156.855469 59.304688 155.355469 56.898438 155.355469 C 53.773438 155.355469 51.238281 157.882812 51.238281 161 C 51.238281 164.117188 53.773438 166.644531 56.898438 166.644531 C 59.488281 166.644531 61.671875 164.902344 62.34375 162.53125 L 128.167969 162.53125 L 142.957031 177.28125 " fill-opacity="1" fill-rule="nonzero"/></g><g clip-path="url(#6208ff8370)"><path fill="#000000" d="M 212.980469 203.679688 C 211.890625 203.679688 211.007812 202.800781 211.007812 201.710938 C 211.007812 200.628906 211.890625 199.746094 212.980469 199.746094 C 214.070312 199.746094 214.953125 200.628906 214.953125 201.710938 C 214.953125 202.800781 214.070312 203.679688 212.980469 203.679688 Z M 91.226562 172.652344 C 90.136719 172.652344 89.253906 171.773438 89.253906 170.6875 C 89.253906 169.601562 90.136719 168.71875 91.226562 168.71875 C 92.3125 168.71875 93.199219 169.601562 93.199219 170.6875 C 93.199219 171.773438 92.3125 172.652344 91.226562 172.652344 Z M 183.703125 184.144531 C 184.789062 184.144531 185.671875 185.023438 185.671875 186.109375 C 185.671875 187.195312 184.789062 188.078125 183.703125 188.078125 C 182.613281 188.078125 181.730469 187.195312 181.730469 186.109375 C 181.730469 185.023438 182.613281 184.144531 183.703125 184.144531 Z M 212.980469 198.632812 C 211.558594 198.632812 210.359375 199.589844 210 200.898438 L 167.632812 200.898438 L 153.773438 187.078125 L 180.769531 187.078125 C 181.175781 188.304688 182.335938 189.191406 183.703125 189.191406 C 185.40625 189.191406 186.792969 187.8125 186.792969 186.109375 C 186.792969 184.410156 185.40625 183.03125 183.703125 183.03125 C 182.277344 183.03125 181.082031 183.988281 180.722656 185.296875 L 138.351562 185.296875 L 122.726562 169.714844 L 94.15625 169.714844 C 93.746094 168.488281 92.589844 167.605469 91.226562 167.605469 C 89.519531 167.605469 88.136719 168.984375 88.136719 170.6875 C 88.136719 172.390625 89.519531 173.769531 91.226562 173.769531 C 92.652344 173.769531 93.851562 172.804688 94.207031 171.496094 L 121.988281 171.496094 L 137.613281 187.078125 L 138.34375 187.078125 L 138.347656 187.097656 L 151.265625 187.097656 L 166.890625 202.679688 L 210.046875 202.679688 C 210.453125 203.90625 211.613281 204.792969 212.980469 204.792969 C 214.6875 204.792969 216.070312 203.414062 216.070312 201.710938 C 216.070312 200.011719 214.6875 198.632812 212.980469 198.632812 " fill-opacity="1" fill-rule="nonzero"/></g><path fill="#000000" d="M 107.867188 145.4375 L 129.683594 145.4375 L 142.925781 158.644531 L 156.261719 158.644531 L 154.476562 156.863281 L 143.667969 156.863281 L 130.421875 143.65625 L 107.835938 143.65625 C 107.4375 142.410156 106.273438 141.511719 104.894531 141.511719 C 103.1875 141.511719 101.804688 142.890625 101.804688 144.59375 C 101.804688 146.292969 103.1875 147.675781 104.894531 147.675781 C 106.308594 147.675781 107.5 146.726562 107.867188 145.4375 " fill-opacity="1" fill-rule="nonzero"/><path fill="#000000" d="M 159.527344 156.863281 L 161.3125 158.644531 L 198.160156 158.644531 C 198.53125 159.9375 199.71875 160.882812 201.132812 160.882812 C 202.839844 160.882812 204.222656 159.503906 204.222656 157.800781 C 204.222656 156.101562 202.839844 154.722656 201.132812 154.722656 C 199.757812 154.722656 198.589844 155.621094 198.191406 156.863281 L 159.527344 156.863281 " fill-opacity="1" fill-rule="nonzero"/><g fill="#000000" fill-opacity="1"><g transform="translate(70.530117, 249.618992)"><g><path d="M 6.609375 -13.484375 C 8.796875 -13.484375 10.460938 -12.914062 11.609375 -11.78125 C 12.765625 -10.65625 13.34375 -8.976562 13.34375 -6.75 C 13.34375 -4.519531 12.765625 -2.835938 11.609375 -1.703125 C 10.460938 -0.566406 8.796875 0 6.609375 0 L 1.75 0 L 1.75 -13.484375 Z M 6.453125 -2.234375 C 7.835938 -2.234375 8.875 -2.585938 9.5625 -3.296875 C 10.25 -4.015625 10.59375 -5.164062 10.59375 -6.75 C 10.59375 -8.320312 10.25 -9.460938 9.5625 -10.171875 C 8.875 -10.890625 7.835938 -11.25 6.453125 -11.25 L 4.421875 -11.25 L 4.421875 -2.234375 Z M 6.453125 -2.234375 "/></g></g></g><g fill="#000000" fill-opacity="1"><g transform="translate(100.05214, 249.618992)"><g><path d="M 12.9375 0 L 10.140625 0 L 9.125 -3.109375 L 3.953125 -3.109375 L 2.9375 0 L 0.203125 0 L 4.859375 -13.484375 L 8.28125 -13.484375 Z M 6.40625 -10.671875 L 4.671875 -5.34375 L 8.390625 -5.34375 L 6.640625 -10.671875 Z M 6.40625 -10.671875 "/></g></g></g><g fill="#000000" fill-opacity="1"><g transform="translate(128.310574, 249.618992)"><g><path d="M 10.8125 -13.484375 L 10.8125 -11.25 L 6.921875 -11.25 L 6.921875 0 L 4.265625 0 L 4.265625 -11.25 L 0.375 -11.25 L 0.375 -13.484375 Z M 10.8125 -13.484375 "/></g></g></g><g fill="#000000" fill-opacity="1"><g transform="translate(154.604433, 249.618992)"><g><path d="M 12.9375 0 L 10.140625 0 L 9.125 -3.109375 L 3.953125 -3.109375 L 2.9375 0 L 0.203125 0 L 4.859375 -13.484375 L 8.28125 -13.484375 Z M 6.40625 -10.671875 L 4.671875 -5.34375 L 8.390625 -5.34375 L 6.640625 -10.671875 Z M 6.40625 -10.671875 "/></g></g></g><g fill="#000000" fill-opacity="1"><g transform="translate(182.862863, 249.618992)"><g><path d="M 5.984375 0.1875 C 5.046875 0.1875 4.210938 0.0703125 3.484375 -0.15625 C 2.753906 -0.382812 2.144531 -0.6875 1.65625 -1.0625 C 1.175781 -1.4375 0.804688 -1.847656 0.546875 -2.296875 L 2.015625 -4.09375 L 2.234375 -4.09375 C 2.640625 -3.488281 3.15625 -3.003906 3.78125 -2.640625 C 4.40625 -2.285156 5.140625 -2.109375 5.984375 -2.109375 C 6.691406 -2.109375 7.226562 -2.257812 7.59375 -2.5625 C 7.957031 -2.863281 8.140625 -3.28125 8.140625 -3.8125 C 8.140625 -4.132812 8.078125 -4.398438 7.953125 -4.609375 C 7.835938 -4.828125 7.644531 -5.007812 7.375 -5.15625 C 7.101562 -5.3125 6.738281 -5.445312 6.28125 -5.5625 L 4.546875 -5.953125 C 3.335938 -6.234375 2.4375 -6.691406 1.84375 -7.328125 C 1.25 -7.972656 0.953125 -8.8125 0.953125 -9.84375 C 0.953125 -10.601562 1.140625 -11.269531 1.515625 -11.84375 C 1.898438 -12.425781 2.457031 -12.875 3.1875 -13.1875 C 3.914062 -13.507812 4.785156 -13.671875 5.796875 -13.671875 C 6.835938 -13.671875 7.726562 -13.535156 8.46875 -13.265625 C 9.207031 -12.992188 9.832031 -12.578125 10.34375 -12.015625 L 9.03125 -10.203125 L 8.796875 -10.203125 C 8.421875 -10.597656 7.984375 -10.894531 7.484375 -11.09375 C 6.992188 -11.300781 6.429688 -11.40625 5.796875 -11.40625 C 5.066406 -11.40625 4.507812 -11.273438 4.125 -11.015625 C 3.75 -10.753906 3.5625 -10.394531 3.5625 -9.9375 C 3.5625 -9.519531 3.691406 -9.179688 3.953125 -8.921875 C 4.222656 -8.671875 4.6875 -8.476562 5.34375 -8.34375 L 7.125 -7.96875 C 8.425781 -7.6875 9.375 -7.21875 9.96875 -6.5625 C 10.5625 -5.90625 10.859375 -5.039062 10.859375 -3.96875 C 10.859375 -3.132812 10.675781 -2.40625 10.3125 -1.78125 C 9.945312 -1.15625 9.398438 -0.671875 8.671875 -0.328125 C 7.941406 0.015625 7.046875 0.1875 5.984375 0.1875 Z M 5.984375 0.1875 "/></g></g></g><g fill="#000000" fill-opacity="1"><g transform="translate(209.562543, 249.618992)"><g><path d="M 4.421875 -5.921875 L 4.421875 -2.234375 L 10.859375 -2.234375 L 10.859375 0 L 1.75 0 L 1.75 -13.484375 L 10.703125 -13.484375 L 10.703125 -11.25 L 4.421875 -11.25 L 4.421875 -8.09375 L 9.921875 -8.09375 L 9.921875 -5.921875 Z M 4.421875 -5.921875 "/></g></g></g><g fill="#000000" fill-opacity="1"><g transform="translate(236.271452, 249.618992)"><g><path d="M 4.328125 0 L 1.75 0 L 1.75 -13.484375 L 4.8125 -13.484375 L 10.21875 -4.796875 L 10.453125 -4.828125 L 10.453125 -13.484375 L 13.03125 -13.484375 L 13.03125 0 L 10.296875 0 L 4.5625 -9.28125 L 4.328125 -9.25 Z M 4.328125 0 "/></g></g></g><g fill="#000000" fill-opacity="1"><g transform="translate(266.180852, 249.618992)"><g><path d="M 5.984375 0.1875 C 5.046875 0.1875 4.210938 0.0703125 3.484375 -0.15625 C 2.753906 -0.382812 2.144531 -0.6875 1.65625 -1.0625 C 1.175781 -1.4375 0.804688 -1.847656 0.546875 -2.296875 L 2.015625 -4.09375 L 2.234375 -4.09375 C 2.640625 -3.488281 3.15625 -3.003906 3.78125 -2.640625 C 4.40625 -2.285156 5.140625 -2.109375 5.984375 -2.109375 C 6.691406 -2.109375 7.226562 -2.257812 7.59375 -2.5625 C 7.957031 -2.863281 8.140625 -3.28125 8.140625 -3.8125 C 8.140625 -4.132812 8.078125 -4.398438 7.953125 -4.609375 C 7.835938 -4.828125 7.644531 -5.007812 7.375 -5.15625 C 7.101562 -5.3125 6.738281 -5.445312 6.28125 -5.5625 L 4.546875 -5.953125 C 3.335938 -6.234375 2.4375 -6.691406 1.84375 -7.328125 C 1.25 -7.972656 0.953125 -8.8125 0.953125 -9.84375 C 0.953125 -10.601562 1.140625 -11.269531 1.515625 -11.84375 C 1.898438 -12.425781 2.457031 -12.875 3.1875 -13.1875 C 3.914062 -13.507812 4.785156 -13.671875 5.796875 -13.671875 C 6.835938 -13.671875 7.726562 -13.535156 8.46875 -13.265625 C 9.207031 -12.992188 9.832031 -12.578125 10.34375 -12.015625 L 9.03125 -10.203125 L 8.796875 -10.203125 C 8.421875 -10.597656 7.984375 -10.894531 7.484375 -11.09375 C 6.992188 -11.300781 6.429688 -11.40625 5.796875 -11.40625 C 5.066406 -11.40625 4.507812 -11.273438 4.125 -11.015625 C 3.75 -10.753906 3.5625 -10.394531 3.5625 -9.9375 C 3.5625 -9.519531 3.691406 -9.179688 3.953125 -8.921875 C 4.222656 -8.671875 4.6875 -8.476562 5.34375 -8.34375 L 7.125 -7.96875 C 8.425781 -7.6875 9.375 -7.21875 9.96875 -6.5625 C 10.5625 -5.90625 10.859375 -5.039062 10.859375 -3.96875 C 10.859375 -3.132812 10.675781 -2.40625 10.3125 -1.78125 C 9.945312 -1.15625 9.398438 -0.671875 8.671875 -0.328125 C 7.941406 0.015625 7.046875 0.1875 5.984375 0.1875 Z M 5.984375 0.1875 "/></g></g></g><g fill="#000000" fill-opacity="1"><g transform="translate(292.880531, 249.618992)"><g><path d="M 4.421875 -5.921875 L 4.421875 -2.234375 L 10.859375 -2.234375 L 10.859375 0 L 1.75 0 L 1.75 -13.484375 L 10.703125 -13.484375 L 10.703125 -11.25 L 4.421875 -11.25 L 4.421875 -8.09375 L 9.921875 -8.09375 L 9.921875 -5.921875 Z M 4.421875 -5.921875 "/></g></g></g><g fill="#000000" fill-opacity="1"><g transform="translate(113.216717, 268.020095)"><g><path d="M 4.78125 0.15625 C 4.03125 0.15625 3.363281 0.0625 2.78125 -0.125 C 2.195312 -0.3125 1.710938 -0.550781 1.328125 -0.84375 C 0.941406 -1.144531 0.644531 -1.476562 0.4375 -1.84375 L 1.609375 -3.265625 L 1.796875 -3.265625 C 2.117188 -2.785156 2.53125 -2.398438 3.03125 -2.109375 C 3.53125 -1.828125 4.113281 -1.6875 4.78125 -1.6875 C 5.351562 -1.6875 5.785156 -1.804688 6.078125 -2.046875 C 6.367188 -2.296875 6.515625 -2.628906 6.515625 -3.046875 C 6.515625 -3.304688 6.46875 -3.519531 6.375 -3.6875 C 6.28125 -3.863281 6.125 -4.015625 5.90625 -4.140625 C 5.6875 -4.265625 5.394531 -4.367188 5.03125 -4.453125 L 3.640625 -4.765625 C 2.671875 -4.992188 1.945312 -5.363281 1.46875 -5.875 C 1 -6.382812 0.765625 -7.050781 0.765625 -7.875 C 0.765625 -8.488281 0.914062 -9.023438 1.21875 -9.484375 C 1.519531 -9.953125 1.960938 -10.3125 2.546875 -10.5625 C 3.128906 -10.820312 3.828125 -10.953125 4.640625 -10.953125 C 5.472656 -10.953125 6.1875 -10.84375 6.78125 -10.625 C 7.375 -10.40625 7.875 -10.066406 8.28125 -9.609375 L 7.234375 -8.171875 L 7.046875 -8.171875 C 6.742188 -8.484375 6.394531 -8.71875 6 -8.875 C 5.601562 -9.039062 5.148438 -9.125 4.640625 -9.125 C 4.054688 -9.125 3.609375 -9.019531 3.296875 -8.8125 C 2.992188 -8.613281 2.84375 -8.332031 2.84375 -7.96875 C 2.84375 -7.625 2.953125 -7.347656 3.171875 -7.140625 C 3.390625 -6.941406 3.757812 -6.785156 4.28125 -6.671875 L 5.703125 -6.375 C 6.753906 -6.15625 7.515625 -5.78125 7.984375 -5.25 C 8.453125 -4.71875 8.6875 -4.03125 8.6875 -3.1875 C 8.6875 -2.507812 8.539062 -1.921875 8.25 -1.421875 C 7.96875 -0.921875 7.53125 -0.53125 6.9375 -0.25 C 6.351562 0.0195312 5.632812 0.15625 4.78125 0.15625 Z M 4.78125 0.15625 "/></g></g></g><g fill="#000000" fill-opacity="1"><g transform="translate(130.059581, 268.020095)"><g><path d="M 5.890625 0.15625 C 4.898438 0.15625 4.023438 -0.046875 3.265625 -0.453125 C 2.515625 -0.859375 1.921875 -1.472656 1.484375 -2.296875 C 1.054688 -3.128906 0.84375 -4.164062 0.84375 -5.40625 C 0.84375 -6.632812 1.054688 -7.660156 1.484375 -8.484375 C 1.921875 -9.316406 2.515625 -9.9375 3.265625 -10.34375 C 4.023438 -10.75 4.898438 -10.953125 5.890625 -10.953125 C 6.878906 -10.953125 7.75 -10.75 8.5 -10.34375 C 9.25 -9.945312 9.835938 -9.332031 10.265625 -8.5 C 10.691406 -7.664062 10.90625 -6.632812 10.90625 -5.40625 C 10.90625 -4.164062 10.691406 -3.128906 10.265625 -2.296875 C 9.835938 -1.460938 9.25 -0.84375 8.5 -0.4375 C 7.75 -0.0390625 6.878906 0.15625 5.890625 0.15625 Z M 5.890625 -1.703125 C 6.804688 -1.703125 7.503906 -1.992188 7.984375 -2.578125 C 8.460938 -3.171875 8.703125 -4.113281 8.703125 -5.40625 C 8.703125 -6.6875 8.460938 -7.625 7.984375 -8.21875 C 7.503906 -8.8125 6.804688 -9.109375 5.890625 -9.109375 C 4.960938 -9.109375 4.253906 -8.8125 3.765625 -8.21875 C 3.285156 -7.625 3.046875 -6.6875 3.046875 -5.40625 C 3.046875 -4.113281 3.285156 -3.171875 3.765625 -2.578125 C 4.253906 -1.992188 4.960938 -1.703125 5.890625 -1.703125 Z M 5.890625 -1.703125 "/></g></g></g><g fill="#000000" fill-opacity="1"><g transform="translate(149.391672, 268.020095)"><g><path d="M 3.53125 -10.796875 L 3.53125 -1.78125 L 8.390625 -1.78125 L 8.390625 0 L 1.40625 0 L 1.40625 -10.796875 Z M 3.53125 -10.796875 "/></g></g></g><g fill="#000000" fill-opacity="1"><g transform="translate(165.702713, 268.020095)"><g><path d="M 5.71875 0.15625 C 4.238281 0.15625 3.140625 -0.195312 2.421875 -0.90625 C 1.703125 -1.613281 1.34375 -2.660156 1.34375 -4.046875 L 1.34375 -10.796875 L 3.421875 -10.796875 L 3.421875 -4.0625 C 3.421875 -3.269531 3.609375 -2.675781 3.984375 -2.28125 C 4.367188 -1.894531 4.945312 -1.703125 5.71875 -1.703125 C 7.25 -1.703125 8.015625 -2.488281 8.015625 -4.0625 L 8.015625 -10.796875 L 10.109375 -10.796875 L 10.109375 -4.046875 C 10.109375 -2.660156 9.75 -1.613281 9.03125 -0.90625 C 8.3125 -0.195312 7.207031 0.15625 5.71875 0.15625 Z M 5.71875 0.15625 "/></g></g></g><g fill="#000000" fill-opacity="1"><g transform="translate(184.717183, 268.020095)"><g><path d="M 8.65625 -10.796875 L 8.65625 -9 L 5.53125 -9 L 5.53125 0 L 3.40625 0 L 3.40625 -9 L 0.296875 -9 L 0.296875 -10.796875 Z M 8.65625 -10.796875 "/></g></g></g><g fill="#000000" fill-opacity="1"><g transform="translate(201.235044, 268.020095)"><g><path d="M 3.53125 0 L 1.40625 0 L 1.40625 -10.796875 L 3.53125 -10.796875 Z M 3.53125 0 "/></g></g></g><g fill="#000000" fill-opacity="1"><g transform="translate(213.749468, 268.020095)"><g><path d="M 5.890625 0.15625 C 4.898438 0.15625 4.023438 -0.046875 3.265625 -0.453125 C 2.515625 -0.859375 1.921875 -1.472656 1.484375 -2.296875 C 1.054688 -3.128906 0.84375 -4.164062 0.84375 -5.40625 C 0.84375 -6.632812 1.054688 -7.660156 1.484375 -8.484375 C 1.921875 -9.316406 2.515625 -9.9375 3.265625 -10.34375 C 4.023438 -10.75 4.898438 -10.953125 5.890625 -10.953125 C 6.878906 -10.953125 7.75 -10.75 8.5 -10.34375 C 9.25 -9.945312 9.835938 -9.332031 10.265625 -8.5 C 10.691406 -7.664062 10.90625 -6.632812 10.90625 -5.40625 C 10.90625 -4.164062 10.691406 -3.128906 10.265625 -2.296875 C 9.835938 -1.460938 9.25 -0.84375 8.5 -0.4375 C 7.75 -0.0390625 6.878906 0.15625 5.890625 0.15625 Z M 5.890625 -1.703125 C 6.804688 -1.703125 7.503906 -1.992188 7.984375 -2.578125 C 8.460938 -3.171875 8.703125 -4.113281 8.703125 -5.40625 C 8.703125 -6.6875 8.460938 -7.625 7.984375 -8.21875 C 7.503906 -8.8125 6.804688 -9.109375 5.890625 -9.109375 C 4.960938 -9.109375 4.253906 -8.8125 3.765625 -8.21875 C 3.285156 -7.625 3.046875 -6.6875 3.046875 -5.40625 C 3.046875 -4.113281 3.285156 -3.171875 3.765625 -2.578125 C 4.253906 -1.992188 4.960938 -1.703125 5.890625 -1.703125 Z M 5.890625 -1.703125 "/></g></g></g><g fill="#000000" fill-opacity="1"><g transform="translate(233.081554, 268.020095)"><g><path d="M 3.46875 0 L 1.40625 0 L 1.40625 -10.796875 L 3.84375 -10.796875 L 8.1875 -3.84375 L 8.375 -3.875 L 8.375 -10.796875 L 10.421875 -10.796875 L 10.421875 0 L 8.234375 0 L 3.65625 -7.421875 L 3.46875 -7.40625 Z M 3.46875 0 "/></g></g></g><g fill="#000000" fill-opacity="1"><g transform="translate(252.494896, 268.020095)"><g><path d="M 4.78125 0.15625 C 4.03125 0.15625 3.363281 0.0625 2.78125 -0.125 C 2.195312 -0.3125 1.710938 -0.550781 1.328125 -0.84375 C 0.941406 -1.144531 0.644531 -1.476562 0.4375 -1.84375 L 1.609375 -3.265625 L 1.796875 -3.265625 C 2.117188 -2.785156 2.53125 -2.398438 3.03125 -2.109375 C 3.53125 -1.828125 4.113281 -1.6875 4.78125 -1.6875 C 5.351562 -1.6875 5.785156 -1.804688 6.078125 -2.046875 C 6.367188 -2.296875 6.515625 -2.628906 6.515625 -3.046875 C 6.515625 -3.304688 6.46875 -3.519531 6.375 -3.6875 C 6.28125 -3.863281 6.125 -4.015625 5.90625 -4.140625 C 5.6875 -4.265625 5.394531 -4.367188 5.03125 -4.453125 L 3.640625 -4.765625 C 2.671875 -4.992188 1.945312 -5.363281 1.46875 -5.875 C 1 -6.382812 0.765625 -7.050781 0.765625 -7.875 C 0.765625 -8.488281 0.914062 -9.023438 1.21875 -9.484375 C 1.519531 -9.953125 1.960938 -10.3125 2.546875 -10.5625 C 3.128906 -10.820312 3.828125 -10.953125 4.640625 -10.953125 C 5.472656 -10.953125 6.1875 -10.84375 6.78125 -10.625 C 7.375 -10.40625 7.875 -10.066406 8.28125 -9.609375 L 7.234375 -8.171875 L 7.046875 -8.171875 C 6.742188 -8.484375 6.394531 -8.71875 6 -8.875 C 5.601562 -9.039062 5.148438 -9.125 4.640625 -9.125 C 4.054688 -9.125 3.609375 -9.019531 3.296875 -8.8125 C 2.992188 -8.613281 2.84375 -8.332031 2.84375 -7.96875 C 2.84375 -7.625 2.953125 -7.347656 3.171875 -7.140625 C 3.390625 -6.941406 3.757812 -6.785156 4.28125 -6.671875 L 5.703125 -6.375 C 6.753906 -6.15625 7.515625 -5.78125 7.984375 -5.25 C 8.453125 -4.71875 8.6875 -4.03125 8.6875 -3.1875 C 8.6875 -2.507812 8.539062 -1.921875 8.25 -1.421875 C 7.96875 -0.921875 7.53125 -0.53125 6.9375 -0.25 C 6.351562 0.0195312 5.632812 0.15625 4.78125 0.15625 Z M 4.78125 0.15625 "/></g></g></g></svg>