<svg xmlns="http://www.w3.org/2000/svg" xmlns:xlink="http://www.w3.org/1999/xlink" width="500" zoomAndPan="magnify" viewBox="0 0 375 374.999991" height="500" preserveAspectRatio="xMidYMid meet" version="1.0"><defs><g/><clipPath id="bb67222f3e"><path d="M 170 114 L 233.386719 114 L 233.386719 206.050781 L 170 206.050781 Z M 170 114 " clip-rule="nonzero"/></clipPath><clipPath id="bbca12930d"><path d="M 145.636719 147 L 156 147 L 156 177 L 145.636719 177 Z M 145.636719 147 " clip-rule="nonzero"/></clipPath></defs><g clip-path="url(#bb67222f3e)"><path fill="#000000" d="M 188.4375 133.773438 C 188.722656 134.058594 189.082031 134.203125 189.441406 134.203125 L 198.039062 134.203125 C 198.398438 134.203125 198.757812 134.058594 199.042969 133.773438 L 201.40625 131.402344 C 202.125 131.761719 202.914062 131.976562 203.773438 131.976562 C 206.566406 131.976562 208.789062 129.75 208.789062 126.945312 C 208.789062 124.144531 206.566406 121.917969 203.773438 121.917969 C 200.976562 121.917969 198.757812 124.144531 198.757812 126.945312 C 198.757812 127.808594 198.972656 128.597656 199.328125 129.316406 L 197.464844 131.328125 L 190.015625 131.328125 L 185.140625 126.445312 L 185.140625 116.960938 L 189.296875 116.960938 C 189.441406 116.960938 189.585938 117.03125 189.726562 116.960938 C 202.480469 116.457031 215.59375 122.277344 221.972656 134.203125 L 217.171875 134.203125 C 216.527344 132.121094 214.664062 130.609375 212.371094 130.609375 C 209.578125 130.609375 207.355469 132.839844 207.355469 135.640625 C 207.355469 137.9375 208.859375 139.808594 210.9375 140.453125 L 210.9375 153.601562 L 200.1875 153.601562 C 199.402344 153.601562 198.757812 154.25 198.757812 155.039062 L 198.757812 162.941406 L 195.890625 162.941406 L 195.890625 154.320312 C 195.890625 153.890625 195.675781 153.53125 195.386719 153.242188 L 190.875 149.363281 L 190.875 139.949219 L 196.75 139.949219 L 198.683594 141.890625 C 198.328125 142.609375 198.109375 143.398438 198.109375 144.261719 C 198.109375 147.0625 200.332031 149.289062 203.128906 149.289062 C 205.921875 149.289062 208.144531 147.0625 208.144531 144.261719 C 208.144531 141.460938 205.921875 139.234375 203.128906 139.234375 C 202.265625 139.234375 201.480469 139.449219 200.761719 139.808594 L 198.398438 137.4375 C 198.039062 137.222656 197.679688 137.078125 197.324219 137.078125 L 189.441406 137.078125 C 188.652344 137.078125 188.007812 137.722656 188.007812 138.515625 L 188.007812 150.007812 C 188.007812 150.441406 188.222656 150.800781 188.507812 151.085938 L 193.023438 154.964844 L 193.023438 162.941406 L 187.292969 162.941406 C 186.933594 162.941406 186.574219 163.085938 186.289062 163.371094 L 174.824219 174.867188 C 174.535156 175.15625 174.394531 175.515625 174.394531 175.875 L 174.394531 187.585938 C 172.316406 188.230469 170.808594 190.097656 170.808594 192.398438 C 170.808594 195.199219 173.03125 197.425781 175.828125 197.425781 C 178.621094 197.425781 180.84375 195.199219 180.84375 192.398438 C 180.84375 190.097656 179.335938 188.230469 177.257812 187.585938 L 177.257812 176.449219 L 187.863281 165.816406 L 213.804688 165.816406 C 214.378906 165.816406 214.878906 165.527344 215.09375 165.023438 L 219.394531 156.402344 C 219.464844 156.1875 219.535156 155.972656 219.535156 155.757812 L 219.535156 150.726562 L 225.84375 150.726562 L 225.84375 156.621094 L 223.980469 160.714844 C 223.835938 161.074219 223.835938 161.433594 223.90625 161.792969 L 230.214844 178.675781 C 230.214844 178.746094 230.214844 178.820312 230.214844 178.890625 C 230.140625 178.964844 230.140625 178.964844 230.070312 178.964844 L 223.90625 178.964844 C 223.476562 178.964844 223.046875 179.179688 222.761719 179.539062 C 222.472656 179.898438 222.402344 180.398438 222.546875 180.832031 L 224.265625 185.859375 L 220.96875 187.011719 C 220.539062 187.152344 220.179688 187.511719 220.039062 187.945312 C 219.894531 188.375 219.964844 188.878906 220.253906 189.238281 L 222.402344 192.183594 L 220.539062 193.621094 C 220.179688 193.90625 219.964844 194.339844 219.964844 194.769531 L 219.964844 198.433594 C 219.964844 200.085938 219.105469 201.667969 217.671875 202.457031 C 217.027344 202.886719 216.242188 203.101562 215.453125 203.101562 C 209.503906 203.175781 186.574219 195.632812 186.574219 183.058594 L 186.574219 180.039062 C 186.574219 179.25 185.929688 178.605469 185.140625 178.605469 C 184.351562 178.605469 183.707031 179.25 183.707031 180.039062 L 183.707031 183.058594 C 183.707031 198.363281 209.433594 206.050781 215.523438 206.050781 C 216.8125 206.050781 218.101562 205.691406 219.179688 205.042969 C 221.472656 203.679688 222.832031 201.234375 222.832031 198.503906 L 222.832031 195.488281 L 225.199219 193.621094 C 225.769531 193.117188 225.914062 192.253906 225.484375 191.679688 L 223.691406 189.164062 L 226.558594 188.160156 C 227.273438 187.871094 227.707031 187.082031 227.417969 186.363281 L 225.914062 181.835938 L 230.070312 181.835938 C 231.074219 181.835938 232.003906 181.335938 232.578125 180.542969 C 233.152344 179.683594 233.292969 178.605469 232.9375 177.671875 L 226.84375 161.359375 L 228.566406 157.554688 C 228.636719 157.335938 228.707031 157.195312 228.707031 156.976562 L 228.707031 149.074219 C 228.277344 138.226562 223.835938 129.101562 215.953125 122.636719 C 208.789062 116.746094 199.542969 113.800781 189.726562 114.085938 C 189.65625 114.085938 189.511719 114.085938 189.441406 114.085938 L 183.707031 114.085938 C 182.921875 114.085938 182.273438 114.734375 182.273438 115.523438 L 182.273438 127.019531 C 182.273438 127.378906 182.417969 127.738281 182.707031 128.023438 Z M 203.773438 124.863281 C 204.992188 124.863281 205.921875 125.796875 205.921875 127.019531 C 205.921875 128.238281 204.992188 129.175781 203.773438 129.175781 C 202.554688 129.175781 201.621094 128.238281 201.621094 127.019531 C 201.621094 125.796875 202.554688 124.863281 203.773438 124.863281 Z M 203.054688 142.105469 C 204.273438 142.105469 205.207031 143.039062 205.207031 144.261719 C 205.207031 145.484375 204.273438 146.417969 203.054688 146.417969 C 201.835938 146.417969 200.90625 145.484375 200.90625 144.261719 C 200.90625 143.039062 201.835938 142.105469 203.054688 142.105469 Z M 177.976562 192.398438 C 177.976562 193.621094 177.042969 194.554688 175.828125 194.554688 C 174.609375 194.554688 173.675781 193.621094 173.675781 192.398438 C 173.675781 191.175781 174.609375 190.242188 175.828125 190.242188 C 177.042969 190.242188 177.976562 191.175781 177.976562 192.398438 Z M 210.222656 135.640625 C 210.222656 134.417969 211.152344 133.484375 212.371094 133.484375 C 213.589844 133.484375 214.519531 134.417969 214.519531 135.640625 C 214.519531 136.863281 213.589844 137.796875 212.371094 137.796875 C 211.152344 137.796875 210.222656 136.863281 210.222656 135.640625 Z M 225.769531 147.855469 L 218.101562 147.855469 C 217.316406 147.855469 216.671875 148.5 216.671875 149.289062 L 216.671875 155.398438 L 212.945312 162.941406 L 201.621094 162.941406 L 201.621094 156.476562 L 212.371094 156.476562 C 213.160156 156.476562 213.804688 155.828125 213.804688 155.039062 L 213.804688 140.453125 C 215.453125 139.949219 216.671875 138.65625 217.171875 137.078125 L 223.335938 137.078125 C 224.625 140.308594 225.484375 143.902344 225.769531 147.855469 Z M 225.769531 147.855469 " fill-opacity="1" fill-rule="nonzero"/></g><path fill="#000000" d="M 150.03125 123.929688 L 150.03125 136.359375 C 150.03125 136.789062 150.246094 137.222656 150.53125 137.507812 L 158.414062 143.832031 C 158.484375 143.902344 158.558594 143.902344 158.628906 143.972656 L 158.628906 159.347656 C 158.628906 159.707031 158.773438 159.996094 158.988281 160.285156 L 162.929688 164.882812 L 162.929688 176.808594 C 160.851562 177.453125 159.34375 179.324219 159.34375 181.621094 C 159.34375 184.421875 161.566406 186.652344 164.359375 186.652344 C 167.15625 186.652344 169.378906 184.421875 169.378906 181.621094 C 169.378906 179.324219 167.871094 177.453125 165.792969 176.808594 L 165.792969 164.378906 C 165.792969 164.019531 165.652344 163.730469 165.4375 163.445312 L 161.496094 158.847656 L 161.496094 127.304688 L 168.660156 131.402344 L 168.660156 134.347656 C 166.582031 134.992188 165.078125 136.863281 165.078125 139.160156 C 165.078125 141.960938 167.300781 144.191406 170.09375 144.191406 C 172.886719 144.191406 175.109375 141.960938 175.109375 139.160156 C 175.109375 136.863281 173.605469 134.992188 171.527344 134.347656 L 171.527344 130.609375 C 171.527344 130.109375 171.238281 129.605469 170.808594 129.390625 L 160.777344 123.640625 C 160.347656 123.355469 159.773438 123.355469 159.34375 123.640625 C 158.914062 123.929688 158.628906 124.359375 158.628906 124.863281 L 158.628906 140.308594 L 152.894531 135.640625 L 152.894531 123.929688 C 154.972656 123.28125 156.480469 121.414062 156.480469 119.117188 C 156.480469 116.3125 154.257812 114.085938 151.464844 114.085938 C 148.667969 114.085938 146.445312 116.3125 146.445312 119.117188 C 146.445312 121.414062 147.953125 123.28125 150.03125 123.929688 Z M 166.511719 181.621094 C 166.511719 182.84375 165.578125 183.777344 164.359375 183.777344 C 163.144531 183.777344 162.210938 182.84375 162.210938 181.621094 C 162.210938 180.398438 163.144531 179.464844 164.359375 179.464844 C 165.578125 179.464844 166.511719 180.398438 166.511719 181.621094 Z M 172.242188 139.234375 C 172.242188 140.453125 171.3125 141.386719 170.09375 141.386719 C 168.875 141.386719 167.945312 140.453125 167.945312 139.234375 C 167.945312 138.011719 168.875 137.078125 170.09375 137.078125 C 171.3125 137.078125 172.242188 138.011719 172.242188 139.234375 Z M 151.464844 116.960938 C 152.679688 116.960938 153.613281 117.894531 153.613281 119.117188 C 153.613281 120.335938 152.679688 121.269531 151.464844 121.269531 C 150.246094 121.269531 149.3125 120.335938 149.3125 119.117188 C 149.3125 117.894531 150.246094 116.960938 151.464844 116.960938 Z M 151.464844 116.960938 " fill-opacity="1" fill-rule="nonzero"/><path fill="#000000" d="M 182.273438 136.933594 L 182.273438 157.984375 L 171.527344 168.761719 L 171.527344 158.414062 C 173.605469 157.769531 175.109375 155.902344 175.109375 153.601562 C 175.109375 150.800781 172.886719 148.574219 170.09375 148.574219 C 167.300781 148.574219 165.078125 150.800781 165.078125 153.601562 C 165.078125 155.902344 166.582031 157.769531 168.660156 158.414062 L 168.660156 172.28125 C 168.660156 172.855469 169.019531 173.359375 169.519531 173.574219 C 169.734375 173.71875 169.878906 173.71875 170.09375 173.71875 C 170.453125 173.71875 170.808594 173.574219 171.097656 173.289062 L 184.710938 159.636719 C 185 159.347656 185.140625 158.988281 185.140625 158.632812 L 185.140625 136.359375 C 185.140625 136 185 135.640625 184.710938 135.351562 L 179.410156 130.035156 L 179.410156 119.117188 C 179.410156 118.324219 178.765625 117.679688 177.976562 117.679688 C 177.1875 117.679688 176.542969 118.324219 176.542969 119.117188 L 176.542969 130.609375 C 176.542969 130.96875 176.6875 131.328125 176.972656 131.617188 Z M 170.09375 155.757812 C 168.875 155.757812 167.945312 154.824219 167.945312 153.601562 C 167.945312 152.378906 168.875 151.445312 170.09375 151.445312 C 171.3125 151.445312 172.242188 152.378906 172.242188 153.601562 C 172.242188 154.824219 171.3125 155.757812 170.09375 155.757812 Z M 170.09375 155.757812 " fill-opacity="1" fill-rule="nonzero"/><g clip-path="url(#bbca12930d)"><path fill="#000000" d="M 145.730469 171.5625 C 145.730469 174.363281 147.953125 176.59375 150.746094 176.59375 C 153.542969 176.59375 155.761719 174.363281 155.761719 171.5625 C 155.761719 169.265625 154.257812 167.394531 152.179688 166.75 L 152.179688 156.976562 C 154.257812 156.332031 155.761719 154.464844 155.761719 152.164062 C 155.761719 149.363281 153.542969 147.136719 150.746094 147.136719 C 147.953125 147.136719 145.730469 149.363281 145.730469 152.164062 C 145.730469 154.464844 147.234375 156.332031 149.3125 156.976562 L 149.3125 166.75 C 147.234375 167.394531 145.730469 169.265625 145.730469 171.5625 Z M 148.597656 152.164062 C 148.597656 150.945312 149.527344 150.007812 150.746094 150.007812 C 151.964844 150.007812 152.894531 150.945312 152.894531 152.164062 C 152.894531 153.386719 151.964844 154.320312 150.746094 154.320312 C 149.527344 154.320312 148.597656 153.386719 148.597656 152.164062 Z M 150.746094 169.40625 C 151.964844 169.40625 152.894531 170.339844 152.894531 171.5625 C 152.894531 172.785156 151.964844 173.71875 150.746094 173.71875 C 149.527344 173.71875 148.597656 172.785156 148.597656 171.5625 C 148.597656 170.339844 149.527344 169.40625 150.746094 169.40625 Z M 150.746094 169.40625 " fill-opacity="1" fill-rule="nonzero"/></g><g fill="#000000" fill-opacity="1"><g transform="translate(95.772385, 240.654972)"><g><path d="M 4.945312 -18.785156 L 13.703125 -18.785156 C 15.230469 -18.785156 16.507812 -17.535156 16.507812 -16.007812 L 16.507812 -5.613281 C 16.507812 -4.085938 15.230469 -2.835938 13.703125 -2.835938 L 4.945312 -2.835938 Z M 2 -21.621094 L 2 0 L 14.8125 0 C 17.34375 0 19.453125 -2.113281 19.453125 -4.640625 L 19.453125 -16.980469 C 19.453125 -19.507812 17.34375 -21.621094 14.8125 -21.621094 Z M 2 -21.621094 "/></g></g></g><g fill="#000000" fill-opacity="1"><g transform="translate(117.1964, 240.654972)"><g><path d="M 8.449219 -21.621094 L 0.304688 0 L 3.390625 0 L 5.585938 -5.726562 L 15.867188 -5.726562 L 18.066406 0 L 21.148438 0 L 13.007812 -21.621094 Z M 6.671875 -8.558594 L 10.726562 -19.121094 L 14.785156 -8.558594 Z M 6.671875 -8.558594 "/></g></g></g><g fill="#000000" fill-opacity="1"><g transform="translate(138.620415, 240.654972)"><g><path d="M 0.304688 -21.621094 L 0.304688 -18.785156 L 7.558594 -18.785156 L 7.558594 0 L 10.503906 0 L 10.503906 -18.785156 L 17.757812 -18.785156 L 17.757812 -21.621094 Z M 0.304688 -21.621094 "/></g></g></g><g fill="#000000" fill-opacity="1"><g transform="translate(156.626592, 240.654972)"><g><path d="M 8.449219 -21.621094 L 0.304688 0 L 3.390625 0 L 5.585938 -5.726562 L 15.867188 -5.726562 L 18.066406 0 L 21.148438 0 L 13.007812 -21.621094 Z M 6.671875 -8.558594 L 10.726562 -19.121094 L 14.785156 -8.558594 Z M 6.671875 -8.558594 "/></g></g></g><g fill="#000000" fill-opacity="1"><g transform="translate(178.050607, 240.654972)"><g><path d="M 5.085938 -21.621094 C 3.363281 -21.621094 2 -20.261719 2 -18.535156 L 2 -12.476562 C 2 -10.753906 3.363281 -9.394531 5.085938 -9.394531 L 15.203125 -9.394531 C 15.925781 -9.394531 16.507812 -8.808594 16.507812 -8.085938 L 16.507812 -4.113281 C 16.507812 -3.390625 15.925781 -2.835938 15.203125 -2.835938 L 2.613281 -2.835938 L 2.613281 0 L 16.371094 0 C 18.09375 0 19.453125 -1.363281 19.453125 -3.085938 L 19.453125 -9.144531 C 19.453125 -10.867188 18.09375 -12.226562 16.371094 -12.226562 L 6.253906 -12.226562 C 5.53125 -12.226562 4.945312 -12.8125 4.945312 -13.535156 L 4.945312 -17.507812 C 4.945312 -18.230469 5.53125 -18.785156 6.253906 -18.785156 L 18.84375 -18.785156 L 18.84375 -21.621094 Z M 5.085938 -21.621094 "/></g></g></g><g fill="#000000" fill-opacity="1"><g transform="translate(199.474622, 240.654972)"><g><path d="M 2 -21.621094 L 2 0 L 18.066406 0 L 18.066406 -2.835938 L 4.945312 -2.835938 L 4.945312 -9.394531 L 14.980469 -9.394531 L 14.980469 -12.226562 L 4.945312 -12.226562 L 4.945312 -18.785156 L 18.066406 -18.785156 L 18.066406 -21.621094 Z M 2 -21.621094 "/></g></g></g><g fill="#000000" fill-opacity="1"><g transform="translate(217.925399, 240.654972)"><g><path d="M 2 -21.621094 L 2 0 L 4.945312 0 L 4.945312 -16.8125 L 16.507812 0 L 19.453125 0 L 19.453125 -21.621094 L 16.507812 -21.621094 L 16.507812 -4.808594 L 4.945312 -21.621094 Z M 2 -21.621094 "/></g></g></g><g fill="#000000" fill-opacity="1"><g transform="translate(239.349414, 240.654972)"><g><path d="M 5.085938 -21.621094 C 3.363281 -21.621094 2 -20.261719 2 -18.535156 L 2 -12.476562 C 2 -10.753906 3.363281 -9.394531 5.085938 -9.394531 L 15.203125 -9.394531 C 15.925781 -9.394531 16.507812 -8.808594 16.507812 -8.085938 L 16.507812 -4.113281 C 16.507812 -3.390625 15.925781 -2.835938 15.203125 -2.835938 L 2.613281 -2.835938 L 2.613281 0 L 16.371094 0 C 18.09375 0 19.453125 -1.363281 19.453125 -3.085938 L 19.453125 -9.144531 C 19.453125 -10.867188 18.09375 -12.226562 16.371094 -12.226562 L 6.253906 -12.226562 C 5.53125 -12.226562 4.945312 -12.8125 4.945312 -13.535156 L 4.945312 -17.507812 C 4.945312 -18.230469 5.53125 -18.785156 6.253906 -18.785156 L 18.84375 -18.785156 L 18.84375 -21.621094 Z M 5.085938 -21.621094 "/></g></g></g><g fill="#000000" fill-opacity="1"><g transform="translate(260.773428, 240.654972)"><g><path d="M 2 -21.621094 L 2 0 L 18.066406 0 L 18.066406 -2.835938 L 4.945312 -2.835938 L 4.945312 -9.394531 L 14.980469 -9.394531 L 14.980469 -12.226562 L 4.945312 -12.226562 L 4.945312 -18.785156 L 18.066406 -18.785156 L 18.066406 -21.621094 Z M 2 -21.621094 "/></g></g></g><g fill="#000000" fill-opacity="1"><g transform="translate(164.627551, 258.78462)"><g><path d="M 3.140625 0.109375 C 2.691406 0.109375 2.285156 0.046875 1.921875 -0.078125 C 1.566406 -0.203125 1.269531 -0.363281 1.03125 -0.5625 C 0.789062 -0.757812 0.609375 -0.976562 0.484375 -1.21875 L 0.953125 -1.78125 L 1.078125 -1.78125 C 1.523438 -1.03125 2.210938 -0.65625 3.140625 -0.65625 C 3.679688 -0.65625 4.082031 -0.769531 4.34375 -1 C 4.601562 -1.226562 4.734375 -1.539062 4.734375 -1.9375 C 4.734375 -2.175781 4.691406 -2.375 4.609375 -2.53125 C 4.523438 -2.695312 4.378906 -2.835938 4.171875 -2.953125 C 3.972656 -3.078125 3.703125 -3.179688 3.359375 -3.265625 L 2.53125 -3.46875 C 1.90625 -3.613281 1.441406 -3.851562 1.140625 -4.1875 C 0.847656 -4.519531 0.703125 -4.9375 0.703125 -5.4375 C 0.703125 -5.789062 0.789062 -6.109375 0.96875 -6.390625 C 1.15625 -6.671875 1.425781 -6.890625 1.78125 -7.046875 C 2.132812 -7.203125 2.554688 -7.28125 3.046875 -7.28125 C 3.585938 -7.28125 4.039062 -7.203125 4.40625 -7.046875 C 4.78125 -6.898438 5.082031 -6.675781 5.3125 -6.375 L 4.890625 -5.8125 L 4.765625 -5.8125 C 4.566406 -6.070312 4.320312 -6.257812 4.03125 -6.375 C 3.75 -6.488281 3.421875 -6.546875 3.046875 -6.546875 C 2.546875 -6.546875 2.164062 -6.445312 1.90625 -6.25 C 1.65625 -6.0625 1.53125 -5.796875 1.53125 -5.453125 C 1.53125 -5.128906 1.625 -4.867188 1.8125 -4.671875 C 2 -4.484375 2.316406 -4.335938 2.765625 -4.234375 L 3.625 -4.03125 C 4.320312 -3.863281 4.828125 -3.609375 5.140625 -3.265625 C 5.453125 -2.929688 5.609375 -2.503906 5.609375 -1.984375 C 5.609375 -1.578125 5.515625 -1.21875 5.328125 -0.90625 C 5.148438 -0.59375 4.875 -0.34375 4.5 -0.15625 C 4.132812 0.0195312 3.679688 0.109375 3.140625 0.109375 Z M 3.140625 0.109375 "/></g></g></g><g fill="#000000" fill-opacity="1"><g transform="translate(170.778684, 258.78462)"><g><path d="M 3.109375 0.109375 C 2.597656 0.109375 2.148438 0 1.765625 -0.21875 C 1.390625 -0.4375 1.097656 -0.753906 0.890625 -1.171875 C 0.691406 -1.597656 0.59375 -2.109375 0.59375 -2.703125 C 0.59375 -3.304688 0.691406 -3.816406 0.890625 -4.234375 C 1.097656 -4.660156 1.390625 -4.976562 1.765625 -5.1875 C 2.148438 -5.40625 2.597656 -5.515625 3.109375 -5.515625 C 3.617188 -5.515625 4.0625 -5.40625 4.4375 -5.1875 C 4.820312 -4.976562 5.113281 -4.660156 5.3125 -4.234375 C 5.519531 -3.816406 5.625 -3.304688 5.625 -2.703125 C 5.625 -2.109375 5.519531 -1.597656 5.3125 -1.171875 C 5.113281 -0.753906 4.820312 -0.4375 4.4375 -0.21875 C 4.0625 0 3.617188 0.109375 3.109375 0.109375 Z M 3.109375 -0.609375 C 3.648438 -0.609375 4.0625 -0.78125 4.34375 -1.125 C 4.632812 -1.46875 4.78125 -1.992188 4.78125 -2.703125 C 4.78125 -3.421875 4.632812 -3.953125 4.34375 -4.296875 C 4.0625 -4.640625 3.648438 -4.8125 3.109375 -4.8125 C 2.566406 -4.8125 2.148438 -4.640625 1.859375 -4.296875 C 1.578125 -3.953125 1.4375 -3.421875 1.4375 -2.703125 C 1.4375 -1.992188 1.578125 -1.46875 1.859375 -1.125 C 2.148438 -0.78125 2.566406 -0.609375 3.109375 -0.609375 Z M 3.109375 -0.609375 "/></g></g></g><g fill="#000000" fill-opacity="1"><g transform="translate(176.993636, 258.78462)"><g><path d="M 2.15625 0.109375 C 1.769531 0.109375 1.46875 0 1.25 -0.21875 C 1.03125 -0.4375 0.921875 -0.765625 0.921875 -1.203125 L 0.921875 -7.59375 L 1.71875 -7.59375 L 1.71875 -1.25 C 1.71875 -1.019531 1.757812 -0.851562 1.84375 -0.75 C 1.9375 -0.65625 2.078125 -0.609375 2.265625 -0.609375 C 2.367188 -0.609375 2.476562 -0.628906 2.59375 -0.671875 L 2.671875 -0.65625 L 2.765625 -0.015625 C 2.703125 0.0234375 2.613281 0.0546875 2.5 0.078125 C 2.394531 0.0976562 2.28125 0.109375 2.15625 0.109375 Z M 2.15625 0.109375 "/></g></g></g><g fill="#000000" fill-opacity="1"><g transform="translate(179.93911, 258.78462)"><g><path d="M 2.671875 0.109375 C 2.066406 0.109375 1.613281 -0.0507812 1.3125 -0.375 C 1.007812 -0.707031 0.859375 -1.1875 0.859375 -1.8125 L 0.859375 -5.421875 L 1.65625 -5.421875 L 1.65625 -1.828125 C 1.65625 -1.003906 2.039062 -0.59375 2.8125 -0.59375 C 3.3125 -0.59375 3.703125 -0.753906 3.984375 -1.078125 C 4.265625 -1.398438 4.40625 -1.921875 4.40625 -2.640625 L 4.40625 -5.421875 L 5.21875 -5.421875 L 5.21875 0 L 4.453125 0 L 4.453125 -0.84375 L 4.359375 -0.875 C 4.171875 -0.539062 3.945312 -0.289062 3.6875 -0.125 C 3.425781 0.03125 3.085938 0.109375 2.671875 0.109375 Z M 2.671875 0.109375 "/></g></g></g><g fill="#000000" fill-opacity="1"><g transform="translate(186.090243, 258.78462)"><g><path d="M 3.671875 -0.859375 L 3.921875 -0.28125 C 3.796875 -0.15625 3.628906 -0.0625 3.421875 0 C 3.210938 0.0703125 2.984375 0.109375 2.734375 0.109375 C 1.703125 0.109375 1.1875 -0.414062 1.1875 -1.46875 L 1.1875 -4.765625 L 0.25 -4.765625 L 0.25 -5.421875 L 1.1875 -5.421875 L 1.1875 -6.5625 L 1.984375 -6.703125 L 1.984375 -5.421875 L 3.734375 -5.421875 L 3.734375 -4.765625 L 1.984375 -4.765625 L 1.984375 -1.546875 C 1.984375 -0.921875 2.253906 -0.609375 2.796875 -0.609375 C 3.097656 -0.609375 3.351562 -0.691406 3.5625 -0.859375 Z M 3.671875 -0.859375 "/></g></g></g><g fill="#000000" fill-opacity="1"><g transform="translate(190.213908, 258.78462)"><g><path d="M 1.34375 -6.46875 C 1.175781 -6.46875 1.035156 -6.519531 0.921875 -6.625 C 0.816406 -6.726562 0.765625 -6.863281 0.765625 -7.03125 C 0.765625 -7.195312 0.816406 -7.332031 0.921875 -7.4375 C 1.035156 -7.539062 1.175781 -7.59375 1.34375 -7.59375 C 1.519531 -7.59375 1.660156 -7.539062 1.765625 -7.4375 C 1.867188 -7.332031 1.921875 -7.195312 1.921875 -7.03125 C 1.921875 -6.863281 1.867188 -6.726562 1.765625 -6.625 C 1.660156 -6.519531 1.519531 -6.46875 1.34375 -6.46875 Z M 0.9375 0 L 0.9375 -5.421875 L 1.75 -5.421875 L 1.75 0 Z M 0.9375 0 "/></g></g></g><g fill="#000000" fill-opacity="1"><g transform="translate(192.899199, 258.78462)"><g><path d="M 3.109375 0.109375 C 2.597656 0.109375 2.148438 0 1.765625 -0.21875 C 1.390625 -0.4375 1.097656 -0.753906 0.890625 -1.171875 C 0.691406 -1.597656 0.59375 -2.109375 0.59375 -2.703125 C 0.59375 -3.304688 0.691406 -3.816406 0.890625 -4.234375 C 1.097656 -4.660156 1.390625 -4.976562 1.765625 -5.1875 C 2.148438 -5.40625 2.597656 -5.515625 3.109375 -5.515625 C 3.617188 -5.515625 4.0625 -5.40625 4.4375 -5.1875 C 4.820312 -4.976562 5.113281 -4.660156 5.3125 -4.234375 C 5.519531 -3.816406 5.625 -3.304688 5.625 -2.703125 C 5.625 -2.109375 5.519531 -1.597656 5.3125 -1.171875 C 5.113281 -0.753906 4.820312 -0.4375 4.4375 -0.21875 C 4.0625 0 3.617188 0.109375 3.109375 0.109375 Z M 3.109375 -0.609375 C 3.648438 -0.609375 4.0625 -0.78125 4.34375 -1.125 C 4.632812 -1.46875 4.78125 -1.992188 4.78125 -2.703125 C 4.78125 -3.421875 4.632812 -3.953125 4.34375 -4.296875 C 4.0625 -4.640625 3.648438 -4.8125 3.109375 -4.8125 C 2.566406 -4.8125 2.148438 -4.640625 1.859375 -4.296875 C 1.578125 -3.953125 1.4375 -3.421875 1.4375 -2.703125 C 1.4375 -1.992188 1.578125 -1.46875 1.859375 -1.125 C 2.148438 -0.78125 2.566406 -0.609375 3.109375 -0.609375 Z M 3.109375 -0.609375 "/></g></g></g><g fill="#000000" fill-opacity="1"><g transform="translate(199.114151, 258.78462)"><g><path d="M 0.9375 0 L 0.9375 -5.421875 L 1.703125 -5.421875 L 1.703125 -4.5625 L 1.8125 -4.546875 C 1.988281 -4.859375 2.21875 -5.097656 2.5 -5.265625 C 2.78125 -5.429688 3.117188 -5.515625 3.515625 -5.515625 C 4.171875 -5.515625 4.644531 -5.347656 4.9375 -5.015625 C 5.226562 -4.691406 5.375 -4.179688 5.375 -3.484375 L 5.375 0 L 4.578125 0 L 4.578125 -3.46875 C 4.578125 -3.789062 4.535156 -4.050781 4.453125 -4.25 C 4.367188 -4.445312 4.238281 -4.59375 4.0625 -4.6875 C 3.882812 -4.78125 3.65625 -4.828125 3.375 -4.828125 C 2.882812 -4.828125 2.488281 -4.664062 2.1875 -4.34375 C 1.894531 -4.019531 1.75 -3.5 1.75 -2.78125 L 1.75 0 Z M 0.9375 0 "/></g></g></g><g fill="#000000" fill-opacity="1"><g transform="translate(205.348739, 258.78462)"><g><path d="M 2.46875 0.109375 C 2.125 0.109375 1.804688 0.0625 1.515625 -0.03125 C 1.234375 -0.125 0.988281 -0.25 0.78125 -0.40625 C 0.582031 -0.5625 0.445312 -0.738281 0.375 -0.9375 L 0.84375 -1.421875 L 0.9375 -1.421875 C 1.113281 -1.148438 1.328125 -0.945312 1.578125 -0.8125 C 1.828125 -0.675781 2.125 -0.609375 2.46875 -0.609375 C 2.875 -0.609375 3.175781 -0.6875 3.375 -0.84375 C 3.582031 -1 3.6875 -1.21875 3.6875 -1.5 C 3.6875 -1.707031 3.625 -1.878906 3.5 -2.015625 C 3.375 -2.160156 3.171875 -2.269531 2.890625 -2.34375 L 1.984375 -2.5625 C 1.492188 -2.675781 1.132812 -2.863281 0.90625 -3.125 C 0.6875 -3.382812 0.578125 -3.703125 0.578125 -4.078125 C 0.578125 -4.367188 0.648438 -4.625 0.796875 -4.84375 C 0.953125 -5.0625 1.171875 -5.226562 1.453125 -5.34375 C 1.734375 -5.457031 2.070312 -5.515625 2.46875 -5.515625 C 2.957031 -5.515625 3.34375 -5.445312 3.625 -5.3125 C 3.914062 -5.175781 4.144531 -4.984375 4.3125 -4.734375 L 3.859375 -4.296875 L 3.765625 -4.296875 C 3.585938 -4.492188 3.394531 -4.632812 3.1875 -4.71875 C 2.988281 -4.8125 2.75 -4.859375 2.46875 -4.859375 C 2.101562 -4.859375 1.828125 -4.789062 1.640625 -4.65625 C 1.453125 -4.53125 1.359375 -4.347656 1.359375 -4.109375 C 1.359375 -3.890625 1.425781 -3.710938 1.5625 -3.578125 C 1.695312 -3.441406 1.929688 -3.332031 2.265625 -3.25 L 3.15625 -3.03125 C 3.625 -2.925781 3.960938 -2.742188 4.171875 -2.484375 C 4.390625 -2.222656 4.5 -1.898438 4.5 -1.515625 C 4.5 -1.191406 4.421875 -0.90625 4.265625 -0.65625 C 4.117188 -0.414062 3.890625 -0.226562 3.578125 -0.09375 C 3.273438 0.0390625 2.90625 0.109375 2.46875 0.109375 Z M 2.46875 0.109375 "/></g></g></g></svg>