<svg xmlns="http://www.w3.org/2000/svg" xmlns:xlink="http://www.w3.org/1999/xlink" width="500" zoomAndPan="magnify" viewBox="0 0 375 374.999991" height="500" preserveAspectRatio="xMidYMid meet" version="1.0"><defs><g/><clipPath id="e7227c9b4c"><path d="M 142.425781 141 L 166 141 L 166 165 L 142.425781 165 Z M 142.425781 141 " clip-rule="nonzero"/></clipPath><clipPath id="c35c011ceb"><path d="M 160 189 L 172 189 L 172 200.226562 L 160 200.226562 Z M 160 189 " clip-rule="nonzero"/></clipPath></defs><path fill="#332c2b" d="M 203.355469 136.703125 C 203.578125 137.613281 203.03125 138.527344 202.121094 138.75 C 201.214844 138.972656 200.304688 138.425781 200.082031 137.511719 C 200.082031 137.472656 196.996094 125.507812 208.480469 124.070312 C 216.152344 123.117188 217.726562 127.03125 219.542969 131.59375 C 220.273438 133.398438 221.039062 135.324219 222.371094 136.882812 C 226.75 141.972656 229.011719 143.171875 229.011719 143.171875 C 229.839844 143.617188 230.144531 144.628906 229.699219 145.460938 C 229.253906 146.292969 228.246094 146.597656 227.417969 146.152344 C 227.417969 146.152344 224.613281 144.648438 219.828125 139.09375 C 218.132812 137.105469 217.242188 134.917969 216.414062 132.847656 C 215.125 129.605469 213.992188 126.785156 208.886719 127.433594 C 201.214844 128.367188 203.355469 136.660156 203.355469 136.703125 Z M 203.355469 136.703125 " fill-opacity="1" fill-rule="nonzero"/><path fill="#332c2b" d="M 217.949219 133.84375 C 217.019531 133.824219 216.273438 133.070312 216.292969 132.140625 C 216.316406 131.207031 217.0625 130.457031 217.992188 130.476562 C 218.03125 130.476562 231.09375 130.496094 239.570312 145.480469 C 241.609375 149.089844 242.15625 152.335938 241.652344 155.074219 C 241.1875 157.605469 239.8125 159.714844 237.875 161.296875 C 236.019531 162.816406 233.65625 163.894531 231.070312 164.417969 C 226.609375 165.351562 221.441406 164.765625 217.203125 162.371094 C 216.394531 161.925781 216.09375 160.890625 216.558594 160.082031 C 217 159.269531 218.03125 158.964844 218.839844 159.433594 C 222.351562 161.398438 226.671875 161.90625 230.386719 161.113281 C 232.445312 160.6875 234.324219 159.859375 235.734375 158.679688 C 237.066406 157.585938 238.015625 156.148438 238.339844 154.445312 C 238.703125 152.4375 238.257812 150.003906 236.644531 147.125 C 229.132812 133.863281 217.96875 133.84375 217.949219 133.84375 Z M 217.949219 133.84375 " fill-opacity="1" fill-rule="nonzero"/><path fill="#332c2b" d="M 229.71875 163.46875 C 229.296875 162.636719 229.617188 161.621094 230.425781 161.195312 C 231.253906 160.769531 232.261719 161.09375 232.6875 161.90625 C 232.6875 161.925781 235.714844 167.5625 230.125 171.089844 C 229.335938 171.597656 228.304688 171.355469 227.800781 170.5625 C 227.296875 169.773438 227.539062 168.738281 228.328125 168.230469 C 231.292969 166.367188 229.71875 163.46875 229.71875 163.46875 Z M 229.71875 163.46875 " fill-opacity="1" fill-rule="nonzero"/><path fill="#332c2b" d="M 238.5 154.949219 C 238.15625 154.078125 238.582031 153.105469 239.449219 152.761719 C 240.316406 152.417969 241.285156 152.84375 241.628906 153.714844 C 241.652344 153.753906 246.675781 166.144531 239.632812 171.78125 C 239.492188 171.882812 239.328125 172.023438 239.128906 172.164062 C 235.796875 174.640625 230.546875 176.707031 225.296875 177.113281 C 219.867188 177.539062 214.375 176.179688 210.824219 171.699219 C 210.742188 171.597656 210.640625 171.457031 210.519531 171.292969 C 203.089844 161.195312 212.074219 155.824219 212.09375 155.800781 C 212.882812 155.316406 213.933594 155.558594 214.417969 156.371094 C 214.902344 157.160156 214.660156 158.214844 213.851562 158.703125 C 213.832031 158.722656 207.996094 162.191406 213.226562 169.285156 C 213.285156 169.367188 213.367188 169.46875 213.46875 169.609375 C 216.214844 173.058594 220.636719 174.09375 225.054688 173.746094 C 229.679688 173.382812 234.261719 171.578125 237.128906 169.449219 C 237.25 169.367188 237.371094 169.265625 237.53125 169.125 C 242.578125 165.070312 238.5 154.972656 238.5 154.949219 Z M 238.5 154.949219 " fill-opacity="1" fill-rule="nonzero"/><path fill="#332c2b" d="M 209.734375 161.804688 C 210.640625 162.046875 211.167969 162.960938 210.925781 163.871094 C 210.683594 164.785156 209.773438 165.3125 208.867188 165.070312 C 208.824219 165.070312 196.570312 162.027344 195.21875 142.683594 C 195.15625 141.75 195.863281 140.941406 196.792969 140.878906 C 197.722656 140.816406 198.527344 141.527344 198.589844 142.460938 C 199.761719 159.351562 209.691406 161.785156 209.734375 161.804688 Z M 209.734375 161.804688 " fill-opacity="1" fill-rule="nonzero"/><path fill="#332c2b" d="M 198.105469 146.859375 C 199.015625 147.0625 199.597656 147.957031 199.398438 148.867188 C 199.195312 149.78125 198.308594 150.367188 197.398438 150.164062 C 197.359375 150.164062 181.429688 146.515625 178.765625 159.433594 C 178.582031 160.34375 177.695312 160.933594 176.785156 160.75 C 175.878906 160.566406 175.292969 159.675781 175.476562 158.761719 C 178.847656 142.441406 198.066406 146.839844 198.105469 146.859375 Z M 198.105469 146.859375 " fill-opacity="1" fill-rule="nonzero"/><path fill="#332c2b" d="M 188.375 147.226562 C 189.121094 147.792969 189.261719 148.847656 188.699219 149.597656 C 188.132812 150.347656 187.082031 150.488281 186.335938 149.921875 C 186.316406 149.902344 180.804688 145.804688 180.964844 136.84375 C 180.984375 135.910156 181.753906 135.160156 182.683594 135.179688 C 183.609375 135.203125 184.355469 135.972656 184.335938 136.90625 C 184.195312 144.121094 188.355469 147.226562 188.375 147.226562 Z M 188.375 147.226562 " fill-opacity="1" fill-rule="nonzero"/><path fill="#332c2b" d="M 206.605469 125.246094 C 207.351562 125.8125 207.492188 126.867188 206.949219 127.617188 C 206.402344 128.367188 205.332031 128.511719 204.585938 127.960938 C 204.546875 127.941406 191.644531 117.964844 174 126.644531 C 173.171875 127.050781 172.164062 126.707031 171.761719 125.875 C 171.355469 125.042969 171.699219 124.027344 172.527344 123.625 C 192.027344 113.992188 206.5625 125.203125 206.605469 125.246094 Z M 206.605469 125.246094 " fill-opacity="1" fill-rule="nonzero"/><path fill="#332c2b" d="M 183.265625 142.074219 C 182.359375 142.257812 181.46875 141.667969 181.269531 140.757812 C 181.085938 139.84375 181.671875 138.953125 182.582031 138.75 C 182.601562 138.75 190.636719 137.128906 189.445312 130.234375 C 189.285156 129.320312 189.910156 128.429688 190.816406 128.285156 C 191.726562 128.125 192.613281 128.753906 192.753906 129.664062 C 194.53125 139.824219 183.308594 142.054688 183.265625 142.074219 Z M 183.265625 142.074219 " fill-opacity="1" fill-rule="nonzero"/><path fill="#332c2b" d="M 172.929688 123.441406 C 173.839844 123.257812 174.726562 123.867188 174.910156 124.777344 C 175.089844 125.691406 174.484375 126.582031 173.578125 126.765625 C 173.535156 126.765625 159.707031 129.402344 153.773438 140.066406 C 153.328125 140.878906 152.300781 141.183594 151.492188 140.714844 C 150.683594 140.269531 150.382812 139.234375 150.84375 138.425781 C 157.546875 126.359375 172.890625 123.460938 172.929688 123.441406 Z M 172.929688 123.441406 " fill-opacity="1" fill-rule="nonzero"/><path fill="#332c2b" d="M 161.988281 131.429688 C 161.0625 131.550781 160.210938 130.902344 160.089844 129.988281 C 159.96875 129.058594 160.617188 128.207031 161.523438 128.085938 C 161.566406 128.085938 173.292969 126.320312 175.597656 134.835938 C 176.96875 139.925781 173.820312 143.941406 171.253906 147.203125 C 169.984375 148.828125 168.894531 150.207031 168.996094 150.855469 C 169.117188 151.789062 168.46875 152.640625 167.5625 152.761719 C 166.632812 152.882812 165.785156 152.234375 165.664062 151.320312 C 165.378906 149.253906 166.875 147.367188 168.609375 145.117188 C 170.691406 142.460938 173.273438 139.175781 172.34375 135.707031 C 170.832031 130.113281 162.007812 131.410156 161.988281 131.429688 Z M 161.988281 131.429688 " fill-opacity="1" fill-rule="nonzero"/><path fill="#332c2b" d="M 170.507812 143.109375 C 170.488281 142.175781 171.234375 141.40625 172.164062 141.40625 C 173.09375 141.386719 173.859375 142.136719 173.859375 143.070312 C 173.859375 143.070312 173.878906 146.515625 177.292969 148.21875 C 178.121094 148.625 178.460938 149.636719 178.058594 150.46875 C 177.65625 151.300781 176.644531 151.644531 175.816406 151.238281 C 170.550781 148.625 170.507812 143.128906 170.507812 143.109375 Z M 170.507812 143.109375 " fill-opacity="1" fill-rule="nonzero"/><path fill="#332c2b" d="M 215.246094 173.28125 C 215.730469 172.488281 216.757812 172.246094 217.566406 172.734375 C 218.355469 173.21875 218.597656 174.253906 218.113281 175.066406 C 218.070312 175.105469 207.554688 192.847656 184.035156 177.195312 C 183.265625 176.6875 183.046875 175.632812 183.570312 174.84375 C 184.074219 174.070312 185.125 173.847656 185.910156 174.355469 C 206.484375 188.082031 215.222656 173.320312 215.246094 173.28125 Z M 215.246094 173.28125 " fill-opacity="1" fill-rule="nonzero"/><path fill="#332c2b" d="M 201.355469 155.578125 C 202.285156 155.519531 203.070312 156.226562 203.132812 157.160156 C 203.191406 158.09375 202.484375 158.882812 201.558594 158.945312 C 201.515625 158.945312 189.445312 159.613281 187.125 167.136719 C 186.839844 168.027344 185.910156 168.535156 185.023438 168.253906 C 184.136719 167.96875 183.628906 167.035156 183.914062 166.144531 C 186.941406 156.351562 201.316406 155.578125 201.355469 155.578125 Z M 201.355469 155.578125 " fill-opacity="1" fill-rule="nonzero"/><path fill="#332c2b" d="M 221.21875 136.277344 C 222.148438 136.335938 222.835938 137.148438 222.773438 138.082031 C 222.714844 139.011719 221.90625 139.703125 220.976562 139.640625 C 220.957031 139.640625 214.113281 139.035156 210.640625 147.125 C 210.277344 147.976562 209.289062 148.382812 208.421875 148.015625 C 207.574219 147.652344 207.167969 146.65625 207.53125 145.785156 C 211.972656 135.464844 221.199219 136.277344 221.21875 136.277344 Z M 221.21875 136.277344 " fill-opacity="1" fill-rule="nonzero"/><path fill="#332c2b" d="M 173.113281 126.785156 C 172.183594 126.707031 171.496094 125.894531 171.578125 124.960938 C 171.660156 124.027344 172.464844 123.339844 173.394531 123.421875 C 173.414062 123.421875 180.378906 123.96875 184.015625 129.402344 C 184.539062 130.171875 184.316406 131.226562 183.550781 131.753906 C 182.78125 132.28125 181.734375 132.058594 181.207031 131.289062 C 178.484375 127.210938 173.132812 126.785156 173.113281 126.785156 Z M 173.113281 126.785156 " fill-opacity="1" fill-rule="nonzero"/><path fill="#1a1a1a" d="M 157.769531 170.421875 C 158.757812 170.28125 159.6875 170.988281 159.808594 171.984375 C 159.949219 172.976562 159.242188 173.910156 158.253906 174.03125 C 157.265625 174.152344 156.335938 173.464844 156.214844 172.46875 C 156.074219 171.476562 156.78125 170.542969 157.769531 170.421875 Z M 159.324219 169.671875 L 160.675781 167.886719 C 159.847656 167.378906 158.878906 167.097656 157.871094 167.136719 L 158.171875 169.347656 C 158.558594 169.367188 158.960938 169.488281 159.324219 169.671875 Z M 160.738281 171.335938 L 162.9375 171.03125 C 162.695312 170.035156 162.191406 169.164062 161.484375 168.496094 L 160.132812 170.28125 C 160.394531 170.585938 160.617188 170.949219 160.738281 171.335938 Z M 160.554688 173.542969 L 162.332031 174.902344 C 162.835938 174.070312 163.121094 173.097656 163.078125 172.085938 L 160.878906 172.386719 C 160.859375 172.773438 160.757812 173.179688 160.554688 173.542969 Z M 158.902344 174.964844 L 159.203125 177.175781 C 160.191406 176.929688 161.0625 176.421875 161.726562 175.714844 L 159.949219 174.355469 C 159.648438 174.640625 159.285156 174.84375 158.902344 174.964844 Z M 156.699219 174.800781 L 155.347656 176.585938 C 156.175781 177.09375 157.144531 177.375 158.152344 177.335938 L 157.851562 175.125 C 157.46875 175.085938 157.0625 174.984375 156.699219 174.800781 Z M 155.285156 173.117188 L 153.085938 173.421875 C 153.328125 174.417969 153.832031 175.289062 154.539062 175.957031 L 155.890625 174.171875 C 155.628906 173.867188 155.40625 173.503906 155.285156 173.117188 Z M 155.46875 170.910156 L 153.691406 169.550781 C 153.1875 170.382812 152.90625 171.355469 152.945312 172.367188 L 155.144531 172.0625 C 155.164062 171.679688 155.265625 171.273438 155.46875 170.910156 Z M 154.316406 168.738281 L 156.09375 170.097656 C 156.398438 169.832031 156.742188 169.609375 157.144531 169.488281 L 156.839844 167.277344 C 155.851562 167.503906 154.984375 168.027344 154.316406 168.738281 Z M 157.808594 165.007812 C 158.578125 164.988281 159.324219 165.089844 160.03125 165.292969 L 160.796875 163.992188 L 161.304688 164.195312 L 161.808594 164.398438 L 161.425781 165.859375 C 162.089844 166.222656 162.695312 166.691406 163.199219 167.238281 L 164.511719 166.488281 L 165.199219 167.339844 L 164.148438 168.414062 C 164.53125 169.042969 164.835938 169.753906 165.015625 170.503906 L 166.53125 170.503906 L 166.613281 171.050781 L 166.691406 171.597656 L 165.238281 172.003906 C 165.257812 172.773438 165.160156 173.523438 164.957031 174.234375 L 166.25 175.003906 L 165.84375 176.019531 L 164.390625 175.632812 C 164.027344 176.300781 163.5625 176.910156 163.019531 177.417969 L 163.765625 178.734375 L 163.34375 179.078125 L 162.917969 179.425781 L 161.847656 178.371094 C 161.222656 178.753906 160.515625 179.058594 159.769531 179.242188 L 159.769531 180.761719 L 159.222656 180.84375 L 158.679688 180.925781 L 158.273438 179.464844 C 157.507812 179.484375 156.761719 179.382812 156.054688 179.179688 L 155.285156 180.480469 L 154.277344 180.074219 L 154.660156 178.613281 C 153.996094 178.25 153.390625 177.78125 152.882812 177.234375 L 151.574219 177.984375 L 150.886719 177.132812 L 151.9375 176.058594 C 151.550781 175.429688 151.25 174.71875 151.066406 173.96875 L 149.554688 173.96875 L 149.390625 172.875 L 150.84375 172.46875 C 150.824219 171.699219 150.925781 170.949219 151.128906 170.238281 L 149.835938 169.46875 L 150.039062 168.960938 L 150.238281 168.453125 L 151.695312 168.839844 C 152.058594 168.171875 152.519531 167.5625 153.066406 167.054688 L 152.320312 165.738281 L 152.742188 165.394531 L 153.167969 165.046875 L 154.238281 166.101562 C 154.863281 165.71875 155.570312 165.414062 156.316406 165.230469 L 156.316406 163.710938 L 156.863281 163.628906 L 157.40625 163.546875 Z M 157.808594 165.007812 " fill-opacity="1" fill-rule="evenodd"/><g clip-path="url(#e7227c9b4c)"><path fill="#1a1a1a" d="M 153.953125 146.433594 C 157.6875 146.433594 160.71875 149.476562 160.71875 153.226562 C 160.71875 156.976562 157.6875 160.019531 153.953125 160.019531 C 150.21875 160.019531 147.191406 156.976562 147.191406 153.226562 C 147.191406 149.476562 150.21875 146.433594 153.953125 146.433594 Z M 153.953125 150.773438 C 155.285156 150.773438 156.378906 151.867188 156.378906 153.207031 C 156.378906 154.546875 155.285156 155.640625 153.953125 155.640625 C 152.621094 155.640625 151.53125 154.546875 151.53125 153.207031 C 151.53125 151.867188 152.601562 150.773438 153.953125 150.773438 Z M 153.953125 147.550781 C 157.0625 147.550781 159.585938 150.085938 159.585938 153.207031 C 159.585938 156.328125 157.0625 158.863281 153.953125 158.863281 C 150.84375 158.863281 148.320312 156.328125 148.320312 153.207031 C 148.300781 150.085938 150.824219 147.550781 153.953125 147.550781 Z M 154.945312 143.636719 C 155.972656 143.738281 156.941406 144 157.832031 144.40625 L 159.0625 142.824219 L 159.6875 143.191406 L 160.3125 143.554688 L 159.566406 145.421875 C 160.375 146.007812 161.101562 146.738281 161.6875 147.550781 L 163.542969 146.800781 L 164.269531 148.058594 L 162.695312 149.292969 C 163.097656 150.207031 163.363281 151.179688 163.464844 152.191406 L 165.441406 152.476562 L 165.441406 153.9375 L 163.464844 154.222656 C 163.363281 155.253906 163.097656 156.226562 162.695312 157.121094 L 164.269531 158.355469 L 163.542969 159.613281 L 161.6875 158.863281 C 161.101562 159.675781 160.375 160.40625 159.566406 160.992188 L 160.3125 162.859375 L 159.6875 163.222656 L 159.0625 163.589844 L 157.832031 162.007812 C 156.921875 162.414062 155.953125 162.675781 154.945312 162.777344 L 154.660156 164.765625 L 153.207031 164.765625 L 152.925781 162.777344 C 151.894531 162.675781 150.925781 162.414062 150.039062 162.007812 L 148.804688 163.589844 L 148.179688 163.222656 L 147.554688 162.859375 L 148.300781 160.992188 C 147.496094 160.40625 146.769531 159.675781 146.183594 158.863281 L 144.324219 159.613281 L 143.597656 158.355469 L 145.171875 157.121094 C 144.769531 156.207031 144.507812 155.234375 144.40625 154.222656 L 142.425781 153.9375 L 142.425781 152.476562 L 144.40625 152.191406 C 144.507812 151.160156 144.769531 150.1875 145.171875 149.292969 L 143.597656 148.054688 L 143.960938 147.429688 L 144.324219 146.800781 L 146.183594 147.550781 C 146.769531 146.738281 147.496094 146.007812 148.300781 145.421875 L 147.554688 143.554688 L 148.179688 143.191406 L 148.804688 142.824219 L 150.039062 144.40625 C 150.945312 144 151.914062 143.738281 152.925781 143.636719 L 153.207031 141.648438 L 154.660156 141.648438 Z M 154.945312 143.636719 " fill-opacity="1" fill-rule="evenodd"/></g><g clip-path="url(#c35c011ceb)"><path fill="#1a1a1a" d="M 166.007812 193.539062 C 166.632812 193.539062 167.15625 194.0625 167.15625 194.691406 C 167.15625 195.320312 166.632812 195.847656 166.007812 195.847656 C 165.378906 195.847656 164.855469 195.320312 164.855469 194.691406 C 164.855469 194.0625 165.359375 193.539062 166.007812 193.539062 Z M 167.035156 193.191406 L 168.027344 192.199219 C 167.5625 191.8125 166.976562 191.550781 166.328125 191.488281 L 166.328125 192.910156 C 166.59375 192.949219 166.835938 193.050781 167.035156 193.191406 Z M 167.78125 194.367188 L 169.195312 194.367188 C 169.136719 193.71875 168.875 193.132812 168.488281 192.664062 L 167.5 193.660156 C 167.640625 193.863281 167.742188 194.105469 167.78125 194.367188 Z M 167.5 195.726562 L 168.488281 196.71875 C 168.875 196.253906 169.136719 195.667969 169.195312 195.015625 L 167.78125 195.015625 C 167.742188 195.28125 167.640625 195.523438 167.5 195.726562 Z M 166.328125 196.476562 L 166.328125 197.898438 C 166.976562 197.835938 167.5625 197.570312 168.027344 197.1875 L 167.035156 196.195312 C 166.835938 196.335938 166.59375 196.4375 166.328125 196.476562 Z M 164.976562 196.195312 L 163.988281 197.1875 C 164.453125 197.570312 165.039062 197.835938 165.683594 197.898438 L 165.683594 196.476562 C 165.421875 196.4375 165.179688 196.335938 164.976562 196.195312 Z M 164.210938 195.015625 L 162.796875 195.015625 C 162.855469 195.667969 163.121094 196.253906 163.503906 196.71875 L 164.492188 195.726562 C 164.371094 195.523438 164.269531 195.28125 164.210938 195.015625 Z M 164.511719 193.660156 L 163.523438 192.664062 C 163.140625 193.132812 162.878906 193.71875 162.816406 194.367188 L 164.230469 194.367188 C 164.269531 194.105469 164.371094 193.863281 164.511719 193.660156 Z M 163.96875 192.199219 L 164.957031 193.191406 C 165.160156 193.050781 165.402344 192.949219 165.664062 192.886719 L 165.664062 191.46875 C 165.039062 191.550781 164.453125 191.8125 163.96875 192.199219 Z M 166.472656 190.152344 C 166.957031 190.191406 167.417969 190.332031 167.84375 190.515625 L 168.429688 189.765625 L 168.730469 189.949219 L 169.035156 190.128906 L 168.671875 191.023438 C 169.054688 191.308594 169.398438 191.652344 169.679688 192.035156 L 170.570312 191.671875 L 170.75 191.976562 L 170.933594 192.28125 L 170.183594 192.867188 C 170.367188 193.292969 170.507812 193.761719 170.550781 194.246094 L 171.496094 194.390625 L 171.496094 195.078125 L 170.550781 195.21875 C 170.507812 195.707031 170.367188 196.171875 170.183594 196.597656 L 170.933594 197.1875 L 170.75 197.492188 L 170.570312 197.796875 L 169.679688 197.371094 C 169.398438 197.753906 169.054688 198.097656 168.671875 198.382812 L 169.035156 199.277344 L 168.730469 199.457031 L 168.429688 199.640625 L 167.84375 198.890625 C 167.417969 199.074219 166.957031 199.214844 166.472656 199.253906 L 166.328125 200.207031 L 165.644531 200.207031 L 165.5 199.253906 C 165.015625 199.195312 164.554688 199.074219 164.128906 198.890625 L 163.542969 199.640625 L 163.242188 199.457031 L 162.9375 199.277344 L 163.300781 198.382812 C 162.917969 198.097656 162.574219 197.753906 162.292969 197.371094 L 161.402344 197.734375 L 161.222656 197.429688 L 161.039062 197.125 L 161.789062 196.539062 C 161.605469 196.113281 161.464844 195.644531 161.425781 195.160156 L 160.476562 195.015625 L 160.476562 194.328125 L 161.425781 194.1875 C 161.464844 193.699219 161.605469 193.234375 161.789062 192.808594 L 161.039062 192.21875 L 161.222656 191.914062 L 161.402344 191.609375 L 162.292969 191.976562 C 162.574219 191.589844 162.917969 191.246094 163.300781 190.960938 L 162.9375 190.070312 L 163.242188 189.886719 L 163.542969 189.703125 L 164.128906 190.457031 C 164.554688 190.273438 165.015625 190.128906 165.5 190.089844 L 165.644531 189.136719 L 166.328125 189.136719 Z M 166.472656 190.152344 " fill-opacity="1" fill-rule="evenodd"/></g><path fill="#1a1a1a" d="M 176.082031 175.570312 C 179.269531 176.625 181.007812 180.054688 179.957031 183.257812 C 178.90625 186.460938 175.496094 188.203125 172.304688 187.148438 C 169.117188 186.09375 167.378906 182.667969 168.429688 179.464844 C 169.480469 176.261719 172.890625 174.519531 176.082031 175.570312 Z M 174.867188 179.28125 C 176.019531 179.667969 176.625 180.882812 176.261719 182.039062 C 175.898438 183.195312 174.667969 183.804688 173.515625 183.4375 C 172.367188 183.054688 171.761719 181.835938 172.125 180.683594 C 172.507812 179.527344 173.738281 178.898438 174.867188 179.28125 Z M 175.777344 176.523438 C 178.441406 177.398438 179.875 180.277344 179.007812 182.933594 C 178.140625 185.609375 175.273438 187.046875 172.628906 186.175781 C 169.984375 185.304688 168.53125 182.425781 169.398438 179.769531 C 170.246094 177.09375 173.113281 175.652344 175.777344 176.523438 Z M 177.714844 173.464844 C 178.5625 173.847656 179.308594 174.335938 179.957031 174.945312 L 181.449219 173.929688 L 181.894531 174.417969 L 182.339844 174.902344 L 181.167969 176.28125 C 181.691406 177.011719 182.097656 177.824219 182.378906 178.695312 L 184.175781 178.574219 L 184.457031 179.871094 L 182.761719 180.480469 C 182.84375 181.371094 182.804688 182.261719 182.621094 183.175781 L 184.234375 183.964844 L 184.035156 184.59375 L 183.832031 185.222656 L 182.054688 184.898438 C 181.671875 185.75 181.1875 186.5 180.582031 187.148438 L 181.589844 188.652344 L 180.621094 189.542969 L 179.25 188.367188 C 178.523438 188.894531 177.714844 189.300781 176.847656 189.582031 L 176.96875 191.386719 L 176.324219 191.53125 L 175.675781 191.671875 L 175.070312 189.96875 C 174.183594 190.050781 173.292969 190.007812 172.386719 189.828125 L 171.597656 191.449219 L 170.347656 191.042969 L 170.671875 189.257812 C 169.820312 188.875 169.074219 188.386719 168.429688 187.777344 L 166.933594 188.792969 L 166.492188 188.304688 L 166.046875 187.820312 L 167.21875 186.441406 C 166.691406 185.710938 166.289062 184.898438 166.007812 184.027344 L 164.210938 184.148438 L 164.070312 183.5 L 163.925781 182.851562 L 165.625 182.242188 C 165.542969 181.351562 165.582031 180.457031 165.765625 179.546875 L 164.148438 178.753906 L 164.351562 178.125 L 164.554688 177.5 L 166.328125 177.824219 C 166.714844 176.972656 167.199219 176.222656 167.804688 175.570312 L 166.792969 174.070312 L 167.761719 173.179688 L 169.136719 174.355469 C 169.863281 173.828125 170.671875 173.421875 171.539062 173.140625 L 171.417969 171.335938 L 172.0625 171.191406 L 172.710938 171.050781 L 173.316406 172.753906 C 174.203125 172.671875 175.089844 172.714844 176 172.894531 L 176.785156 171.273438 L 177.414062 171.476562 L 178.039062 171.679688 Z M 177.714844 173.464844 " fill-opacity="1" fill-rule="evenodd"/><path fill="#1a1a1a" d="M 169.800781 157.261719 C 170.367188 157.179688 170.890625 157.585938 170.972656 158.15625 C 171.054688 158.722656 170.648438 159.25 170.085938 159.332031 C 169.519531 159.410156 168.996094 159.007812 168.914062 158.4375 C 168.832031 157.851562 169.238281 157.34375 169.800781 157.261719 Z M 170.691406 156.816406 L 171.457031 155.800781 C 170.992188 155.519531 170.429688 155.355469 169.84375 155.375 L 170.003906 156.652344 C 170.246094 156.652344 170.488281 156.714844 170.691406 156.816406 Z M 171.496094 157.789062 L 172.769531 157.628906 C 172.628906 157.058594 172.34375 156.550781 171.941406 156.1875 L 171.175781 157.203125 C 171.296875 157.363281 171.417969 157.566406 171.496094 157.789062 Z M 171.398438 159.046875 L 172.40625 159.816406 C 172.6875 159.351562 172.851562 158.78125 172.832031 158.195312 L 171.558594 158.355469 C 171.558594 158.621094 171.496094 158.84375 171.398438 159.046875 Z M 170.449219 159.859375 L 170.609375 161.136719 C 171.175781 160.992188 171.679688 160.710938 172.042969 160.304688 L 171.035156 159.535156 C 170.871094 159.675781 170.671875 159.796875 170.449219 159.859375 Z M 169.195312 159.757812 L 168.429688 160.769531 C 168.894531 161.054688 169.457031 161.214844 170.042969 161.195312 L 169.882812 159.917969 C 169.621094 159.9375 169.398438 159.859375 169.195312 159.757812 Z M 168.367188 158.804688 L 167.097656 158.964844 C 167.238281 159.535156 167.519531 160.039062 167.925781 160.40625 L 168.691406 159.390625 C 168.570312 159.230469 168.449219 159.027344 168.367188 158.804688 Z M 168.46875 157.546875 L 167.460938 156.777344 C 167.175781 157.242188 167.015625 157.808594 167.035156 158.398438 L 168.308594 158.234375 C 168.308594 157.972656 168.367188 157.75 168.46875 157.546875 Z M 167.824219 156.289062 L 168.832031 157.058594 C 168.996094 156.898438 169.195312 156.777344 169.4375 156.714844 L 169.277344 155.4375 C 168.691406 155.597656 168.207031 155.882812 167.824219 156.289062 Z M 169.820312 154.160156 C 170.265625 154.140625 170.691406 154.199219 171.09375 154.320312 L 171.539062 153.570312 L 171.820312 153.695312 L 172.101562 153.816406 L 171.882812 154.648438 C 172.265625 154.847656 172.609375 155.113281 172.910156 155.4375 L 173.65625 155.011719 L 173.839844 155.253906 L 174.019531 155.5 L 173.414062 156.105469 C 173.636719 156.472656 173.800781 156.878906 173.898438 157.304688 L 174.769531 157.304688 L 174.808594 157.605469 L 174.847656 157.910156 L 174.019531 158.132812 C 174.042969 158.582031 173.980469 159.007812 173.859375 159.410156 L 174.605469 159.859375 L 174.484375 160.140625 L 174.363281 160.425781 L 173.535156 160.203125 C 173.335938 160.585938 173.074219 160.933594 172.75 161.238281 L 173.171875 161.988281 L 172.929688 162.167969 L 172.6875 162.351562 L 172.082031 161.742188 C 171.71875 161.964844 171.316406 162.128906 170.890625 162.230469 L 170.890625 163.101562 L 170.589844 163.140625 L 170.285156 163.183594 L 170.0625 162.351562 C 169.621094 162.371094 169.195312 162.3125 168.792969 162.191406 L 168.347656 162.941406 L 168.066406 162.816406 L 167.78125 162.695312 L 168.003906 161.863281 C 167.621094 161.664062 167.277344 161.398438 166.976562 161.074219 L 166.230469 161.5 L 166.046875 161.257812 L 165.867188 161.011719 L 166.472656 160.40625 C 166.25 160.039062 166.085938 159.632812 165.988281 159.207031 L 165.117188 159.207031 L 165.078125 158.90625 L 165.039062 158.601562 L 165.867188 158.378906 C 165.84375 157.929688 165.90625 157.503906 166.027344 157.101562 L 165.28125 156.652344 L 165.402344 156.371094 L 165.523438 156.085938 L 166.351562 156.308594 C 166.550781 155.925781 166.8125 155.578125 167.136719 155.273438 L 166.714844 154.523438 L 166.957031 154.34375 L 167.199219 154.160156 L 167.804688 154.769531 C 168.167969 154.546875 168.570312 154.382812 168.996094 154.28125 L 168.996094 153.410156 L 169.296875 153.367188 L 169.601562 153.328125 Z M 169.820312 154.160156 " fill-opacity="1" fill-rule="evenodd"/><path fill="#1a1a1a" d="M 169.984375 165.433594 C 171.09375 165.433594 172.003906 166.347656 172.003906 167.460938 C 172.003906 168.578125 171.09375 169.488281 169.984375 169.488281 C 168.875 169.488281 167.964844 168.578125 167.964844 167.460938 C 167.964844 166.347656 168.875 165.433594 169.984375 165.433594 Z M 169.984375 166.730469 C 170.386719 166.730469 170.710938 167.054688 170.710938 167.460938 C 170.710938 167.867188 170.386719 168.191406 169.984375 168.191406 C 169.578125 168.191406 169.257812 167.867188 169.257812 167.460938 C 169.257812 167.054688 169.578125 166.730469 169.984375 166.730469 Z M 169.984375 165.757812 C 170.914062 165.757812 171.660156 166.507812 171.660156 167.441406 C 171.660156 168.375 170.914062 169.125 169.984375 169.125 C 169.054688 169.125 168.308594 168.375 168.308594 167.441406 C 168.308594 166.527344 169.054688 165.757812 169.984375 165.757812 Z M 170.285156 164.601562 C 170.589844 164.644531 170.871094 164.722656 171.15625 164.824219 L 171.519531 164.359375 L 171.699219 164.460938 L 171.882812 164.5625 L 171.660156 165.109375 C 171.902344 165.292969 172.125 165.496094 172.285156 165.738281 L 172.832031 165.515625 L 172.929688 165.699219 L 173.03125 165.878906 L 172.566406 166.246094 C 172.6875 166.507812 172.769531 166.8125 172.789062 167.117188 L 173.375 167.199219 L 173.375 167.644531 L 172.789062 167.726562 C 172.75 168.027344 172.667969 168.3125 172.566406 168.597656 L 173.03125 168.960938 L 172.929688 169.144531 L 172.832031 169.328125 L 172.285156 169.105469 C 172.101562 169.347656 171.902344 169.570312 171.660156 169.730469 L 171.882812 170.28125 L 171.699219 170.382812 L 171.519531 170.484375 L 171.15625 170.015625 C 170.890625 170.136719 170.589844 170.21875 170.285156 170.238281 L 170.207031 170.828125 L 169.761719 170.828125 L 169.679688 170.238281 C 169.378906 170.199219 169.09375 170.117188 168.8125 170.015625 L 168.449219 170.484375 L 168.269531 170.382812 L 168.085938 170.28125 L 168.308594 169.730469 C 168.066406 169.550781 167.84375 169.347656 167.683594 169.105469 L 167.136719 169.328125 L 166.933594 168.960938 L 167.398438 168.597656 C 167.277344 168.332031 167.199219 168.027344 167.175781 167.726562 L 166.59375 167.644531 L 166.59375 167.199219 L 167.175781 167.117188 C 167.21875 166.8125 167.296875 166.527344 167.398438 166.246094 L 166.933594 165.878906 L 167.035156 165.699219 L 167.136719 165.515625 L 167.683594 165.738281 C 167.863281 165.496094 168.066406 165.273438 168.308594 165.109375 L 168.085938 164.5625 L 168.269531 164.460938 L 168.449219 164.359375 L 168.8125 164.824219 C 169.074219 164.703125 169.378906 164.621094 169.679688 164.601562 L 169.761719 164.015625 L 170.207031 164.015625 Z M 170.285156 164.601562 " fill-opacity="1" fill-rule="evenodd"/><path fill="#1a1a1a" d="M 183.953125 155.945312 C 185.0625 155.945312 185.972656 156.855469 185.972656 157.972656 C 185.972656 159.085938 185.0625 160 183.953125 160 C 182.84375 160 181.933594 159.085938 181.933594 157.972656 C 181.933594 156.855469 182.84375 155.945312 183.953125 155.945312 Z M 183.953125 157.242188 C 184.355469 157.242188 184.679688 157.566406 184.679688 157.972656 C 184.679688 158.378906 184.355469 158.703125 183.953125 158.703125 C 183.550781 158.703125 183.226562 158.378906 183.226562 157.972656 C 183.226562 157.566406 183.550781 157.242188 183.953125 157.242188 Z M 183.953125 156.269531 C 184.882812 156.269531 185.628906 157.019531 185.628906 157.953125 C 185.628906 158.882812 184.882812 159.632812 183.953125 159.632812 C 183.023438 159.632812 182.277344 158.882812 182.277344 157.953125 C 182.277344 157.019531 183.023438 156.269531 183.953125 156.269531 Z M 184.257812 155.113281 C 184.558594 155.152344 184.84375 155.234375 185.125 155.335938 L 185.488281 154.871094 L 185.667969 154.972656 L 185.851562 155.074219 L 185.628906 155.621094 C 185.871094 155.800781 186.09375 156.003906 186.253906 156.25 L 186.800781 156.023438 L 187.003906 156.390625 L 186.539062 156.753906 C 186.660156 157.019531 186.738281 157.324219 186.757812 157.628906 L 187.34375 157.707031 L 187.34375 158.15625 L 186.757812 158.234375 C 186.71875 158.539062 186.636719 158.824219 186.539062 159.105469 L 187.003906 159.472656 L 186.902344 159.65625 L 186.800781 159.835938 L 186.253906 159.613281 C 186.074219 159.859375 185.871094 160.082031 185.628906 160.242188 L 185.851562 160.789062 L 185.667969 160.890625 L 185.488281 160.992188 L 185.125 160.527344 C 184.863281 160.648438 184.558594 160.730469 184.257812 160.75 L 184.175781 161.335938 L 183.730469 161.335938 L 183.652344 160.75 C 183.347656 160.710938 183.066406 160.628906 182.78125 160.527344 L 182.417969 160.992188 L 182.238281 160.890625 L 182.054688 160.789062 L 182.277344 160.242188 C 182.035156 160.058594 181.8125 159.859375 181.652344 159.613281 L 181.105469 159.835938 L 181.007812 159.65625 L 180.90625 159.472656 L 181.371094 159.105469 C 181.25 158.84375 181.167969 158.539062 181.148438 158.234375 L 180.5625 158.15625 L 180.5625 157.707031 L 181.148438 157.628906 C 181.1875 157.324219 181.269531 157.039062 181.371094 156.753906 L 180.90625 156.390625 L 181.007812 156.207031 L 181.105469 156.023438 L 181.652344 156.25 C 181.832031 156.003906 182.035156 155.78125 182.277344 155.621094 L 182.054688 155.074219 L 182.238281 154.972656 L 182.417969 154.871094 L 182.78125 155.335938 C 183.046875 155.214844 183.347656 155.132812 183.652344 155.113281 L 183.730469 154.523438 L 184.175781 154.523438 Z M 184.257812 155.113281 " fill-opacity="1" fill-rule="evenodd"/><path fill="#1a1a1a" d="M 198.066406 168.355469 C 198.992188 168.230469 199.839844 168.878906 199.960938 169.8125 C 200.082031 170.746094 199.4375 171.597656 198.507812 171.71875 C 197.582031 171.839844 196.734375 171.191406 196.613281 170.257812 C 196.492188 169.328125 197.136719 168.476562 198.066406 168.355469 Z M 199.5 167.644531 L 200.75 165.980469 C 199.984375 165.515625 199.074219 165.25 198.125 165.273438 L 198.40625 167.339844 C 198.8125 167.378906 199.175781 167.480469 199.5 167.644531 Z M 200.832031 169.207031 L 202.890625 168.921875 C 202.667969 167.988281 202.183594 167.175781 201.539062 166.570312 L 200.285156 168.230469 C 200.507812 168.515625 200.710938 168.839844 200.832031 169.207031 Z M 200.667969 171.253906 L 202.324219 172.511719 C 202.789062 171.738281 203.050781 170.828125 203.03125 169.875 L 200.972656 170.15625 C 200.929688 170.5625 200.832031 170.929688 200.667969 171.253906 Z M 199.113281 172.589844 L 199.398438 174.660156 C 200.324219 174.4375 201.132812 173.949219 201.738281 173.300781 L 200.082031 172.042969 C 199.800781 172.289062 199.476562 172.46875 199.113281 172.589844 Z M 197.074219 172.429688 L 195.824219 174.09375 C 196.589844 174.558594 197.5 174.820312 198.449219 174.800781 L 198.164062 172.734375 C 197.78125 172.691406 197.398438 172.589844 197.074219 172.429688 Z M 195.742188 170.867188 L 193.683594 171.152344 C 193.90625 172.085938 194.390625 172.894531 195.035156 173.503906 L 196.289062 171.839844 C 196.066406 171.578125 195.863281 171.234375 195.742188 170.867188 Z M 195.90625 168.820312 L 194.25 167.5625 C 193.785156 168.332031 193.523438 169.246094 193.542969 170.199219 L 195.601562 169.914062 C 195.640625 169.53125 195.742188 169.144531 195.90625 168.820312 Z M 194.855469 166.792969 L 196.511719 168.050781 C 196.792969 167.804688 197.117188 167.601562 197.480469 167.480469 L 197.195312 165.414062 C 196.269531 165.636719 195.460938 166.125 194.855469 166.792969 Z M 198.105469 163.304688 C 198.832031 163.285156 199.519531 163.386719 200.183594 163.566406 L 200.890625 162.351562 L 201.820312 162.757812 L 201.476562 164.117188 C 202.101562 164.460938 202.648438 164.886719 203.132812 165.394531 L 204.34375 164.703125 L 204.644531 165.109375 L 204.949219 165.515625 L 203.960938 166.527344 C 204.324219 167.117188 204.585938 167.765625 204.765625 168.476562 L 206.179688 168.476562 L 206.242188 168.980469 L 206.300781 169.488281 L 204.949219 169.875 C 204.96875 170.605469 204.867188 171.292969 204.6875 171.960938 L 205.898438 172.671875 L 205.695312 173.140625 L 205.492188 173.605469 L 204.140625 173.261719 C 203.796875 173.890625 203.375 174.4375 202.871094 174.921875 L 203.554688 176.140625 L 202.75 176.75 L 201.738281 175.753906 C 201.152344 176.121094 200.507812 176.382812 199.800781 176.566406 L 199.800781 177.984375 L 199.296875 178.046875 L 198.792969 178.105469 L 198.40625 176.75 C 197.679688 176.769531 196.996094 176.667969 196.328125 176.484375 L 195.621094 177.699219 L 195.15625 177.5 L 194.695312 177.296875 L 195.035156 175.9375 C 194.410156 175.59375 193.867188 175.167969 193.382812 174.660156 L 192.171875 175.347656 L 191.867188 174.945312 L 191.5625 174.539062 L 192.554688 173.523438 C 192.191406 172.9375 191.929688 172.289062 191.746094 171.578125 L 190.332031 171.578125 L 190.273438 171.070312 L 190.210938 170.5625 L 191.5625 170.179688 C 191.542969 169.449219 191.644531 168.757812 191.828125 168.089844 L 190.617188 167.378906 L 190.816406 166.914062 L 191.019531 166.449219 L 192.371094 166.792969 C 192.714844 166.164062 193.140625 165.617188 193.644531 165.128906 L 192.957031 163.914062 L 193.359375 163.609375 L 193.765625 163.304688 L 194.773438 164.296875 C 195.359375 163.933594 196.003906 163.667969 196.710938 163.488281 L 196.710938 162.066406 L 197.21875 162.007812 L 197.722656 161.945312 Z M 198.105469 163.304688 " fill-opacity="1" fill-rule="evenodd"/><path fill="#1a1a1a" d="M 178.746094 165.007812 C 179.269531 164.945312 179.753906 165.3125 179.816406 165.839844 C 179.875 166.367188 179.511719 166.851562 178.988281 166.914062 C 178.460938 166.976562 177.976562 166.609375 177.917969 166.082031 C 177.855469 165.554688 178.21875 165.070312 178.746094 165.007812 Z M 179.574219 164.601562 L 180.28125 163.667969 C 179.855469 163.40625 179.332031 163.265625 178.804688 163.285156 L 178.96875 164.441406 C 179.167969 164.460938 179.371094 164.5 179.574219 164.601562 Z M 180.320312 165.496094 L 181.46875 165.332031 C 181.347656 164.804688 181.066406 164.359375 180.703125 163.992188 L 179.996094 164.925781 C 180.136719 165.089844 180.238281 165.273438 180.320312 165.496094 Z M 180.21875 166.648438 L 181.148438 167.359375 C 181.410156 166.933594 181.550781 166.40625 181.53125 165.878906 L 180.378906 166.042969 C 180.378906 166.246094 180.320312 166.449219 180.21875 166.648438 Z M 179.351562 167.402344 L 179.511719 168.554688 C 180.039062 168.433594 180.480469 168.152344 180.84375 167.785156 L 179.917969 167.074219 C 179.734375 167.21875 179.550781 167.320312 179.351562 167.402344 Z M 178.199219 167.300781 L 177.492188 168.230469 C 177.917969 168.496094 178.441406 168.636719 178.96875 168.617188 L 178.804688 167.460938 C 178.582031 167.460938 178.382812 167.402344 178.199219 167.300781 Z M 177.453125 166.425781 L 176.300781 166.589844 C 176.421875 167.117188 176.707031 167.5625 177.070312 167.929688 L 177.777344 166.996094 C 177.613281 166.8125 177.515625 166.628906 177.453125 166.425781 Z M 177.535156 165.273438 L 176.605469 164.5625 C 176.34375 164.988281 176.203125 165.515625 176.222656 166.042969 L 177.371094 165.878906 C 177.394531 165.65625 177.433594 165.453125 177.535156 165.273438 Z M 176.929688 164.117188 L 177.855469 164.824219 C 178.019531 164.683594 178.199219 164.582031 178.402344 164.5 L 178.242188 163.34375 C 177.734375 163.46875 177.292969 163.75 176.929688 164.117188 Z M 178.765625 162.167969 C 179.167969 162.148438 179.574219 162.210938 179.9375 162.332031 L 180.339844 161.640625 L 180.863281 161.84375 L 180.664062 162.617188 C 181.007812 162.796875 181.328125 163.042969 181.589844 163.324219 L 182.277344 162.941406 L 182.460938 163.164062 L 182.640625 163.386719 L 182.097656 163.953125 C 182.296875 164.277344 182.460938 164.644531 182.539062 165.046875 L 183.328125 165.046875 L 183.367188 165.332031 L 183.410156 165.617188 L 182.640625 165.820312 C 182.660156 166.222656 182.601562 166.628906 182.480469 166.996094 L 183.167969 167.402344 L 183.066406 167.664062 L 182.964844 167.929688 L 182.199219 167.726562 C 182.015625 168.070312 181.773438 168.394531 181.492188 168.65625 L 181.875 169.347656 L 181.652344 169.53125 L 181.429688 169.710938 L 180.863281 169.164062 C 180.542969 169.367188 180.179688 169.53125 179.773438 169.609375 L 179.773438 170.402344 L 179.492188 170.441406 L 179.210938 170.484375 L 179.007812 169.710938 C 178.605469 169.730469 178.199219 169.671875 177.835938 169.550781 L 177.433594 170.238281 L 177.171875 170.136719 L 176.90625 170.035156 L 177.109375 169.265625 C 176.765625 169.082031 176.445312 168.839844 176.179688 168.554688 L 175.496094 168.941406 L 175.3125 168.71875 L 175.132812 168.496094 L 175.675781 167.929688 C 175.476562 167.601562 175.3125 167.238281 175.234375 166.832031 L 174.445312 166.832031 L 174.40625 166.550781 L 174.363281 166.265625 L 175.132812 166.0625 C 175.113281 165.65625 175.171875 165.25 175.292969 164.886719 L 174.605469 164.480469 L 174.707031 164.21875 L 174.808594 163.953125 L 175.574219 164.15625 C 175.757812 163.8125 176 163.488281 176.28125 163.222656 L 175.898438 162.535156 L 176.34375 162.167969 L 176.90625 162.714844 C 177.230469 162.515625 177.59375 162.351562 178 162.269531 L 178 161.480469 L 178.28125 161.4375 L 178.5625 161.398438 Z M 178.765625 162.167969 " fill-opacity="1" fill-rule="evenodd"/><path fill="#1a1a1a" d="M 186.476562 181.675781 C 186.78125 181.636719 187.0625 181.859375 187.101562 182.160156 C 187.144531 182.464844 186.921875 182.75 186.617188 182.789062 C 186.316406 182.832031 186.03125 182.609375 185.992188 182.304688 C 185.953125 182 186.175781 181.714844 186.476562 181.675781 Z M 186.960938 181.453125 L 187.386719 180.90625 C 187.125 180.742188 186.820312 180.660156 186.515625 180.660156 L 186.617188 181.351562 C 186.71875 181.351562 186.839844 181.390625 186.960938 181.453125 Z M 187.40625 181.960938 L 188.09375 181.859375 C 188.011719 181.554688 187.851562 181.269531 187.648438 181.066406 L 187.222656 181.613281 C 187.285156 181.734375 187.367188 181.835938 187.40625 181.960938 Z M 187.34375 182.648438 L 187.890625 183.074219 C 188.050781 182.8125 188.132812 182.507812 188.132812 182.203125 L 187.445312 182.304688 C 187.425781 182.40625 187.40625 182.527344 187.34375 182.648438 Z M 186.820312 183.09375 L 186.921875 183.785156 C 187.222656 183.703125 187.507812 183.539062 187.707031 183.339844 L 187.164062 182.914062 C 187.0625 182.992188 186.941406 183.054688 186.820312 183.09375 Z M 186.152344 183.035156 L 185.730469 183.582031 C 185.992188 183.742188 186.296875 183.824219 186.597656 183.824219 L 186.496094 183.136719 C 186.375 183.136719 186.253906 183.09375 186.152344 183.035156 Z M 185.710938 182.507812 L 185.023438 182.609375 C 185.105469 182.914062 185.265625 183.195312 185.46875 183.398438 L 185.890625 182.851562 C 185.8125 182.75 185.75 182.648438 185.710938 182.507812 Z M 185.75 181.835938 L 185.207031 181.410156 C 185.042969 181.675781 184.964844 181.980469 184.964844 182.285156 L 185.648438 182.183594 C 185.667969 182.0625 185.710938 181.9375 185.75 181.835938 Z M 185.40625 181.167969 L 185.953125 181.59375 C 186.054688 181.511719 186.152344 181.453125 186.273438 181.410156 L 186.175781 180.722656 C 185.871094 180.78125 185.609375 180.945312 185.40625 181.167969 Z M 186.496094 179.992188 C 186.738281 179.992188 186.960938 180.011719 187.183594 180.074219 L 187.425781 179.667969 L 187.585938 179.730469 L 187.75 179.789062 L 187.628906 180.234375 C 187.828125 180.355469 188.011719 180.5 188.171875 180.660156 L 188.578125 180.4375 L 188.675781 180.582031 L 188.777344 180.722656 L 188.457031 181.066406 C 188.578125 181.269531 188.65625 181.472656 188.71875 181.714844 L 189.183594 181.714844 L 189.203125 181.878906 L 189.222656 182.039062 L 188.777344 182.160156 C 188.777344 182.40625 188.757812 182.628906 188.699219 182.851562 L 189.101562 183.09375 L 189.039062 183.257812 L 188.980469 183.417969 L 188.535156 183.296875 C 188.414062 183.5 188.273438 183.683594 188.113281 183.84375 L 188.335938 184.25 L 188.191406 184.351562 L 188.050781 184.453125 L 187.707031 184.128906 C 187.507812 184.25 187.304688 184.332031 187.0625 184.390625 L 187.0625 184.859375 L 186.902344 184.878906 L 186.738281 184.898438 L 186.617188 184.453125 C 186.375 184.453125 186.152344 184.433594 185.933594 184.371094 L 185.691406 184.777344 L 185.527344 184.71875 L 185.367188 184.65625 L 185.488281 184.210938 C 185.285156 184.089844 185.105469 183.945312 184.941406 183.785156 L 184.539062 184.007812 L 184.4375 183.863281 L 184.335938 183.722656 L 184.660156 183.378906 C 184.539062 183.175781 184.457031 182.972656 184.398438 182.730469 L 183.933594 182.730469 L 183.914062 182.566406 L 183.894531 182.40625 L 184.335938 182.285156 C 184.335938 182.039062 184.355469 181.816406 184.417969 181.59375 L 184.015625 181.351562 L 184.074219 181.1875 L 184.136719 181.027344 L 184.578125 181.148438 C 184.699219 180.945312 184.84375 180.761719 185.003906 180.601562 L 184.78125 180.195312 L 185.0625 179.992188 L 185.40625 180.316406 C 185.609375 180.195312 185.8125 180.113281 186.054688 180.054688 L 186.054688 179.585938 L 186.375 179.546875 Z M 186.496094 179.992188 " fill-opacity="1" fill-rule="evenodd"/><path fill="#1a1a1a" d="M 187.144531 170.785156 C 187.445312 170.746094 187.730469 170.96875 187.769531 171.273438 C 187.808594 171.578125 187.585938 171.863281 187.285156 171.902344 C 186.980469 171.941406 186.699219 171.71875 186.660156 171.414062 C 186.617188 171.109375 186.839844 170.828125 187.144531 170.785156 Z M 187.628906 170.5625 L 188.050781 170.015625 C 187.789062 169.855469 187.488281 169.773438 187.183594 169.773438 L 187.285156 170.460938 C 187.40625 170.460938 187.527344 170.503906 187.628906 170.5625 Z M 188.070312 171.070312 L 188.757812 170.96875 C 188.675781 170.664062 188.515625 170.382812 188.3125 170.179688 L 187.890625 170.726562 C 187.972656 170.847656 188.03125 170.949219 188.070312 171.070312 Z M 188.011719 171.761719 L 188.554688 172.1875 C 188.71875 171.921875 188.796875 171.617188 188.796875 171.3125 L 188.113281 171.414062 C 188.113281 171.515625 188.070312 171.636719 188.011719 171.761719 Z M 187.507812 172.207031 L 187.609375 172.894531 C 187.910156 172.8125 188.191406 172.652344 188.394531 172.449219 L 187.851562 172.023438 C 187.730469 172.105469 187.628906 172.164062 187.507812 172.207031 Z M 186.820312 172.144531 L 186.394531 172.691406 C 186.660156 172.855469 186.960938 172.9375 187.265625 172.9375 L 187.164062 172.246094 C 187.0625 172.226562 186.941406 172.207031 186.820312 172.144531 Z M 186.375 171.617188 L 185.691406 171.71875 C 185.769531 172.023438 185.933594 172.308594 186.132812 172.511719 L 186.558594 171.960938 C 186.476562 171.863281 186.417969 171.738281 186.375 171.617188 Z M 186.4375 170.949219 L 185.890625 170.523438 C 185.730469 170.785156 185.648438 171.089844 185.648438 171.394531 L 186.335938 171.292969 C 186.335938 171.171875 186.375 171.050781 186.4375 170.949219 Z M 186.074219 170.257812 L 186.617188 170.683594 C 186.71875 170.605469 186.820312 170.542969 186.941406 170.503906 L 186.839844 169.8125 C 186.558594 169.894531 186.296875 170.058594 186.074219 170.257812 Z M 187.164062 169.105469 C 187.40625 169.105469 187.628906 169.125 187.851562 169.183594 L 188.09375 168.78125 L 188.253906 168.839844 L 188.414062 168.902344 L 188.292969 169.347656 C 188.496094 169.46875 188.675781 169.609375 188.839844 169.773438 L 189.242188 169.550781 L 189.445312 169.832031 L 189.121094 170.179688 C 189.242188 170.382812 189.324219 170.585938 189.382812 170.828125 L 189.847656 170.828125 L 189.867188 170.988281 L 189.890625 171.152344 L 189.445312 171.273438 C 189.445312 171.515625 189.425781 171.738281 189.363281 171.960938 L 189.769531 172.207031 L 189.707031 172.367188 L 189.648438 172.53125 L 189.203125 172.410156 C 189.082031 172.613281 188.941406 172.792969 188.777344 172.957031 L 189 173.363281 L 188.71875 173.566406 L 188.375 173.242188 C 188.171875 173.363281 187.972656 173.441406 187.730469 173.503906 L 187.730469 173.96875 L 187.566406 173.992188 L 187.40625 174.011719 L 187.285156 173.566406 C 187.042969 173.566406 186.820312 173.542969 186.597656 173.484375 L 186.355469 173.890625 L 186.195312 173.828125 L 186.03125 173.765625 L 186.152344 173.320312 C 185.953125 173.199219 185.769531 173.058594 185.609375 172.894531 L 185.207031 173.117188 L 185.003906 172.835938 L 185.328125 172.488281 C 185.207031 172.289062 185.125 172.085938 185.0625 171.839844 L 184.601562 171.839844 L 184.578125 171.679688 L 184.558594 171.515625 L 185.003906 171.394531 C 185.003906 171.152344 185.023438 170.929688 185.085938 170.707031 L 184.679688 170.460938 L 184.742188 170.300781 L 184.800781 170.136719 L 185.246094 170.257812 C 185.367188 170.058594 185.507812 169.875 185.667969 169.710938 L 185.449219 169.304688 L 185.589844 169.207031 L 185.730469 169.105469 L 186.074219 169.429688 C 186.273438 169.304688 186.476562 169.226562 186.71875 169.164062 L 186.71875 168.699219 L 186.882812 168.679688 L 187.042969 168.65625 Z M 187.164062 169.105469 " fill-opacity="1" fill-rule="evenodd"/><path fill="#1a1a1a" d="M 208.722656 174.191406 C 209.027344 174.152344 209.308594 174.375 209.351562 174.679688 C 209.390625 174.984375 209.167969 175.269531 208.867188 175.308594 C 208.5625 175.347656 208.28125 175.125 208.238281 174.820312 C 208.199219 174.539062 208.421875 174.253906 208.722656 174.191406 Z M 209.207031 173.96875 L 209.632812 173.421875 C 209.371094 173.261719 209.066406 173.179688 208.765625 173.179688 L 208.867188 173.867188 C 208.964844 173.867188 209.085938 173.910156 209.207031 173.96875 Z M 209.632812 174.496094 L 210.320312 174.394531 C 210.238281 174.09375 210.078125 173.808594 209.875 173.605469 L 209.449219 174.152344 C 209.53125 174.253906 209.59375 174.375 209.632812 174.496094 Z M 209.59375 175.167969 L 210.136719 175.59375 C 210.296875 175.328125 210.378906 175.023438 210.378906 174.71875 L 209.691406 174.820312 C 209.671875 174.945312 209.652344 175.066406 209.59375 175.167969 Z M 209.066406 175.613281 L 209.167969 176.300781 C 209.472656 176.222656 209.753906 176.058594 209.957031 175.855469 L 209.410156 175.429688 C 209.308594 175.511719 209.1875 175.570312 209.066406 175.613281 Z M 208.382812 175.550781 L 207.957031 176.097656 C 208.21875 176.261719 208.523438 176.34375 208.824219 176.34375 L 208.722656 175.652344 C 208.625 175.652344 208.503906 175.613281 208.382812 175.550781 Z M 207.957031 175.042969 L 207.269531 175.144531 C 207.351562 175.449219 207.511719 175.734375 207.714844 175.9375 L 208.136719 175.390625 C 208.058594 175.269531 207.996094 175.167969 207.957031 175.042969 Z M 207.996094 174.355469 L 207.453125 173.929688 C 207.289062 174.191406 207.210938 174.496094 207.210938 174.800781 L 207.894531 174.699219 C 207.917969 174.597656 207.9375 174.476562 207.996094 174.355469 Z M 207.652344 173.6875 L 208.199219 174.113281 C 208.300781 174.03125 208.402344 173.96875 208.523438 173.929688 L 208.421875 173.242188 C 208.117188 173.300781 207.855469 173.464844 207.652344 173.6875 Z M 208.722656 172.53125 C 208.964844 172.53125 209.1875 172.550781 209.410156 172.613281 L 209.652344 172.207031 L 209.8125 172.265625 L 209.976562 172.328125 L 209.855469 172.773438 C 210.054688 172.894531 210.238281 173.039062 210.398438 173.199219 L 210.804688 172.976562 L 210.90625 173.117188 L 211.003906 173.261719 L 210.683594 173.605469 C 210.804688 173.808594 210.882812 174.011719 210.945312 174.253906 L 211.410156 174.253906 L 211.429688 174.417969 L 211.449219 174.578125 L 211.003906 174.699219 C 211.003906 174.945312 210.984375 175.167969 210.925781 175.390625 L 211.328125 175.632812 L 211.269531 175.796875 L 211.207031 175.957031 L 210.761719 175.835938 C 210.640625 176.039062 210.5 176.222656 210.339844 176.382812 L 210.5625 176.789062 L 210.417969 176.890625 L 210.277344 176.992188 L 209.933594 176.667969 C 209.734375 176.789062 209.53125 176.871094 209.289062 176.929688 L 209.289062 177.398438 L 209.128906 177.417969 L 208.964844 177.4375 L 208.84375 176.992188 C 208.601562 176.992188 208.382812 176.972656 208.160156 176.910156 L 207.917969 177.316406 L 207.753906 177.253906 L 207.59375 177.195312 L 207.714844 176.75 C 207.511719 176.625 207.332031 176.484375 207.167969 176.324219 L 206.765625 176.546875 L 206.664062 176.402344 L 206.5625 176.261719 L 206.886719 175.917969 C 206.765625 175.714844 206.683594 175.511719 206.625 175.269531 L 206.160156 175.269531 L 206.140625 175.105469 L 206.121094 174.945312 L 206.5625 174.820312 C 206.5625 174.578125 206.585938 174.355469 206.644531 174.132812 L 206.242188 173.890625 L 206.300781 173.726562 L 206.363281 173.566406 L 206.804688 173.6875 C 206.925781 173.484375 207.070312 173.300781 207.230469 173.140625 L 207.007812 172.734375 L 207.289062 172.53125 L 207.632812 172.855469 C 207.835938 172.734375 208.039062 172.652344 208.28125 172.589844 L 208.28125 172.125 L 208.601562 172.085938 Z M 208.722656 172.53125 " fill-opacity="1" fill-rule="evenodd"/><path fill="#1a1a1a" d="M 191.28125 153.46875 C 191.585938 153.429688 191.867188 153.652344 191.90625 153.957031 C 191.949219 154.261719 191.726562 154.546875 191.421875 154.585938 C 191.121094 154.625 190.835938 154.402344 190.796875 154.097656 C 190.757812 153.796875 190.957031 153.511719 191.28125 153.46875 Z M 191.765625 153.246094 L 192.191406 152.699219 C 191.929688 152.539062 191.625 152.457031 191.320312 152.457031 L 191.421875 153.144531 C 191.523438 153.144531 191.644531 153.1875 191.765625 153.246094 Z M 192.191406 153.753906 L 192.875 153.652344 C 192.796875 153.347656 192.632812 153.066406 192.433594 152.863281 L 192.007812 153.410156 C 192.089844 153.53125 192.148438 153.632812 192.191406 153.753906 Z M 192.148438 154.445312 L 192.695312 154.871094 C 192.855469 154.605469 192.9375 154.300781 192.9375 153.996094 L 192.25 154.097656 C 192.230469 154.199219 192.210938 154.320312 192.148438 154.445312 Z M 191.625 154.890625 L 191.726562 155.578125 C 192.027344 155.5 192.3125 155.335938 192.511719 155.132812 L 191.96875 154.707031 C 191.867188 154.789062 191.746094 154.847656 191.625 154.890625 Z M 190.9375 154.828125 L 190.515625 155.375 C 190.777344 155.539062 191.078125 155.621094 191.382812 155.621094 L 191.28125 154.929688 C 191.179688 154.929688 191.058594 154.890625 190.9375 154.828125 Z M 190.515625 154.300781 L 189.828125 154.402344 C 189.910156 154.707031 190.070312 154.992188 190.273438 155.195312 L 190.695312 154.648438 C 190.617188 154.546875 190.554688 154.445312 190.515625 154.300781 Z M 190.554688 153.632812 L 190.011719 153.207031 C 189.847656 153.46875 189.769531 153.773438 189.769531 154.078125 L 190.453125 153.976562 C 190.472656 153.855469 190.496094 153.734375 190.554688 153.632812 Z M 190.210938 152.964844 L 190.757812 153.390625 C 190.859375 153.308594 190.957031 153.246094 191.078125 153.207031 L 190.980469 152.515625 C 190.675781 152.578125 190.414062 152.742188 190.210938 152.964844 Z M 191.28125 151.789062 C 191.523438 151.789062 191.746094 151.808594 191.96875 151.867188 L 192.210938 151.464844 L 192.371094 151.523438 L 192.535156 151.585938 L 192.414062 152.03125 C 192.613281 152.152344 192.796875 152.292969 192.957031 152.457031 L 193.359375 152.234375 L 193.5625 152.515625 L 193.238281 152.863281 C 193.359375 153.066406 193.441406 153.269531 193.503906 153.511719 L 193.96875 153.511719 L 193.988281 153.671875 L 194.007812 153.835938 L 193.5625 153.957031 C 193.5625 154.199219 193.542969 154.421875 193.480469 154.648438 L 193.886719 154.890625 L 193.824219 155.050781 L 193.765625 155.214844 L 193.320312 155.09375 C 193.199219 155.296875 193.058594 155.476562 192.898438 155.640625 L 193.117188 156.046875 L 192.835938 156.25 L 192.492188 155.925781 C 192.292969 156.046875 192.089844 156.125 191.847656 156.1875 L 191.847656 156.652344 L 191.6875 156.675781 L 191.523438 156.695312 L 191.402344 156.25 C 191.160156 156.25 190.9375 156.226562 190.714844 156.167969 L 190.472656 156.574219 L 190.3125 156.511719 L 190.152344 156.453125 L 190.273438 156.003906 C 190.070312 155.882812 189.890625 155.742188 189.726562 155.578125 L 189.324219 155.800781 L 189.121094 155.519531 L 189.445312 155.171875 C 189.324219 154.972656 189.242188 154.769531 189.183594 154.523438 L 188.71875 154.523438 L 188.699219 154.363281 L 188.675781 154.199219 L 189.121094 154.078125 C 189.121094 153.835938 189.140625 153.613281 189.203125 153.390625 L 188.796875 153.144531 L 188.859375 152.984375 L 188.917969 152.820312 L 189.363281 152.941406 C 189.484375 152.742188 189.625 152.558594 189.789062 152.394531 L 189.566406 151.992188 L 189.847656 151.789062 L 190.191406 152.113281 C 190.394531 151.992188 190.59375 151.910156 190.835938 151.847656 L 190.835938 151.382812 L 191 151.363281 L 191.160156 151.339844 Z M 191.28125 151.789062 " fill-opacity="1" fill-rule="evenodd"/><path fill="#1a1a1a" d="M 172.929688 150.792969 C 173.515625 150.792969 174 151.28125 174 151.867188 C 174 152.457031 173.515625 152.941406 172.929688 152.941406 C 172.34375 152.941406 171.859375 152.457031 171.859375 151.867188 C 171.859375 151.28125 172.34375 150.792969 172.929688 150.792969 Z M 172.929688 151.484375 C 173.152344 151.484375 173.316406 151.664062 173.316406 151.867188 C 173.316406 152.089844 173.132812 152.253906 172.929688 152.253906 C 172.710938 152.253906 172.546875 152.070312 172.546875 151.867188 C 172.546875 151.664062 172.730469 151.484375 172.929688 151.484375 Z M 172.929688 150.976562 C 173.414062 150.976562 173.820312 151.382812 173.820312 151.867188 C 173.820312 152.355469 173.414062 152.761719 172.929688 152.761719 C 172.445312 152.761719 172.042969 152.355469 172.042969 151.867188 C 172.042969 151.382812 172.445312 150.976562 172.929688 150.976562 Z M 173.09375 150.367188 C 173.253906 150.386719 173.414062 150.429688 173.558594 150.488281 L 173.757812 150.246094 L 173.859375 150.308594 L 173.960938 150.367188 L 173.839844 150.671875 C 173.960938 150.773438 174.082031 150.875 174.183594 151.015625 L 174.484375 150.894531 L 174.546875 150.996094 L 174.605469 151.097656 L 174.363281 151.300781 C 174.425781 151.441406 174.464844 151.605469 174.484375 151.765625 L 174.808594 151.808594 L 174.808594 152.050781 L 174.484375 152.089844 C 174.464844 152.253906 174.425781 152.417969 174.363281 152.558594 L 174.605469 152.761719 L 174.546875 152.863281 L 174.484375 152.964844 L 174.183594 152.84375 C 174.082031 152.964844 173.980469 153.085938 173.839844 153.1875 L 173.960938 153.492188 L 173.859375 153.550781 L 173.757812 153.613281 L 173.558594 153.367188 C 173.414062 153.429688 173.253906 153.46875 173.09375 153.492188 L 173.050781 153.816406 L 172.808594 153.816406 L 172.769531 153.492188 C 172.609375 153.46875 172.445312 153.429688 172.304688 153.367188 L 172.101562 153.613281 L 172.003906 153.550781 L 171.902344 153.492188 L 172.023438 153.1875 C 171.902344 153.085938 171.78125 152.984375 171.679688 152.84375 L 171.375 152.964844 L 171.316406 152.863281 L 171.253906 152.761719 L 171.496094 152.558594 C 171.4375 152.417969 171.398438 152.253906 171.375 152.089844 L 171.054688 152.050781 L 171.054688 151.808594 L 171.375 151.765625 C 171.398438 151.605469 171.4375 151.441406 171.496094 151.300781 L 171.253906 151.097656 L 171.316406 150.996094 L 171.375 150.894531 L 171.679688 151.015625 C 171.78125 150.894531 171.882812 150.773438 172.023438 150.671875 L 171.902344 150.367188 L 172.003906 150.308594 L 172.101562 150.246094 L 172.304688 150.488281 C 172.445312 150.429688 172.609375 150.386719 172.769531 150.367188 L 172.808594 150.042969 L 173.050781 150.042969 Z M 173.09375 150.367188 " fill-opacity="1" fill-rule="evenodd"/><path fill="#1a1a1a" d="M 164.835938 137.796875 C 165.402344 137.714844 165.925781 138.121094 166.007812 138.6875 C 166.085938 139.257812 165.683594 139.785156 165.117188 139.863281 C 164.554688 139.945312 164.027344 139.539062 163.949219 138.972656 C 163.867188 138.40625 164.269531 137.878906 164.835938 137.796875 Z M 165.722656 137.371094 L 166.492188 136.355469 C 166.027344 136.074219 165.460938 135.910156 164.875 135.929688 L 165.039062 137.207031 C 165.300781 137.207031 165.523438 137.269531 165.722656 137.371094 Z M 166.53125 138.324219 L 167.804688 138.160156 C 167.660156 137.59375 167.378906 137.085938 166.976562 136.722656 L 166.207031 137.734375 C 166.351562 137.898438 166.472656 138.101562 166.53125 138.324219 Z M 166.429688 139.582031 L 167.441406 140.351562 C 167.722656 139.886719 167.882812 139.316406 167.863281 138.730469 L 166.59375 138.890625 C 166.613281 139.15625 166.550781 139.378906 166.429688 139.582031 Z M 165.480469 140.414062 L 165.644531 141.691406 C 166.207031 141.546875 166.714844 141.265625 167.078125 140.859375 L 166.066406 140.089844 C 165.90625 140.210938 165.703125 140.332031 165.480469 140.414062 Z M 164.230469 140.3125 L 163.464844 141.324219 C 163.925781 141.609375 164.492188 141.769531 165.078125 141.75 L 164.917969 140.472656 C 164.652344 140.472656 164.433594 140.414062 164.230469 140.3125 Z M 163.421875 139.335938 L 162.152344 139.5 C 162.292969 140.066406 162.574219 140.574219 162.976562 140.941406 L 163.746094 139.925781 C 163.605469 139.785156 163.484375 139.582031 163.421875 139.335938 Z M 163.523438 138.082031 L 162.515625 137.308594 C 162.230469 137.777344 162.070312 138.34375 162.089844 138.933594 L 163.363281 138.769531 C 163.34375 138.527344 163.402344 138.285156 163.523438 138.082031 Z M 162.855469 136.84375 L 163.867188 137.613281 C 164.027344 137.453125 164.230469 137.332031 164.472656 137.269531 L 164.3125 135.992188 C 163.726562 136.132812 163.242188 136.4375 162.855469 136.84375 Z M 164.855469 134.695312 C 165.300781 134.675781 165.722656 134.734375 166.128906 134.855469 L 166.570312 134.105469 L 166.855469 134.226562 L 167.136719 134.351562 L 166.914062 135.179688 C 167.296875 135.382812 167.640625 135.648438 167.945312 135.972656 L 168.691406 135.546875 L 168.875 135.789062 L 169.054688 136.03125 L 168.449219 136.640625 C 168.671875 137.007812 168.832031 137.410156 168.933594 137.835938 L 169.800781 137.835938 L 169.84375 138.140625 L 169.882812 138.445312 L 169.054688 138.667969 C 169.074219 139.113281 169.015625 139.539062 168.894531 139.945312 L 169.640625 140.390625 L 169.398438 140.960938 L 168.570312 140.738281 C 168.367188 141.121094 168.105469 141.464844 167.78125 141.769531 L 168.207031 142.519531 L 167.722656 142.886719 L 167.117188 142.277344 C 166.753906 142.5 166.351562 142.664062 165.925781 142.765625 L 165.925781 143.636719 L 165.625 143.675781 L 165.320312 143.71875 L 165.097656 142.886719 C 164.652344 142.90625 164.230469 142.84375 163.828125 142.722656 L 163.382812 143.472656 L 163.097656 143.351562 L 162.816406 143.230469 L 163.039062 142.398438 C 162.65625 142.195312 162.3125 141.933594 162.007812 141.609375 L 161.261719 142.035156 L 161.082031 141.792969 L 160.898438 141.546875 L 161.503906 140.941406 C 161.28125 140.574219 161.121094 140.167969 161.019531 139.742188 L 160.152344 139.742188 L 160.113281 139.4375 L 160.03125 139.175781 L 160.859375 138.953125 C 160.839844 138.507812 160.898438 138.082031 161.019531 137.675781 L 160.273438 137.230469 L 160.515625 136.660156 L 161.34375 136.882812 C 161.546875 136.5 161.808594 136.152344 162.128906 135.851562 L 161.707031 135.101562 L 161.949219 134.917969 L 162.210938 134.714844 L 162.816406 135.324219 C 163.179688 135.101562 163.585938 134.9375 164.007812 134.835938 L 164.007812 133.964844 L 164.3125 133.921875 L 164.613281 133.882812 Z M 164.855469 134.695312 " fill-opacity="1" fill-rule="evenodd"/><path fill="#1a1a1a" d="M 149.128906 164.886719 C 149.835938 164.886719 150.402344 165.453125 150.402344 166.164062 C 150.402344 166.875 149.835938 167.441406 149.128906 167.441406 C 148.421875 167.441406 147.859375 166.875 147.859375 166.164062 C 147.859375 165.453125 148.441406 164.886719 149.128906 164.886719 Z M 149.128906 165.699219 C 149.390625 165.699219 149.59375 165.898438 149.59375 166.164062 C 149.59375 166.425781 149.390625 166.628906 149.128906 166.628906 C 148.867188 166.628906 148.664062 166.425781 148.664062 166.164062 C 148.683594 165.898438 148.886719 165.699219 149.128906 165.699219 Z M 149.128906 165.089844 C 149.714844 165.089844 150.199219 165.574219 150.199219 166.164062 C 150.199219 166.75 149.714844 167.238281 149.128906 167.238281 C 148.542969 167.238281 148.078125 166.75 148.078125 166.164062 C 148.078125 165.574219 148.542969 165.089844 149.128906 165.089844 Z M 149.332031 164.359375 C 149.535156 164.378906 149.714844 164.417969 149.875 164.5 L 150.117188 164.195312 L 150.359375 164.320312 L 150.21875 164.664062 C 150.382812 164.785156 150.503906 164.90625 150.625 165.070312 L 150.964844 164.925781 L 151.027344 165.046875 L 151.085938 165.171875 L 150.785156 165.414062 C 150.867188 165.574219 150.90625 165.777344 150.925781 165.960938 L 151.308594 166.023438 L 151.308594 166.304688 L 150.925781 166.367188 C 150.90625 166.570312 150.867188 166.75 150.785156 166.914062 L 151.085938 167.15625 L 151.027344 167.277344 L 150.964844 167.402344 L 150.625 167.257812 C 150.503906 167.421875 150.382812 167.542969 150.21875 167.664062 L 150.359375 168.007812 L 150.238281 168.070312 L 150.117188 168.128906 L 149.875 167.828125 C 149.714844 167.90625 149.511719 167.949219 149.332031 167.96875 L 149.269531 168.355469 L 148.988281 168.355469 L 148.929688 167.96875 C 148.726562 167.949219 148.542969 167.90625 148.382812 167.828125 L 148.140625 168.128906 L 148.019531 168.070312 L 147.898438 168.007812 L 148.039062 167.664062 C 147.878906 167.542969 147.757812 167.421875 147.636719 167.257812 L 147.292969 167.402344 L 147.230469 167.277344 L 147.171875 167.15625 L 147.472656 166.914062 C 147.394531 166.75 147.351562 166.550781 147.332031 166.367188 L 146.949219 166.304688 L 146.949219 166.023438 L 147.332031 165.960938 C 147.351562 165.757812 147.394531 165.574219 147.472656 165.414062 L 147.171875 165.171875 L 147.230469 165.046875 L 147.292969 164.925781 L 147.636719 165.070312 C 147.757812 164.90625 147.878906 164.785156 148.039062 164.664062 L 147.898438 164.320312 L 148.140625 164.195312 L 148.382812 164.5 C 148.542969 164.417969 148.746094 164.378906 148.929688 164.359375 L 148.988281 163.972656 L 149.269531 163.972656 Z M 149.332031 164.359375 " fill-opacity="1" fill-rule="evenodd"/><path fill="#1a1a1a" d="M 164.371094 162.3125 C 165.078125 162.3125 165.644531 162.878906 165.644531 163.589844 C 165.644531 164.296875 165.078125 164.867188 164.371094 164.867188 C 163.664062 164.867188 163.097656 164.296875 163.097656 163.589844 C 163.097656 162.878906 163.664062 162.3125 164.371094 162.3125 Z M 164.371094 163.140625 C 164.632812 163.140625 164.835938 163.34375 164.835938 163.609375 C 164.835938 163.871094 164.632812 164.074219 164.371094 164.074219 C 164.109375 164.074219 163.90625 163.871094 163.90625 163.609375 C 163.925781 163.34375 164.128906 163.140625 164.371094 163.140625 Z M 164.371094 162.515625 C 164.957031 162.515625 165.441406 163 165.441406 163.589844 C 165.441406 164.175781 164.957031 164.664062 164.371094 164.664062 C 163.785156 164.664062 163.300781 164.175781 163.300781 163.589844 C 163.320312 163 163.785156 162.515625 164.371094 162.515625 Z M 164.574219 161.785156 C 164.773438 161.804688 164.957031 161.84375 165.117188 161.925781 L 165.359375 161.621094 L 165.480469 161.683594 L 165.601562 161.742188 L 165.460938 162.089844 C 165.625 162.210938 165.746094 162.332031 165.867188 162.492188 L 166.207031 162.351562 L 166.269531 162.472656 L 166.328125 162.59375 L 166.027344 162.839844 C 166.109375 163 166.148438 163.203125 166.167969 163.386719 L 166.550781 163.445312 L 166.550781 163.730469 L 166.167969 163.792969 C 166.148438 163.992188 166.109375 164.175781 166.027344 164.339844 L 166.328125 164.582031 L 166.269531 164.703125 L 166.207031 164.824219 L 165.867188 164.683594 C 165.746094 164.847656 165.625 164.96875 165.460938 165.089844 L 165.601562 165.433594 L 165.480469 165.496094 L 165.359375 165.554688 L 165.117188 165.25 C 164.957031 165.332031 164.773438 165.371094 164.574219 165.394531 L 164.511719 165.777344 L 164.230469 165.777344 L 164.167969 165.394531 C 163.96875 165.371094 163.785156 165.332031 163.625 165.25 L 163.382812 165.554688 L 163.261719 165.496094 L 163.140625 165.433594 L 163.28125 165.089844 C 163.121094 164.96875 163 164.847656 162.878906 164.683594 L 162.535156 164.824219 L 162.472656 164.703125 L 162.414062 164.582031 L 162.714844 164.339844 C 162.636719 164.175781 162.59375 163.992188 162.574219 163.792969 L 162.191406 163.730469 L 162.191406 163.445312 L 162.574219 163.386719 C 162.59375 163.183594 162.636719 163 162.714844 162.839844 L 162.414062 162.59375 L 162.472656 162.472656 L 162.535156 162.351562 L 162.878906 162.492188 C 163 162.332031 163.121094 162.210938 163.28125 162.089844 L 163.140625 161.742188 L 163.261719 161.683594 L 163.382812 161.621094 L 163.625 161.925781 C 163.785156 161.84375 163.988281 161.804688 164.167969 161.785156 L 164.230469 161.398438 L 164.511719 161.398438 Z M 164.574219 161.785156 " fill-opacity="1" fill-rule="evenodd"/><path fill="#1a1a1a" d="M 182.074219 170.585938 C 182.78125 170.585938 183.347656 171.152344 183.347656 171.863281 C 183.347656 172.570312 182.78125 173.140625 182.074219 173.140625 C 181.371094 173.140625 180.804688 172.570312 180.804688 171.863281 C 180.804688 171.171875 181.371094 170.585938 182.074219 170.585938 Z M 182.074219 171.414062 C 182.339844 171.414062 182.539062 171.617188 182.539062 171.882812 C 182.539062 172.144531 182.339844 172.347656 182.074219 172.347656 C 181.8125 172.347656 181.613281 172.144531 181.613281 171.882812 C 181.613281 171.617188 181.8125 171.414062 182.074219 171.414062 Z M 182.074219 170.808594 C 182.660156 170.808594 183.144531 171.292969 183.144531 171.882812 C 183.144531 172.46875 182.660156 172.957031 182.074219 172.957031 C 181.492188 172.957031 181.007812 172.46875 181.007812 171.882812 C 181.007812 171.273438 181.492188 170.808594 182.074219 170.808594 Z M 182.257812 170.058594 C 182.460938 170.078125 182.640625 170.117188 182.804688 170.199219 L 183.046875 169.894531 L 183.167969 169.957031 L 183.289062 170.015625 L 183.144531 170.359375 C 183.308594 170.484375 183.429688 170.605469 183.550781 170.765625 L 183.894531 170.625 L 183.953125 170.746094 L 184.015625 170.867188 L 183.710938 171.109375 C 183.792969 171.273438 183.832031 171.476562 183.851562 171.660156 L 184.234375 171.71875 L 184.234375 172.003906 L 183.851562 172.0625 C 183.832031 172.265625 183.792969 172.449219 183.710938 172.613281 L 184.015625 172.855469 L 183.953125 172.976562 L 183.894531 173.097656 L 183.550781 172.957031 C 183.429688 173.117188 183.308594 173.242188 183.144531 173.363281 L 183.289062 173.707031 L 183.167969 173.765625 L 183.046875 173.828125 L 182.804688 173.523438 C 182.640625 173.605469 182.441406 173.644531 182.257812 173.667969 L 182.199219 174.050781 L 181.914062 174.050781 L 181.855469 173.667969 C 181.652344 173.644531 181.46875 173.605469 181.308594 173.523438 L 181.066406 173.828125 L 180.945312 173.765625 L 180.824219 173.707031 L 180.964844 173.363281 C 180.804688 173.242188 180.683594 173.117188 180.5625 172.957031 L 180.21875 173.097656 L 180.160156 172.976562 L 180.097656 172.855469 L 180.402344 172.613281 C 180.320312 172.449219 180.28125 172.246094 180.257812 172.0625 L 179.875 172.003906 L 179.875 171.71875 L 180.257812 171.660156 C 180.28125 171.457031 180.320312 171.273438 180.402344 171.109375 L 180.097656 170.867188 L 180.160156 170.746094 L 180.21875 170.625 L 180.5625 170.765625 C 180.683594 170.605469 180.804688 170.484375 180.964844 170.359375 L 180.824219 170.015625 L 180.945312 169.957031 L 181.066406 169.894531 L 181.308594 170.199219 C 181.46875 170.117188 181.652344 170.078125 181.855469 170.058594 L 181.914062 169.671875 L 182.199219 169.671875 Z M 182.257812 170.058594 " fill-opacity="1" fill-rule="evenodd"/><path fill="#1a1a1a" d="M 164.351562 185.832031 C 164.917969 185.832031 165.359375 186.277344 165.359375 186.847656 C 165.359375 187.414062 164.917969 187.859375 164.351562 187.859375 C 163.785156 187.859375 163.34375 187.414062 163.34375 186.847656 C 163.34375 186.277344 163.804688 185.832031 164.351562 185.832031 Z M 164.351562 186.480469 C 164.554688 186.480469 164.714844 186.644531 164.714844 186.847656 C 164.714844 187.046875 164.554688 187.210938 164.351562 187.210938 C 164.148438 187.210938 163.988281 187.046875 163.988281 186.847656 C 163.988281 186.644531 164.167969 186.480469 164.351562 186.480469 Z M 164.351562 185.996094 C 164.816406 185.996094 165.199219 186.378906 165.199219 186.847656 C 165.199219 187.3125 164.816406 187.699219 164.351562 187.699219 C 163.886719 187.699219 163.503906 187.3125 163.503906 186.847656 C 163.523438 186.378906 163.886719 185.996094 164.351562 185.996094 Z M 164.511719 185.40625 C 164.675781 185.425781 164.816406 185.46875 164.9375 185.527344 L 165.117188 185.285156 L 165.21875 185.34375 L 165.320312 185.40625 L 165.199219 185.691406 C 165.320312 185.769531 165.421875 185.894531 165.523438 186.015625 L 165.804688 185.894531 L 165.867188 185.996094 L 165.925781 186.09375 L 165.683594 186.277344 C 165.746094 186.421875 165.785156 186.5625 165.804688 186.703125 L 166.109375 186.746094 L 166.109375 186.945312 L 165.804688 186.988281 C 165.785156 187.148438 165.746094 187.292969 165.683594 187.414062 L 165.925781 187.597656 L 165.867188 187.699219 L 165.804688 187.800781 L 165.523438 187.675781 C 165.441406 187.800781 165.320312 187.898438 165.199219 188 L 165.320312 188.285156 L 165.21875 188.347656 L 165.117188 188.40625 L 164.9375 188.164062 C 164.796875 188.226562 164.652344 188.265625 164.511719 188.285156 L 164.472656 188.589844 L 164.269531 188.589844 L 164.230469 188.285156 C 164.070312 188.265625 163.925781 188.226562 163.804688 188.164062 L 163.625 188.40625 L 163.523438 188.347656 L 163.421875 188.285156 L 163.542969 188 C 163.421875 187.921875 163.320312 187.800781 163.222656 187.675781 L 162.9375 187.800781 L 162.878906 187.699219 L 162.816406 187.597656 L 163.058594 187.414062 C 163 187.273438 162.957031 187.128906 162.9375 186.988281 L 162.636719 186.945312 L 162.636719 186.746094 L 162.9375 186.703125 C 162.957031 186.542969 163 186.398438 163.058594 186.277344 L 162.816406 186.09375 L 162.878906 185.996094 L 162.9375 185.894531 L 163.222656 186.015625 C 163.300781 185.894531 163.421875 185.792969 163.542969 185.691406 L 163.421875 185.40625 L 163.523438 185.34375 L 163.625 185.285156 L 163.804688 185.527344 C 163.949219 185.46875 164.089844 185.425781 164.230469 185.40625 L 164.269531 185.101562 L 164.472656 185.101562 Z M 164.511719 185.40625 " fill-opacity="1" fill-rule="evenodd"/><path fill="#1a1a1a" d="M 162.714844 180.355469 C 163.28125 180.355469 163.726562 180.804688 163.726562 181.371094 C 163.726562 181.9375 163.28125 182.386719 162.714844 182.386719 C 162.152344 182.386719 161.707031 181.9375 161.707031 181.371094 C 161.707031 180.804688 162.152344 180.355469 162.714844 180.355469 Z M 162.714844 181.007812 C 162.917969 181.007812 163.078125 181.167969 163.078125 181.371094 C 163.078125 181.574219 162.917969 181.734375 162.714844 181.734375 C 162.515625 181.734375 162.351562 181.574219 162.351562 181.371094 C 162.351562 181.167969 162.515625 181.007812 162.714844 181.007812 Z M 162.714844 180.519531 C 163.179688 180.519531 163.5625 180.90625 163.5625 181.371094 C 163.5625 181.835938 163.179688 182.222656 162.714844 182.222656 C 162.25 182.222656 161.867188 181.835938 161.867188 181.371094 C 161.867188 180.90625 162.25 180.519531 162.714844 180.519531 Z M 162.855469 179.929688 C 163.019531 179.953125 163.160156 179.992188 163.28125 180.054688 L 163.464844 179.808594 L 163.5625 179.871094 L 163.664062 179.929688 L 163.542969 180.214844 C 163.664062 180.296875 163.765625 180.417969 163.867188 180.539062 L 164.148438 180.417969 L 164.210938 180.519531 L 164.269531 180.621094 L 164.027344 180.804688 C 164.089844 180.945312 164.128906 181.085938 164.148438 181.230469 L 164.453125 181.269531 L 164.453125 181.472656 L 164.148438 181.511719 C 164.128906 181.675781 164.089844 181.816406 164.027344 181.9375 L 164.269531 182.121094 L 164.210938 182.222656 L 164.148438 182.324219 L 163.867188 182.203125 C 163.785156 182.324219 163.664062 182.425781 163.542969 182.527344 L 163.664062 182.8125 L 163.5625 182.871094 L 163.464844 182.933594 L 163.28125 182.6875 C 163.140625 182.75 163 182.789062 162.855469 182.8125 L 162.816406 183.113281 L 162.613281 183.113281 L 162.574219 182.8125 C 162.414062 182.789062 162.273438 182.75 162.152344 182.6875 L 161.96875 182.933594 L 161.867188 182.871094 L 161.765625 182.8125 L 161.886719 182.527344 C 161.765625 182.445312 161.667969 182.324219 161.566406 182.203125 L 161.28125 182.324219 L 161.222656 182.222656 L 161.160156 182.121094 L 161.402344 181.9375 C 161.34375 181.796875 161.304688 181.65625 161.28125 181.511719 L 160.980469 181.472656 L 160.980469 181.269531 L 161.28125 181.230469 C 161.304688 181.066406 161.34375 180.925781 161.402344 180.804688 L 161.160156 180.621094 L 161.222656 180.519531 L 161.28125 180.417969 L 161.566406 180.539062 C 161.644531 180.417969 161.765625 180.316406 161.886719 180.214844 L 161.765625 179.929688 L 161.867188 179.871094 L 161.96875 179.808594 L 162.152344 180.054688 C 162.292969 179.992188 162.433594 179.953125 162.574219 179.929688 L 162.613281 179.628906 L 162.816406 179.628906 Z M 162.855469 179.929688 " fill-opacity="1" fill-rule="evenodd"/><path fill="#1a1a1a" d="M 180.078125 145.238281 C 180.804688 145.238281 181.371094 145.828125 181.371094 146.535156 C 181.371094 147.246094 180.785156 147.832031 180.078125 147.832031 C 179.351562 147.832031 178.785156 147.246094 178.785156 146.535156 C 178.785156 145.828125 179.351562 145.238281 180.078125 145.238281 Z M 180.078125 146.070312 C 180.339844 146.070312 180.542969 146.273438 180.542969 146.535156 C 180.542969 146.800781 180.339844 147.003906 180.078125 147.003906 C 179.816406 147.003906 179.613281 146.800781 179.613281 146.535156 C 179.613281 146.273438 179.816406 146.070312 180.078125 146.070312 Z M 180.078125 145.441406 C 180.683594 145.441406 181.167969 145.925781 181.167969 146.535156 C 181.167969 147.144531 180.683594 147.628906 180.078125 147.628906 C 179.472656 147.628906 178.988281 147.144531 178.988281 146.535156 C 178.988281 145.925781 179.472656 145.441406 180.078125 145.441406 Z M 180.28125 144.691406 C 180.480469 144.710938 180.664062 144.773438 180.84375 144.832031 L 181.085938 144.527344 L 181.207031 144.589844 L 181.328125 144.648438 L 181.1875 145.015625 C 181.347656 145.136719 181.492188 145.257812 181.589844 145.421875 L 181.953125 145.277344 L 182.015625 145.402344 L 182.074219 145.523438 L 181.773438 145.765625 C 181.855469 145.949219 181.894531 146.128906 181.914062 146.332031 L 182.296875 146.394531 L 182.296875 146.679688 L 181.914062 146.738281 C 181.894531 146.941406 181.832031 147.125 181.773438 147.304688 L 182.074219 147.550781 L 182.015625 147.671875 L 181.953125 147.792969 L 181.589844 147.652344 C 181.46875 147.8125 181.347656 147.957031 181.1875 148.058594 L 181.328125 148.421875 L 181.207031 148.484375 L 181.085938 148.542969 L 180.84375 148.238281 C 180.664062 148.320312 180.480469 148.359375 180.28125 148.382812 L 180.21875 148.765625 L 179.9375 148.765625 L 179.875 148.382812 C 179.671875 148.359375 179.492188 148.300781 179.308594 148.238281 L 179.066406 148.542969 L 178.945312 148.484375 L 178.824219 148.421875 L 178.96875 148.058594 C 178.804688 147.933594 178.664062 147.8125 178.5625 147.652344 L 178.199219 147.792969 L 178.140625 147.671875 L 178.078125 147.550781 L 178.382812 147.304688 C 178.300781 147.125 178.261719 146.941406 178.242188 146.738281 L 177.855469 146.679688 L 177.855469 146.394531 L 178.242188 146.332031 C 178.261719 146.128906 178.320312 145.949219 178.382812 145.765625 L 178.078125 145.523438 L 178.140625 145.402344 L 178.199219 145.277344 L 178.5625 145.421875 C 178.683594 145.257812 178.804688 145.117188 178.96875 145.015625 L 178.824219 144.648438 L 178.945312 144.589844 L 179.066406 144.527344 L 179.308594 144.832031 C 179.492188 144.75 179.671875 144.710938 179.875 144.691406 L 179.9375 144.304688 L 180.21875 144.304688 Z M 180.28125 144.691406 " fill-opacity="1" fill-rule="evenodd"/><path fill="#1a1a1a" d="M 178.300781 140.960938 C 178.605469 140.917969 178.886719 141.140625 178.925781 141.445312 C 178.96875 141.75 178.746094 142.035156 178.441406 142.074219 C 178.140625 142.117188 177.855469 141.890625 177.816406 141.589844 C 177.777344 141.285156 178 141 178.300781 140.960938 Z M 178.785156 140.738281 L 179.210938 140.1875 C 178.945312 140.027344 178.644531 139.945312 178.339844 139.945312 L 178.441406 140.636719 C 178.542969 140.636719 178.664062 140.675781 178.785156 140.738281 Z M 179.230469 141.242188 L 179.917969 141.140625 C 179.835938 140.839844 179.671875 140.554688 179.472656 140.351562 L 179.046875 140.898438 C 179.109375 141.019531 179.1875 141.121094 179.230469 141.242188 Z M 179.167969 141.933594 L 179.714844 142.359375 C 179.875 142.09375 179.957031 141.792969 179.957031 141.488281 L 179.269531 141.589844 C 179.25 141.710938 179.230469 141.832031 179.167969 141.933594 Z M 178.644531 142.378906 L 178.746094 143.070312 C 179.046875 142.988281 179.332031 142.824219 179.53125 142.621094 L 178.988281 142.195312 C 178.886719 142.277344 178.765625 142.339844 178.644531 142.378906 Z M 177.976562 142.316406 L 177.554688 142.867188 C 177.816406 143.027344 178.121094 143.109375 178.421875 143.109375 L 178.320312 142.417969 C 178.199219 142.417969 178.078125 142.378906 177.976562 142.316406 Z M 177.535156 141.8125 L 176.847656 141.914062 C 176.929688 142.21875 177.089844 142.5 177.292969 142.703125 L 177.714844 142.15625 C 177.636719 142.035156 177.574219 141.933594 177.535156 141.8125 Z M 177.574219 141.121094 L 177.027344 140.695312 C 176.867188 140.960938 176.785156 141.265625 176.785156 141.566406 L 177.472656 141.464844 C 177.492188 141.367188 177.535156 141.222656 177.574219 141.121094 Z M 177.230469 140.453125 L 177.777344 140.878906 C 177.878906 140.796875 177.976562 140.738281 178.097656 140.695312 L 178 140.007812 C 177.695312 140.066406 177.433594 140.230469 177.230469 140.453125 Z M 178.320312 139.277344 C 178.5625 139.277344 178.785156 139.296875 179.007812 139.359375 L 179.25 138.953125 L 179.410156 139.011719 L 179.574219 139.074219 L 179.453125 139.519531 C 179.652344 139.640625 179.835938 139.785156 179.996094 139.945312 L 180.402344 139.722656 L 180.5 139.863281 L 180.601562 140.007812 L 180.28125 140.351562 C 180.402344 140.554688 180.480469 140.757812 180.542969 141 L 181.007812 141 L 181.027344 141.164062 L 181.046875 141.324219 L 180.601562 141.445312 C 180.601562 141.691406 180.582031 141.914062 180.523438 142.136719 L 180.925781 142.378906 L 180.863281 142.542969 L 180.804688 142.703125 L 180.359375 142.582031 C 180.238281 142.785156 180.097656 142.96875 179.9375 143.128906 L 180.160156 143.535156 L 180.015625 143.636719 L 179.875 143.738281 L 179.53125 143.414062 C 179.332031 143.535156 179.128906 143.617188 178.886719 143.675781 L 178.886719 144.144531 L 178.726562 144.164062 L 178.5625 144.183594 L 178.441406 143.738281 C 178.199219 143.738281 177.976562 143.71875 177.757812 143.65625 L 177.515625 144.0625 L 177.351562 144 L 177.191406 143.941406 L 177.3125 143.496094 C 177.109375 143.371094 176.929688 143.230469 176.765625 143.070312 L 176.363281 143.292969 L 176.261719 143.148438 L 176.140625 143.027344 L 176.464844 142.683594 C 176.34375 142.480469 176.261719 142.277344 176.203125 142.035156 L 175.738281 142.035156 L 175.71875 141.871094 L 175.695312 141.710938 L 176.140625 141.589844 C 176.140625 141.34375 176.160156 141.121094 176.222656 140.898438 L 175.816406 140.65625 L 175.878906 140.492188 L 175.9375 140.332031 L 176.382812 140.453125 C 176.503906 140.25 176.644531 140.066406 176.808594 139.90625 L 176.585938 139.5 L 176.867188 139.296875 L 177.210938 139.621094 C 177.414062 139.5 177.613281 139.417969 177.855469 139.359375 L 177.855469 138.890625 L 178.019531 138.871094 L 178.179688 138.851562 Z M 178.320312 139.277344 " fill-opacity="1" fill-rule="evenodd"/><g fill="#000000" fill-opacity="1"><g transform="translate(80.61011, 238.727834)"><g><path d="M 12.5 -25.515625 C 16.632812 -25.515625 19.789062 -24.441406 21.96875 -22.296875 C 24.15625 -20.160156 25.25 -16.976562 25.25 -12.75 C 25.25 -8.539062 24.15625 -5.363281 21.96875 -3.21875 C 19.789062 -1.070312 16.632812 0 12.5 0 L 3.3125 0 L 3.3125 -25.515625 Z M 12.203125 -4.234375 C 14.828125 -4.234375 16.789062 -4.90625 18.09375 -6.25 C 19.394531 -7.59375 20.046875 -9.757812 20.046875 -12.75 C 20.046875 -15.738281 19.394531 -17.90625 18.09375 -19.25 C 16.789062 -20.59375 14.828125 -21.265625 12.203125 -21.265625 L 8.359375 -21.265625 L 8.359375 -4.234375 Z M 12.203125 -4.234375 "/></g></g></g><g fill="#000000" fill-opacity="1"><g transform="translate(107.875768, 238.727834)"><g><path d="M 24.484375 0 L 19.171875 0 L 17.25 -5.875 L 7.484375 -5.875 L 5.5625 0 L 0.390625 0 L 9.203125 -25.515625 L 15.671875 -25.515625 Z M 12.125 -20.1875 L 8.84375 -10.125 L 15.859375 -10.125 L 12.5625 -20.1875 Z M 12.125 -20.1875 "/></g></g></g><g fill="#000000" fill-opacity="1"><g transform="translate(132.734093, 238.727834)"><g><path d="M 20.453125 -25.515625 L 20.453125 -21.265625 L 13.09375 -21.265625 L 13.09375 0 L 8.0625 0 L 8.0625 -21.265625 L 0.703125 -21.265625 L 0.703125 -25.515625 Z M 20.453125 -25.515625 "/></g></g></g><g fill="#000000" fill-opacity="1"><g transform="translate(153.876753, 238.727834)"><g><path d="M 24.484375 0 L 19.171875 0 L 17.25 -5.875 L 7.484375 -5.875 L 5.5625 0 L 0.390625 0 L 9.203125 -25.515625 L 15.671875 -25.515625 Z M 12.125 -20.1875 L 8.84375 -10.125 L 15.859375 -10.125 L 12.5625 -20.1875 Z M 12.125 -20.1875 "/></g></g></g><g fill="#000000" fill-opacity="1"><g transform="translate(178.735078, 238.727834)"><g><path d="M 11.3125 0.359375 C 9.539062 0.359375 7.960938 0.144531 6.578125 -0.28125 C 5.203125 -0.71875 4.054688 -1.289062 3.140625 -2 C 2.222656 -2.71875 1.519531 -3.5 1.03125 -4.34375 L 3.796875 -7.734375 L 4.234375 -7.734375 C 5.003906 -6.585938 5.976562 -5.675781 7.15625 -5 C 8.34375 -4.332031 9.726562 -4 11.3125 -4 C 12.65625 -4 13.671875 -4.28125 14.359375 -4.84375 C 15.046875 -5.414062 15.390625 -6.203125 15.390625 -7.203125 C 15.390625 -7.804688 15.273438 -8.3125 15.046875 -8.71875 C 14.828125 -9.125 14.460938 -9.472656 13.953125 -9.765625 C 13.441406 -10.054688 12.75 -10.304688 11.875 -10.515625 L 8.609375 -11.265625 C 6.316406 -11.796875 4.609375 -12.664062 3.484375 -13.875 C 2.359375 -15.09375 1.796875 -16.675781 1.796875 -18.625 C 1.796875 -20.0625 2.15625 -21.328125 2.875 -22.421875 C 3.59375 -23.515625 4.640625 -24.363281 6.015625 -24.96875 C 7.398438 -25.570312 9.050781 -25.875 10.96875 -25.875 C 12.9375 -25.875 14.617188 -25.613281 16.015625 -25.09375 C 17.421875 -24.582031 18.609375 -23.789062 19.578125 -22.71875 L 17.078125 -19.296875 L 16.640625 -19.296875 C 15.921875 -20.054688 15.09375 -20.625 14.15625 -21 C 13.226562 -21.375 12.164062 -21.5625 10.96875 -21.5625 C 9.59375 -21.5625 8.539062 -21.316406 7.8125 -20.828125 C 7.09375 -20.335938 6.734375 -19.664062 6.734375 -18.8125 C 6.734375 -18.007812 6.984375 -17.367188 7.484375 -16.890625 C 7.992188 -16.410156 8.875 -16.035156 10.125 -15.765625 L 13.46875 -15.078125 C 15.945312 -14.554688 17.742188 -13.664062 18.859375 -12.40625 C 19.972656 -11.15625 20.53125 -9.523438 20.53125 -7.515625 C 20.53125 -5.921875 20.1875 -4.535156 19.5 -3.359375 C 18.820312 -2.179688 17.789062 -1.265625 16.40625 -0.609375 C 15.019531 0.0351562 13.320312 0.359375 11.3125 0.359375 Z M 11.3125 0.359375 "/></g></g></g><g fill="#000000" fill-opacity="1"><g transform="translate(200.645293, 238.727834)"><g><path d="M 8.359375 -11.203125 L 8.359375 -4.21875 L 20.53125 -4.21875 L 20.53125 0 L 3.3125 0 L 3.3125 -25.515625 L 20.25 -25.515625 L 20.25 -21.28125 L 8.359375 -21.28125 L 8.359375 -15.3125 L 18.75 -15.3125 L 18.75 -11.203125 Z M 8.359375 -11.203125 "/></g></g></g><g fill="#000000" fill-opacity="1"><g transform="translate(222.572953, 238.727834)"><g><path d="M 8.203125 0 L 3.3125 0 L 3.3125 -25.515625 L 9.09375 -25.515625 L 19.328125 -9.078125 L 19.78125 -9.140625 L 19.78125 -25.515625 L 24.640625 -25.515625 L 24.640625 0 L 19.46875 0 L 8.640625 -17.546875 L 8.203125 -17.484375 Z M 8.203125 0 "/></g></g></g><g fill="#000000" fill-opacity="1"><g transform="translate(250.536388, 238.727834)"><g><path d="M 11.3125 0.359375 C 9.539062 0.359375 7.960938 0.144531 6.578125 -0.28125 C 5.203125 -0.71875 4.054688 -1.289062 3.140625 -2 C 2.222656 -2.71875 1.519531 -3.5 1.03125 -4.34375 L 3.796875 -7.734375 L 4.234375 -7.734375 C 5.003906 -6.585938 5.976562 -5.675781 7.15625 -5 C 8.34375 -4.332031 9.726562 -4 11.3125 -4 C 12.65625 -4 13.671875 -4.28125 14.359375 -4.84375 C 15.046875 -5.414062 15.390625 -6.203125 15.390625 -7.203125 C 15.390625 -7.804688 15.273438 -8.3125 15.046875 -8.71875 C 14.828125 -9.125 14.460938 -9.472656 13.953125 -9.765625 C 13.441406 -10.054688 12.75 -10.304688 11.875 -10.515625 L 8.609375 -11.265625 C 6.316406 -11.796875 4.609375 -12.664062 3.484375 -13.875 C 2.359375 -15.09375 1.796875 -16.675781 1.796875 -18.625 C 1.796875 -20.0625 2.15625 -21.328125 2.875 -22.421875 C 3.59375 -23.515625 4.640625 -24.363281 6.015625 -24.96875 C 7.398438 -25.570312 9.050781 -25.875 10.96875 -25.875 C 12.9375 -25.875 14.617188 -25.613281 16.015625 -25.09375 C 17.421875 -24.582031 18.609375 -23.789062 19.578125 -22.71875 L 17.078125 -19.296875 L 16.640625 -19.296875 C 15.921875 -20.054688 15.09375 -20.625 14.15625 -21 C 13.226562 -21.375 12.164062 -21.5625 10.96875 -21.5625 C 9.59375 -21.5625 8.539062 -21.316406 7.8125 -20.828125 C 7.09375 -20.335938 6.734375 -19.664062 6.734375 -18.8125 C 6.734375 -18.007812 6.984375 -17.367188 7.484375 -16.890625 C 7.992188 -16.410156 8.875 -16.035156 10.125 -15.765625 L 13.46875 -15.078125 C 15.945312 -14.554688 17.742188 -13.664062 18.859375 -12.40625 C 19.972656 -11.15625 20.53125 -9.523438 20.53125 -7.515625 C 20.53125 -5.921875 20.1875 -4.535156 19.5 -3.359375 C 18.820312 -2.179688 17.789062 -1.265625 16.40625 -0.609375 C 15.019531 0.0351562 13.320312 0.359375 11.3125 0.359375 Z M 11.3125 0.359375 "/></g></g></g><g fill="#000000" fill-opacity="1"><g transform="translate(272.446593, 238.727834)"><g><path d="M 8.359375 -11.203125 L 8.359375 -4.21875 L 20.53125 -4.21875 L 20.53125 0 L 3.3125 0 L 3.3125 -25.515625 L 20.25 -25.515625 L 20.25 -21.28125 L 8.359375 -21.28125 L 8.359375 -15.3125 L 18.75 -15.3125 L 18.75 -11.203125 Z M 8.359375 -11.203125 "/></g></g></g><g fill="#000000" fill-opacity="1"><g transform="translate(143.468198, 257.592668)"><g><path d="M 6.890625 -7.796875 C 6.847656 -8.222656 6.660156 -8.554688 6.328125 -8.796875 C 6.003906 -9.035156 5.566406 -9.15625 5.015625 -9.15625 C 4.453125 -9.15625 4.019531 -9.039062 3.71875 -8.8125 C 3.414062 -8.582031 3.265625 -8.289062 3.265625 -7.9375 C 3.253906 -7.539062 3.421875 -7.242188 3.765625 -7.046875 C 4.109375 -6.847656 4.515625 -6.691406 4.984375 -6.578125 L 5.96875 -6.34375 C 6.601562 -6.195312 7.164062 -5.988281 7.65625 -5.71875 C 8.15625 -5.445312 8.546875 -5.097656 8.828125 -4.671875 C 9.109375 -4.253906 9.25 -3.738281 9.25 -3.125 C 9.25 -2.125 8.875 -1.328125 8.125 -0.734375 C 7.382812 -0.140625 6.34375 0.15625 5 0.15625 C 3.675781 0.15625 2.617188 -0.144531 1.828125 -0.75 C 1.035156 -1.351562 0.625 -2.25 0.59375 -3.4375 L 2.84375 -3.4375 C 2.875 -2.882812 3.085938 -2.46875 3.484375 -2.1875 C 3.878906 -1.914062 4.378906 -1.78125 4.984375 -1.78125 C 5.566406 -1.78125 6.035156 -1.90625 6.390625 -2.15625 C 6.742188 -2.40625 6.921875 -2.726562 6.921875 -3.125 C 6.921875 -3.5 6.757812 -3.785156 6.4375 -3.984375 C 6.113281 -4.179688 5.65625 -4.351562 5.0625 -4.5 L 3.875 -4.796875 C 2.945312 -5.015625 2.210938 -5.363281 1.671875 -5.84375 C 1.140625 -6.332031 0.878906 -6.976562 0.890625 -7.78125 C 0.878906 -8.445312 1.050781 -9.023438 1.40625 -9.515625 C 1.769531 -10.015625 2.265625 -10.398438 2.890625 -10.671875 C 3.523438 -10.953125 4.238281 -11.09375 5.03125 -11.09375 C 5.84375 -11.09375 6.550781 -10.953125 7.15625 -10.671875 C 7.769531 -10.398438 8.242188 -10.015625 8.578125 -9.515625 C 8.921875 -9.023438 9.097656 -8.453125 9.109375 -7.796875 Z M 6.890625 -7.796875 "/></g></g></g><g fill="#000000" fill-opacity="1"><g transform="translate(153.318085, 257.592668)"><g><path d="M 11 -5.46875 C 11 -4.28125 10.773438 -3.265625 10.328125 -2.421875 C 9.878906 -1.585938 9.269531 -0.945312 8.5 -0.5 C 7.726562 -0.0625 6.859375 0.15625 5.890625 0.15625 C 4.910156 0.15625 4.035156 -0.0625 3.265625 -0.5 C 2.492188 -0.945312 1.882812 -1.585938 1.4375 -2.421875 C 0.988281 -3.265625 0.765625 -4.28125 0.765625 -5.46875 C 0.765625 -6.664062 0.988281 -7.679688 1.4375 -8.515625 C 1.882812 -9.347656 2.492188 -9.984375 3.265625 -10.421875 C 4.035156 -10.867188 4.910156 -11.09375 5.890625 -11.09375 C 6.859375 -11.09375 7.726562 -10.867188 8.5 -10.421875 C 9.269531 -9.984375 9.878906 -9.347656 10.328125 -8.515625 C 10.773438 -7.679688 11 -6.664062 11 -5.46875 Z M 8.65625 -5.46875 C 8.65625 -6.632812 8.398438 -7.519531 7.890625 -8.125 C 7.390625 -8.738281 6.722656 -9.046875 5.890625 -9.046875 C 5.046875 -9.046875 4.367188 -8.738281 3.859375 -8.125 C 3.359375 -7.519531 3.109375 -6.632812 3.109375 -5.46875 C 3.109375 -4.3125 3.359375 -3.425781 3.859375 -2.8125 C 4.367188 -2.195312 5.046875 -1.890625 5.890625 -1.890625 C 6.722656 -1.890625 7.390625 -2.195312 7.890625 -2.8125 C 8.398438 -3.425781 8.65625 -4.3125 8.65625 -5.46875 Z M 8.65625 -5.46875 "/></g></g></g><g fill="#000000" fill-opacity="1"><g transform="translate(165.080254, 257.592668)"><g><path d="M 0.953125 0 L 0.953125 -10.9375 L 3.265625 -10.9375 L 3.265625 -1.90625 L 7.953125 -1.90625 L 7.953125 0 Z M 0.953125 0 "/></g></g></g><g fill="#000000" fill-opacity="1"><g transform="translate(173.616105, 257.592668)"><g><path d="M 7.734375 -10.9375 L 10.03125 -10.9375 L 10.03125 -3.703125 C 10.03125 -2.878906 9.832031 -2.179688 9.4375 -1.609375 C 9.050781 -1.035156 8.515625 -0.597656 7.828125 -0.296875 C 7.148438 0.00390625 6.367188 0.15625 5.484375 0.15625 C 4.597656 0.15625 3.8125 0.00390625 3.125 -0.296875 C 2.445312 -0.597656 1.914062 -1.035156 1.53125 -1.609375 C 1.144531 -2.179688 0.953125 -2.878906 0.953125 -3.703125 L 0.953125 -10.9375 L 3.265625 -10.9375 L 3.265625 -3.78125 C 3.265625 -3.195312 3.472656 -2.738281 3.890625 -2.40625 C 4.316406 -2.070312 4.847656 -1.90625 5.484375 -1.90625 C 6.128906 -1.90625 6.664062 -2.070312 7.09375 -2.40625 C 7.519531 -2.738281 7.734375 -3.195312 7.734375 -3.78125 Z M 7.734375 -10.9375 "/></g></g></g><g fill="#000000" fill-opacity="1"><g transform="translate(184.587721, 257.592668)"><g><path d="M 0.53125 -9.03125 L 0.53125 -10.9375 L 9.515625 -10.9375 L 9.515625 -9.03125 L 6.171875 -9.03125 L 6.171875 0 L 3.890625 0 L 3.890625 -9.03125 Z M 0.53125 -9.03125 "/></g></g></g><g fill="#000000" fill-opacity="1"><g transform="translate(194.640582, 257.592668)"><g><path d="M 3.265625 -10.9375 L 3.265625 0 L 0.953125 0 L 0.953125 -10.9375 Z M 3.265625 -10.9375 "/></g></g></g><g fill="#000000" fill-opacity="1"><g transform="translate(198.860436, 257.592668)"><g><path d="M 11 -5.46875 C 11 -4.28125 10.773438 -3.265625 10.328125 -2.421875 C 9.878906 -1.585938 9.269531 -0.945312 8.5 -0.5 C 7.726562 -0.0625 6.859375 0.15625 5.890625 0.15625 C 4.910156 0.15625 4.035156 -0.0625 3.265625 -0.5 C 2.492188 -0.945312 1.882812 -1.585938 1.4375 -2.421875 C 0.988281 -3.265625 0.765625 -4.28125 0.765625 -5.46875 C 0.765625 -6.664062 0.988281 -7.679688 1.4375 -8.515625 C 1.882812 -9.347656 2.492188 -9.984375 3.265625 -10.421875 C 4.035156 -10.867188 4.910156 -11.09375 5.890625 -11.09375 C 6.859375 -11.09375 7.726562 -10.867188 8.5 -10.421875 C 9.269531 -9.984375 9.878906 -9.347656 10.328125 -8.515625 C 10.773438 -7.679688 11 -6.664062 11 -5.46875 Z M 8.65625 -5.46875 C 8.65625 -6.632812 8.398438 -7.519531 7.890625 -8.125 C 7.390625 -8.738281 6.722656 -9.046875 5.890625 -9.046875 C 5.046875 -9.046875 4.367188 -8.738281 3.859375 -8.125 C 3.359375 -7.519531 3.109375 -6.632812 3.109375 -5.46875 C 3.109375 -4.3125 3.359375 -3.425781 3.859375 -2.8125 C 4.367188 -2.195312 5.046875 -1.890625 5.890625 -1.890625 C 6.722656 -1.890625 7.390625 -2.195312 7.890625 -2.8125 C 8.398438 -3.425781 8.65625 -4.3125 8.65625 -5.46875 Z M 8.65625 -5.46875 "/></g></g></g><g fill="#000000" fill-opacity="1"><g transform="translate(210.622604, 257.592668)"><g><path d="M 10.109375 -10.9375 L 10.109375 0 L 8.109375 0 L 3.34375 -6.890625 L 3.265625 -6.890625 L 3.265625 0 L 0.953125 0 L 0.953125 -10.9375 L 2.984375 -10.9375 L 7.703125 -4.0625 L 7.796875 -4.0625 L 7.796875 -10.9375 Z M 10.109375 -10.9375 "/></g></g></g><g fill="#000000" fill-opacity="1"><g transform="translate(221.679688, 257.592668)"><g><path d="M 6.890625 -7.796875 C 6.847656 -8.222656 6.660156 -8.554688 6.328125 -8.796875 C 6.003906 -9.035156 5.566406 -9.15625 5.015625 -9.15625 C 4.453125 -9.15625 4.019531 -9.039062 3.71875 -8.8125 C 3.414062 -8.582031 3.265625 -8.289062 3.265625 -7.9375 C 3.253906 -7.539062 3.421875 -7.242188 3.765625 -7.046875 C 4.109375 -6.847656 4.515625 -6.691406 4.984375 -6.578125 L 5.96875 -6.34375 C 6.601562 -6.195312 7.164062 -5.988281 7.65625 -5.71875 C 8.15625 -5.445312 8.546875 -5.097656 8.828125 -4.671875 C 9.109375 -4.253906 9.25 -3.738281 9.25 -3.125 C 9.25 -2.125 8.875 -1.328125 8.125 -0.734375 C 7.382812 -0.140625 6.34375 0.15625 5 0.15625 C 3.675781 0.15625 2.617188 -0.144531 1.828125 -0.75 C 1.035156 -1.351562 0.625 -2.25 0.59375 -3.4375 L 2.84375 -3.4375 C 2.875 -2.882812 3.085938 -2.46875 3.484375 -2.1875 C 3.878906 -1.914062 4.378906 -1.78125 4.984375 -1.78125 C 5.566406 -1.78125 6.035156 -1.90625 6.390625 -2.15625 C 6.742188 -2.40625 6.921875 -2.726562 6.921875 -3.125 C 6.921875 -3.5 6.757812 -3.785156 6.4375 -3.984375 C 6.113281 -4.179688 5.65625 -4.351562 5.0625 -4.5 L 3.875 -4.796875 C 2.945312 -5.015625 2.210938 -5.363281 1.671875 -5.84375 C 1.140625 -6.332031 0.878906 -6.976562 0.890625 -7.78125 C 0.878906 -8.445312 1.050781 -9.023438 1.40625 -9.515625 C 1.769531 -10.015625 2.265625 -10.398438 2.890625 -10.671875 C 3.523438 -10.953125 4.238281 -11.09375 5.03125 -11.09375 C 5.84375 -11.09375 6.550781 -10.953125 7.15625 -10.671875 C 7.769531 -10.398438 8.242188 -10.015625 8.578125 -9.515625 C 8.921875 -9.023438 9.097656 -8.453125 9.109375 -7.796875 Z M 6.890625 -7.796875 "/></g></g></g></svg>