<svg xmlns="http://www.w3.org/2000/svg" width="500" viewBox="0 0 375 375" height="500" version="1.0"><defs><clipPath id="a"><path d="M81 47h271.145v70H81Zm0 0"/></clipPath><clipPath id="b"><path d="M155 129h197.145v62H155Zm0 0"/></clipPath><clipPath id="c"><path d="M22.895 175H352v70H22.895Zm0 0"/></clipPath><clipPath id="d"><path d="M97 257h255.145v71H97Zm0 0"/></clipPath></defs><g clip-path="url(#a)"><path fill="#fff" d="M112.738 108.637c15.492 0 28.227-11.54 30.293-26.52h52.32l22.376 32.375c.859 1.203 2.066 1.723 3.441 1.723h126.848c2.238 0 4.129-1.895 4.129-4.133s-1.891-4.133-4.13-4.133h-124.78l-22.376-32.375c-.859-1.207-2.066-1.722-3.441-1.722h-54.559c-2.066-14.985-14.8-26.52-30.293-26.52-16.867 0-30.636 13.773-30.636 30.652 0 16.875 13.941 30.653 30.808 30.653Zm0-52.867c12.219 0 22.203 9.988 22.203 22.214 0 12.227-9.984 22.215-22.203 22.215-12.218 0-22.203-9.988-22.203-22.215 0-12.226 9.813-22.214 22.203-22.214Zm0 0"/></g><g clip-path="url(#b)"><path fill="#fff" d="M348.016 155.82H216.008c-2.067-14.98-14.805-26.52-30.293-26.52-16.867 0-30.637 13.778-30.637 30.653 0 16.879 13.77 30.656 30.637 30.656 15.488 0 28.226-11.539 30.293-26.52h132.008c2.238 0 4.129-1.894 4.129-4.136 0-2.238-1.891-4.133-4.13-4.133Zm-162.301 26.524c-12.219 0-22.203-9.989-22.203-22.215 0-12.227 9.984-22.39 22.203-22.39s22.203 9.988 22.203 22.214c0 12.402-9.984 22.39-22.203 22.39Zm0 0"/></g><g clip-path="url(#c)"><path fill="#fff" d="M348.016 208.863H232.87c-1.375 0-2.754.688-3.613 1.895l-16.18 25.832h-70.91l-17.555-32.723A4.014 4.014 0 0 0 121 201.63H83.824c-2.066-14.98-14.8-26.52-30.293-26.52-16.867 0-30.636 13.778-30.636 30.653 0 16.879 13.77 30.652 30.636 30.652 15.492 0 28.227-11.535 30.293-26.52h34.594l17.555 32.723a4.024 4.024 0 0 0 3.617 2.238h75.726c1.38 0 2.754-.69 3.618-1.894l16.175-25.832h112.735c2.238 0 4.129-1.895 4.129-4.133.172-2.238-1.72-4.133-3.957-4.133ZM53.53 228.32c-12.218 0-22.203-9.984-22.203-22.215 0-12.226 9.985-22.214 22.203-22.214 12.223 0 22.203 9.988 22.203 22.214.172 12.23-9.808 22.215-22.203 22.215Zm0 0"/></g><g clip-path="url(#d)"><path fill="#fff" d="M348.016 257.598h-66.434c-1.55 0-2.926.859-3.617 2.066l-19.621 33.41H158.176c-2.067-14.984-14.801-26.523-30.293-26.523-16.863 0-30.633 13.777-30.633 30.656 0 16.875 13.77 30.652 30.633 30.652 15.492 0 28.226-11.539 30.293-26.52h102.578c1.55 0 2.926-.862 3.617-2.066l19.617-33.41h64.028c2.238 0 4.129-1.894 4.129-4.133 0-2.238-1.891-4.132-4.13-4.132Zm-220.133 61.996c-12.219 0-22.2-9.989-22.2-22.215 0-12.227 9.981-22.215 22.2-22.215 12.222 0 22.203 9.988 22.203 22.215.172 12.226-9.809 22.215-22.203 22.215Zm0 0"/></g></svg>