<svg xmlns="http://www.w3.org/2000/svg" xmlns:xlink="http://www.w3.org/1999/xlink" width="500" zoomAndPan="magnify" viewBox="0 0 375 374.999991" height="500" preserveAspectRatio="xMidYMid meet" version="1.0"><defs><clipPath id="68e12ea073"><path d="M 81 47 L 352.144531 47 L 352.144531 117 L 81 117 Z M 81 47 " clip-rule="nonzero"/></clipPath><clipPath id="e75308605e"><path d="M 155 129 L 352.144531 129 L 352.144531 191 L 155 191 Z M 155 129 " clip-rule="nonzero"/></clipPath><clipPath id="6a0823d66a"><path d="M 22.894531 175 L 352 175 L 352 245 L 22.894531 245 Z M 22.894531 175 " clip-rule="nonzero"/></clipPath><clipPath id="c3f978acb7"><path d="M 97 257 L 352.144531 257 L 352.144531 328 L 97 328 Z M 97 257 " clip-rule="nonzero"/></clipPath></defs><g clip-path="url(#68e12ea073)"><path fill="#ffffff" d="M 112.738281 108.636719 C 128.230469 108.636719 140.964844 97.097656 143.03125 82.117188 L 195.351562 82.117188 L 217.726562 114.492188 C 218.585938 115.695312 219.792969 116.214844 221.167969 116.214844 L 348.015625 116.214844 C 350.253906 116.214844 352.144531 114.320312 352.144531 112.082031 C 352.144531 109.84375 350.253906 107.949219 348.015625 107.949219 L 223.234375 107.949219 L 200.859375 75.574219 C 200 74.367188 198.792969 73.851562 197.417969 73.851562 L 142.859375 73.851562 C 140.792969 58.867188 128.058594 47.332031 112.566406 47.332031 C 95.699219 47.332031 81.929688 61.105469 81.929688 77.984375 C 81.929688 94.859375 95.871094 108.636719 112.738281 108.636719 Z M 112.738281 55.769531 C 124.957031 55.769531 134.941406 65.757812 134.941406 77.984375 C 134.941406 90.210938 124.957031 100.199219 112.738281 100.199219 C 100.519531 100.199219 90.535156 90.210938 90.535156 77.984375 C 90.535156 65.757812 100.347656 55.769531 112.738281 55.769531 Z M 112.738281 55.769531 " fill-opacity="1" fill-rule="nonzero"/></g><g clip-path="url(#e75308605e)"><path fill="#ffffff" d="M 348.015625 155.820312 L 216.007812 155.820312 C 213.941406 140.839844 201.203125 129.300781 185.714844 129.300781 C 168.847656 129.300781 155.078125 143.078125 155.078125 159.953125 C 155.078125 176.832031 168.847656 190.609375 185.714844 190.609375 C 201.203125 190.609375 213.941406 179.070312 216.007812 164.089844 L 348.015625 164.089844 C 350.253906 164.089844 352.144531 162.195312 352.144531 159.953125 C 352.144531 157.714844 350.253906 155.820312 348.015625 155.820312 Z M 185.714844 182.34375 C 173.496094 182.34375 163.511719 172.355469 163.511719 160.128906 C 163.511719 147.902344 173.496094 137.738281 185.714844 137.738281 C 197.933594 137.738281 207.917969 147.726562 207.917969 159.953125 C 207.917969 172.355469 197.933594 182.34375 185.714844 182.34375 Z M 185.714844 182.34375 " fill-opacity="1" fill-rule="nonzero"/></g><g clip-path="url(#6a0823d66a)"><path fill="#ffffff" d="M 348.015625 208.863281 L 232.871094 208.863281 C 231.496094 208.863281 230.117188 209.550781 229.257812 210.757812 L 213.078125 236.589844 L 142.167969 236.589844 L 124.613281 203.867188 C 123.925781 202.492188 122.550781 201.628906 121 201.628906 L 83.824219 201.628906 C 81.757812 186.648438 69.023438 175.109375 53.53125 175.109375 C 36.664062 175.109375 22.894531 188.886719 22.894531 205.761719 C 22.894531 222.640625 36.664062 236.414062 53.53125 236.414062 C 69.023438 236.414062 81.757812 224.878906 83.824219 209.894531 L 118.417969 209.894531 L 135.972656 242.617188 C 136.664062 243.992188 138.039062 244.855469 139.589844 244.855469 L 215.316406 244.855469 C 216.695312 244.855469 218.070312 244.164062 218.933594 242.960938 L 235.109375 217.128906 L 347.84375 217.128906 C 350.082031 217.128906 351.972656 215.234375 351.972656 212.996094 C 352.144531 210.757812 350.253906 208.863281 348.015625 208.863281 Z M 53.53125 228.320312 C 41.3125 228.320312 31.328125 218.335938 31.328125 206.105469 C 31.328125 193.878906 41.3125 183.890625 53.53125 183.890625 C 65.753906 183.890625 75.734375 193.878906 75.734375 206.105469 C 75.90625 218.335938 65.925781 228.320312 53.53125 228.320312 Z M 53.53125 228.320312 " fill-opacity="1" fill-rule="nonzero"/></g><g clip-path="url(#c3f978acb7)"><path fill="#ffffff" d="M 348.015625 257.597656 L 281.582031 257.597656 C 280.03125 257.597656 278.65625 258.457031 277.964844 259.664062 L 258.34375 293.074219 L 158.175781 293.074219 C 156.109375 278.089844 143.375 266.550781 127.882812 266.550781 C 111.019531 266.550781 97.25 280.328125 97.25 297.207031 C 97.25 314.082031 111.019531 327.859375 127.882812 327.859375 C 143.375 327.859375 156.109375 316.320312 158.175781 301.339844 L 260.753906 301.339844 C 262.304688 301.339844 263.679688 300.476562 264.371094 299.273438 L 283.988281 265.863281 L 348.015625 265.863281 C 350.253906 265.863281 352.144531 263.96875 352.144531 261.730469 C 352.144531 259.492188 350.253906 257.597656 348.015625 257.597656 Z M 127.882812 319.59375 C 115.664062 319.59375 105.683594 309.605469 105.683594 297.378906 C 105.683594 285.152344 115.664062 275.164062 127.882812 275.164062 C 140.105469 275.164062 150.085938 285.152344 150.085938 297.378906 C 150.257812 309.605469 140.277344 319.59375 127.882812 319.59375 Z M 127.882812 319.59375 " fill-opacity="1" fill-rule="nonzero"/></g></svg>