<svg xmlns="http://www.w3.org/2000/svg" xmlns:xlink="http://www.w3.org/1999/xlink" width="500" zoomAndPan="magnify" viewBox="0 0 375 374.999991" height="500" preserveAspectRatio="xMidYMid meet" version="1.0"><defs><g/><clipPath id="a17ef00e62"><path d="M 45 152.007812 L 114.160156 152.007812 L 114.160156 170 L 45 170 Z M 45 152.007812 " clip-rule="nonzero"/></clipPath><clipPath id="661268f06e"><path d="M 64 172 L 114.160156 172 L 114.160156 189 L 64 189 Z M 64 172 " clip-rule="nonzero"/></clipPath><clipPath id="7af24c0cd7"><path d="M 30.910156 184 L 114.160156 184 L 114.160156 203 L 30.910156 203 Z M 30.910156 184 " clip-rule="nonzero"/></clipPath><clipPath id="e65ec24e8e"><path d="M 49 205 L 114.160156 205 L 114.160156 223.257812 L 49 223.257812 Z M 49 205 " clip-rule="nonzero"/></clipPath></defs><g clip-path="url(#a17ef00e62)"><path fill="#ffffff" d="M 53.625 167.628906 C 57.542969 167.628906 60.761719 164.707031 61.285156 160.910156 L 74.515625 160.910156 L 80.171875 169.113281 C 80.390625 169.417969 80.695312 169.546875 81.042969 169.546875 L 113.113281 169.546875 C 113.679688 169.546875 114.160156 169.070312 114.160156 168.5 C 114.160156 167.933594 113.679688 167.453125 113.113281 167.453125 L 81.5625 167.453125 L 75.90625 159.253906 C 75.6875 158.945312 75.386719 158.816406 75.035156 158.816406 L 61.242188 158.816406 C 60.71875 155.019531 57.5 152.097656 53.582031 152.097656 C 49.316406 152.097656 45.835938 155.585938 45.835938 159.863281 C 45.835938 164.136719 49.359375 167.628906 53.625 167.628906 Z M 53.625 154.234375 C 56.714844 154.234375 59.238281 156.765625 59.238281 159.863281 C 59.238281 162.960938 56.714844 165.492188 53.625 165.492188 C 50.535156 165.492188 48.011719 162.960938 48.011719 159.863281 C 48.011719 156.765625 50.492188 154.234375 53.625 154.234375 Z M 53.625 154.234375 " fill-opacity="1" fill-rule="nonzero"/></g><g clip-path="url(#661268f06e)"><path fill="#ffffff" d="M 113.113281 179.582031 L 79.738281 179.582031 C 79.214844 175.785156 75.992188 172.863281 72.078125 172.863281 C 67.8125 172.863281 64.332031 176.355469 64.332031 180.628906 C 64.332031 184.90625 67.8125 188.394531 72.078125 188.394531 C 75.992188 188.394531 79.214844 185.472656 79.738281 181.675781 L 113.113281 181.675781 C 113.679688 181.675781 114.160156 181.195312 114.160156 180.628906 C 114.160156 180.0625 113.679688 179.582031 113.113281 179.582031 Z M 72.078125 186.300781 C 68.988281 186.300781 66.464844 183.769531 66.464844 180.671875 C 66.464844 177.574219 68.988281 175 72.078125 175 C 75.167969 175 77.691406 177.53125 77.691406 180.628906 C 77.691406 183.769531 75.167969 186.300781 72.078125 186.300781 Z M 72.078125 186.300781 " fill-opacity="1" fill-rule="nonzero"/></g><g clip-path="url(#7af24c0cd7)"><path fill="#ffffff" d="M 113.113281 193.019531 L 84 193.019531 C 83.652344 193.019531 83.304688 193.195312 83.085938 193.5 L 78.996094 200.042969 L 61.066406 200.042969 L 56.628906 191.753906 C 56.453125 191.40625 56.105469 191.1875 55.714844 191.1875 L 46.316406 191.1875 C 45.792969 187.390625 42.570312 184.46875 38.65625 184.46875 C 34.390625 184.46875 30.910156 187.960938 30.910156 192.234375 C 30.910156 196.511719 34.390625 200 38.65625 200 C 42.570312 200 45.792969 197.078125 46.316406 193.28125 L 55.0625 193.28125 L 59.5 201.570312 C 59.675781 201.921875 60.023438 202.136719 60.414062 202.136719 L 79.5625 202.136719 C 79.910156 202.136719 80.257812 201.964844 80.476562 201.660156 L 84.566406 195.113281 L 113.070312 195.113281 C 113.636719 195.113281 114.117188 194.632812 114.117188 194.066406 C 114.160156 193.5 113.679688 193.019531 113.113281 193.019531 Z M 38.65625 197.949219 C 35.566406 197.949219 33.042969 195.417969 33.042969 192.320312 C 33.042969 189.222656 35.566406 186.695312 38.65625 186.695312 C 41.746094 186.695312 44.269531 189.222656 44.269531 192.320312 C 44.3125 195.417969 41.789062 197.949219 38.65625 197.949219 Z M 38.65625 197.949219 " fill-opacity="1" fill-rule="nonzero"/></g><g clip-path="url(#e65ec24e8e)"><path fill="#ffffff" d="M 113.113281 205.367188 L 96.316406 205.367188 C 95.925781 205.367188 95.578125 205.585938 95.402344 205.890625 L 90.441406 214.355469 L 65.113281 214.355469 C 64.59375 210.558594 61.371094 207.636719 57.457031 207.636719 C 53.191406 207.636719 49.710938 211.125 49.710938 215.402344 C 49.710938 219.675781 53.191406 223.167969 57.457031 223.167969 C 61.371094 223.167969 64.59375 220.242188 65.113281 216.449219 L 91.050781 216.449219 C 91.441406 216.449219 91.792969 216.230469 91.964844 215.925781 L 96.925781 207.460938 L 113.113281 207.460938 C 113.679688 207.460938 114.160156 206.980469 114.160156 206.414062 C 114.160156 205.847656 113.679688 205.367188 113.113281 205.367188 Z M 57.457031 221.074219 C 54.367188 221.074219 51.839844 218.542969 51.839844 215.445312 C 51.839844 212.347656 54.367188 209.816406 57.457031 209.816406 C 60.546875 209.816406 63.070312 212.347656 63.070312 215.445312 C 63.113281 218.542969 60.589844 221.074219 57.457031 221.074219 Z M 57.457031 221.074219 " fill-opacity="1" fill-rule="nonzero"/></g><g fill="#ffffff" fill-opacity="1"><g transform="translate(122.058959, 192.260668)"><g><path d="M 20.085938 -16.792969 C 19.820312 -17.898438 19.375 -18.820312 18.820312 -19.558594 C 18.242188 -20.269531 17.476562 -20.820312 16.582031 -21.164062 C 15.6875 -21.503906 14.636719 -21.691406 13.398438 -21.691406 L 4.210938 -21.691406 L 4.210938 -21.664062 C 3.449219 -21.609375 2.789062 -21.191406 2.394531 -20.558594 C 2.289062 -20.347656 2.183594 -20.109375 2.132812 -19.898438 L 2.105469 -1.921875 C 2.160156 -1.632812 2.265625 -1.34375 2.394531 -1.105469 C 2.816406 -0.394531 3.578125 0.0273438 4.394531 0.0273438 L 13.398438 0.0273438 C 14.636719 0.0273438 15.714844 -0.15625 16.582031 -0.5 C 17.476562 -0.84375 18.242188 -1.394531 18.820312 -2.132812 C 19.375 -2.84375 19.820312 -3.765625 20.085938 -4.871094 C 20.347656 -5.976562 20.480469 -7.292969 20.480469 -8.765625 L 20.480469 -12.898438 C 20.480469 -14.371094 20.347656 -15.6875 20.085938 -16.792969 Z M 5.976562 -4.027344 L 5.976562 -17.636719 C 5.976562 -17.742188 6 -17.792969 6.027344 -17.792969 L 13.320312 -17.792969 C 13.925781 -17.792969 14.453125 -17.714844 14.871094 -17.558594 C 15.292969 -17.398438 15.609375 -17.1875 15.847656 -16.847656 C 16.109375 -16.503906 16.292969 -16.058594 16.398438 -15.503906 C 16.503906 -14.898438 16.582031 -14.160156 16.582031 -13.292969 L 16.582031 -8.371094 C 16.582031 -7.503906 16.503906 -6.765625 16.398438 -6.1875 C 16.292969 -5.605469 16.109375 -5.160156 15.847656 -4.816406 C 15.609375 -4.5 15.292969 -4.265625 14.871094 -4.105469 C 14.453125 -3.949219 13.925781 -3.894531 13.320312 -3.894531 L 6 -3.894531 C 6 -3.894531 5.976562 -3.921875 5.976562 -4.027344 Z M 5.976562 -4.027344 "/></g></g></g><g fill="#ffffff" fill-opacity="1"><g transform="translate(145.959256, 192.260668)"><g><path d="M 16.214844 -19.242188 C 16.164062 -19.375 16.109375 -19.53125 16.058594 -19.636719 C 15.636719 -21.003906 14.371094 -21.980469 12.925781 -21.980469 C 12.265625 -21.980469 11.632812 -21.796875 11.109375 -21.425781 C 10.949219 -21.347656 10.820312 -21.242188 10.714844 -21.164062 C 10.320312 -20.820312 9.921875 -20.191406 9.554688 -19.242188 L 2.210938 -1 C 2.132812 -0.761719 2.105469 -0.527344 2.160156 -0.367188 C 2.183594 -0.210938 2.316406 0.0273438 2.738281 0.0273438 L 5.632812 0.0273438 C 5.976562 0.0273438 6.238281 -0.183594 6.371094 -0.527344 L 7.871094 -4.289062 L 13.636719 -4.289062 C 13.925781 -4.289062 14.1875 -4.421875 14.320312 -4.660156 C 14.476562 -4.871094 14.503906 -5.160156 14.425781 -5.421875 L 13.476562 -7.765625 C 13.34375 -8.082031 13.054688 -8.292969 12.714844 -8.292969 L 9.449219 -8.292969 L 12.820312 -16.820312 C 12.84375 -16.871094 12.871094 -16.898438 12.871094 -16.898438 L 12.976562 -16.898438 C 12.976562 -16.898438 12.976562 -16.898438 13.003906 -16.847656 L 19.53125 -0.554688 C 19.664062 -0.183594 19.925781 0.0273438 20.292969 0.0273438 L 23.113281 0.0273438 C 23.53125 0.0273438 23.636719 -0.238281 23.691406 -0.367188 C 23.742188 -0.527344 23.71875 -0.761719 23.613281 -1 Z M 16.214844 -19.242188 "/></g></g></g><g fill="#ffffff" fill-opacity="1"><g transform="translate(173.123467, 192.260668)"><g><path d="M 20.292969 -21.691406 L 2.871094 -21.691406 C 2.632812 -21.691406 2.105469 -21.609375 2.105469 -20.796875 L 2.105469 -18.742188 C 2.105469 -17.875 2.632812 -17.792969 2.871094 -17.792969 L 9.632812 -17.792969 L 9.632812 -0.894531 C 9.632812 -0.078125 10.160156 0 10.371094 0 L 12.792969 0 C 13.03125 0 13.53125 -0.078125 13.53125 -0.894531 L 13.53125 -17.792969 L 20.292969 -17.792969 C 20.53125 -17.792969 21.058594 -17.875 21.058594 -18.742188 L 21.058594 -20.796875 C 21.058594 -21.609375 20.53125 -21.691406 20.292969 -21.691406 Z M 20.292969 -21.691406 "/></g></g></g><g fill="#ffffff" fill-opacity="1"><g transform="translate(197.602839, 192.260668)"><g><path d="M 16.214844 -19.242188 C 16.164062 -19.375 16.109375 -19.53125 16.058594 -19.636719 C 15.636719 -21.003906 14.371094 -21.980469 12.925781 -21.980469 C 12.265625 -21.980469 11.632812 -21.796875 11.109375 -21.425781 C 10.949219 -21.347656 10.820312 -21.242188 10.714844 -21.164062 C 10.320312 -20.820312 9.921875 -20.191406 9.554688 -19.242188 L 2.210938 -1 C 2.132812 -0.761719 2.105469 -0.527344 2.160156 -0.367188 C 2.183594 -0.210938 2.316406 0.0273438 2.738281 0.0273438 L 5.632812 0.0273438 C 5.976562 0.0273438 6.238281 -0.183594 6.371094 -0.527344 L 7.871094 -4.289062 L 13.636719 -4.289062 C 13.925781 -4.289062 14.1875 -4.421875 14.320312 -4.660156 C 14.476562 -4.871094 14.503906 -5.160156 14.425781 -5.421875 L 13.476562 -7.765625 C 13.34375 -8.082031 13.054688 -8.292969 12.714844 -8.292969 L 9.449219 -8.292969 L 12.820312 -16.820312 C 12.84375 -16.871094 12.871094 -16.898438 12.871094 -16.898438 L 12.976562 -16.898438 C 12.976562 -16.898438 12.976562 -16.898438 13.003906 -16.847656 L 19.53125 -0.554688 C 19.664062 -0.183594 19.925781 0.0273438 20.292969 0.0273438 L 23.113281 0.0273438 C 23.53125 0.0273438 23.636719 -0.238281 23.691406 -0.367188 C 23.742188 -0.527344 23.71875 -0.761719 23.613281 -1 Z M 16.214844 -19.242188 "/></g></g></g><g fill="#ffffff" fill-opacity="1"><g transform="translate(224.76705, 192.260668)"><g><path d="M 14.820312 -12.949219 L 6.921875 -12.949219 C 6.527344 -12.949219 6.027344 -13.109375 6.027344 -14.398438 L 6.027344 -16.347656 C 6.027344 -16.820312 6.105469 -17.1875 6.238281 -17.453125 C 6.34375 -17.609375 6.5 -17.792969 6.949219 -17.792969 L 17.664062 -17.792969 C 17.875 -17.792969 18.398438 -17.875 18.398438 -18.6875 L 18.398438 -20.796875 C 18.398438 -21.609375 17.875 -21.691406 17.664062 -21.691406 L 6.316406 -21.691406 C 4.871094 -21.691406 3.816406 -21.214844 3.132812 -20.242188 C 2.449219 -19.292969 2.105469 -18.03125 2.105469 -16.503906 L 2.105469 -14.503906 C 2.105469 -12.6875 2.472656 -11.214844 3.132812 -10.292969 C 3.949219 -9.214844 5.160156 -9.054688 6.265625 -9.054688 L 14.160156 -9.054688 C 14.554688 -9.054688 15.082031 -8.898438 15.082031 -7.605469 L 15.082031 -5.34375 C 15.082031 -4.871094 15.003906 -4.5 14.847656 -4.238281 C 14.742188 -4.078125 14.582031 -3.894531 14.136719 -3.894531 L 2.894531 -3.894531 C 2.660156 -3.894531 2.132812 -3.816406 2.132812 -3 L 2.132812 -0.894531 C 2.132812 -0.078125 2.660156 0 2.894531 0 L 14.765625 0 C 16.214844 0 17.292969 -0.5 17.976562 -1.472656 C 18.636719 -2.421875 18.980469 -3.660156 18.980469 -5.1875 L 18.980469 -7.503906 C 18.980469 -9.214844 18.636719 -10.554688 17.953125 -11.503906 C 17.242188 -12.449219 16.1875 -12.949219 14.820312 -12.949219 Z M 14.820312 -12.949219 "/></g></g></g><g fill="#ffffff" fill-opacity="1"><g transform="translate(247.166982, 192.260668)"><g><path d="M 17.925781 -4.710938 L 8.660156 -4.710938 C 8.105469 -4.710938 7.660156 -4.789062 7.292969 -4.894531 C 6.949219 -5.027344 6.710938 -5.210938 6.5 -5.476562 C 6.292969 -5.765625 6.132812 -6.160156 6.054688 -6.660156 C 6.027344 -6.792969 6.027344 -6.976562 6 -7.105469 C 6 -7.105469 6.027344 -9.003906 6.054688 -9.003906 L 17.820312 -9.003906 C 18.03125 -9.003906 18.558594 -9.109375 18.558594 -9.921875 L 18.558594 -12.003906 C 18.558594 -12.820312 18.03125 -12.898438 17.820312 -12.898438 L 4.238281 -12.871094 C 3.472656 -12.820312 2.816406 -12.425781 2.449219 -11.765625 C 2.316406 -11.554688 2.210938 -11.34375 2.160156 -11.109375 L 2.105469 -7.792969 L 2.105469 -7.660156 C 2.132812 -6.421875 2.265625 -5.371094 2.449219 -4.5 C 2.683594 -3.449219 3.078125 -2.578125 3.578125 -1.921875 C 4.105469 -1.238281 4.789062 -0.761719 5.632812 -0.472656 C 6.449219 -0.15625 7.421875 -0.0273438 8.582031 -0.0273438 L 17.925781 -0.0273438 C 18.164062 -0.0273438 18.6875 -0.105469 18.6875 -0.921875 L 18.6875 -3.816406 C 18.6875 -4.632812 18.164062 -4.710938 17.925781 -4.710938 Z M 17.953125 -21.742188 L 2.816406 -21.742188 C 2.605469 -21.742188 2.105469 -21.636719 2.105469 -20.796875 L 2.105469 -18.742188 C 2.105469 -17.925781 2.605469 -17.847656 2.816406 -17.847656 L 17.953125 -17.820312 C 18.164062 -17.820312 18.6875 -17.925781 18.6875 -18.742188 L 18.6875 -20.820312 C 18.6875 -21.636719 18.164062 -21.742188 17.953125 -21.742188 Z M 17.953125 -21.742188 "/></g></g></g><g fill="#ffffff" fill-opacity="1"><g transform="translate(269.277387, 192.260668)"><g><path d="M 20.742188 -21.691406 L 18.398438 -21.691406 C 18.164062 -21.691406 17.664062 -21.609375 17.664062 -20.769531 L 17.664062 -4.949219 C 17.664062 -4.921875 17.664062 -4.921875 17.664062 -4.894531 L 17.53125 -4.894531 C 17.503906 -4.894531 17.476562 -4.894531 17.453125 -4.976562 L 9.132812 -19.769531 C 8.921875 -20.164062 8.738281 -20.480469 8.554688 -20.714844 C 8.371094 -20.980469 8.1875 -21.191406 8.003906 -21.320312 C 7.792969 -21.480469 7.554688 -21.585938 7.265625 -21.636719 C 7 -21.664062 6.6875 -21.691406 6.34375 -21.691406 L 4.371094 -21.691406 C 3.605469 -21.691406 3.027344 -21.425781 2.660156 -20.953125 C 2.289062 -20.453125 2.105469 -19.585938 2.105469 -18.292969 L 2.105469 -0.894531 C 2.105469 -0.078125 2.632812 0.0273438 2.871094 0.0273438 L 5.210938 0.0273438 C 5.449219 0.0273438 5.949219 -0.078125 5.949219 -0.894531 L 5.949219 -16.714844 C 5.949219 -16.742188 5.949219 -16.769531 5.949219 -16.769531 L 6.082031 -16.769531 C 6.082031 -16.769531 6.105469 -16.769531 6.160156 -16.6875 L 14.503906 -1.894531 C 14.714844 -1.472656 14.925781 -1.15625 15.109375 -0.921875 C 15.292969 -0.65625 15.476562 -0.472656 15.6875 -0.34375 C 15.898438 -0.183594 16.136719 -0.105469 16.398438 -0.0507812 C 16.636719 0 16.925781 0.0273438 17.292969 0.0273438 L 19.214844 0.0273438 C 19.980469 0.0273438 20.558594 -0.238281 20.925781 -0.738281 C 21.296875 -1.210938 21.480469 -2.078125 21.480469 -3.371094 L 21.480469 -20.769531 C 21.480469 -21.609375 20.953125 -21.691406 20.742188 -21.691406 Z M 20.742188 -21.691406 "/></g></g></g><g fill="#ffffff" fill-opacity="1"><g transform="translate(294.177899, 192.260668)"><g><path d="M 14.820312 -12.949219 L 6.921875 -12.949219 C 6.527344 -12.949219 6.027344 -13.109375 6.027344 -14.398438 L 6.027344 -16.347656 C 6.027344 -16.820312 6.105469 -17.1875 6.238281 -17.453125 C 6.34375 -17.609375 6.5 -17.792969 6.949219 -17.792969 L 17.664062 -17.792969 C 17.875 -17.792969 18.398438 -17.875 18.398438 -18.6875 L 18.398438 -20.796875 C 18.398438 -21.609375 17.875 -21.691406 17.664062 -21.691406 L 6.316406 -21.691406 C 4.871094 -21.691406 3.816406 -21.214844 3.132812 -20.242188 C 2.449219 -19.292969 2.105469 -18.03125 2.105469 -16.503906 L 2.105469 -14.503906 C 2.105469 -12.6875 2.472656 -11.214844 3.132812 -10.292969 C 3.949219 -9.214844 5.160156 -9.054688 6.265625 -9.054688 L 14.160156 -9.054688 C 14.554688 -9.054688 15.082031 -8.898438 15.082031 -7.605469 L 15.082031 -5.34375 C 15.082031 -4.871094 15.003906 -4.5 14.847656 -4.238281 C 14.742188 -4.078125 14.582031 -3.894531 14.136719 -3.894531 L 2.894531 -3.894531 C 2.660156 -3.894531 2.132812 -3.816406 2.132812 -3 L 2.132812 -0.894531 C 2.132812 -0.078125 2.660156 0 2.894531 0 L 14.765625 0 C 16.214844 0 17.292969 -0.5 17.976562 -1.472656 C 18.636719 -2.421875 18.980469 -3.660156 18.980469 -5.1875 L 18.980469 -7.503906 C 18.980469 -9.214844 18.636719 -10.554688 17.953125 -11.503906 C 17.242188 -12.449219 16.1875 -12.949219 14.820312 -12.949219 Z M 14.820312 -12.949219 "/></g></g></g><g fill="#ffffff" fill-opacity="1"><g transform="translate(316.577831, 192.260668)"><g><path d="M 17.925781 -4.710938 L 8.660156 -4.710938 C 8.105469 -4.710938 7.660156 -4.789062 7.292969 -4.894531 C 6.949219 -5.027344 6.710938 -5.210938 6.5 -5.476562 C 6.292969 -5.765625 6.132812 -6.160156 6.054688 -6.660156 C 6.027344 -6.792969 6.027344 -6.976562 6 -7.105469 C 6 -7.105469 6.027344 -9.003906 6.054688 -9.003906 L 17.820312 -9.003906 C 18.03125 -9.003906 18.558594 -9.109375 18.558594 -9.921875 L 18.558594 -12.003906 C 18.558594 -12.820312 18.03125 -12.898438 17.820312 -12.898438 L 4.238281 -12.871094 C 3.472656 -12.820312 2.816406 -12.425781 2.449219 -11.765625 C 2.316406 -11.554688 2.210938 -11.34375 2.160156 -11.109375 L 2.105469 -7.792969 L 2.105469 -7.660156 C 2.132812 -6.421875 2.265625 -5.371094 2.449219 -4.5 C 2.683594 -3.449219 3.078125 -2.578125 3.578125 -1.921875 C 4.105469 -1.238281 4.789062 -0.761719 5.632812 -0.472656 C 6.449219 -0.15625 7.421875 -0.0273438 8.582031 -0.0273438 L 17.925781 -0.0273438 C 18.164062 -0.0273438 18.6875 -0.105469 18.6875 -0.921875 L 18.6875 -3.816406 C 18.6875 -4.632812 18.164062 -4.710938 17.925781 -4.710938 Z M 17.953125 -21.742188 L 2.816406 -21.742188 C 2.605469 -21.742188 2.105469 -21.636719 2.105469 -20.796875 L 2.105469 -18.742188 C 2.105469 -17.925781 2.605469 -17.847656 2.816406 -17.847656 L 17.953125 -17.820312 C 18.164062 -17.820312 18.6875 -17.925781 18.6875 -18.742188 L 18.6875 -20.820312 C 18.6875 -21.636719 18.164062 -21.742188 17.953125 -21.742188 Z M 17.953125 -21.742188 "/></g></g></g><g fill="#ffffff" fill-opacity="1"><g transform="translate(122.058959, 209.833039)"><g><path d="M 8.097656 -7.078125 L 3.78125 -7.078125 C 3.566406 -7.078125 3.292969 -7.164062 3.292969 -7.867188 L 3.292969 -8.933594 C 3.292969 -9.191406 3.335938 -9.390625 3.410156 -9.535156 C 3.464844 -9.621094 3.550781 -9.722656 3.796875 -9.722656 L 9.652344 -9.722656 C 9.765625 -9.722656 10.054688 -9.765625 10.054688 -10.210938 L 10.054688 -11.363281 C 10.054688 -11.808594 9.765625 -11.851562 9.652344 -11.851562 L 3.453125 -11.851562 C 2.660156 -11.851562 2.085938 -11.59375 1.710938 -11.058594 C 1.335938 -10.542969 1.152344 -9.851562 1.152344 -9.019531 L 1.152344 -7.925781 C 1.152344 -6.933594 1.351562 -6.128906 1.710938 -5.625 C 2.15625 -5.035156 2.820312 -4.949219 3.421875 -4.949219 L 7.738281 -4.949219 C 7.953125 -4.949219 8.242188 -4.863281 8.242188 -4.15625 L 8.242188 -2.917969 C 8.242188 -2.660156 8.199219 -2.460938 8.113281 -2.316406 C 8.054688 -2.230469 7.96875 -2.128906 7.722656 -2.128906 L 1.582031 -2.128906 C 1.453125 -2.128906 1.164062 -2.085938 1.164062 -1.640625 L 1.164062 -0.488281 C 1.164062 -0.0429688 1.453125 0 1.582031 0 L 8.070312 0 C 8.859375 0 9.449219 -0.273438 9.824219 -0.804688 C 10.183594 -1.324219 10.371094 -2 10.371094 -2.832031 L 10.371094 -4.097656 C 10.371094 -5.035156 10.183594 -5.765625 9.808594 -6.285156 C 9.421875 -6.804688 8.84375 -7.078125 8.097656 -7.078125 Z M 8.097656 -7.078125 "/></g></g></g><g fill="#ffffff" fill-opacity="1"><g transform="translate(134.298957, 209.833039)"><g><path d="M 10.945312 -10.800781 C 10.65625 -11.160156 10.285156 -11.433594 9.824219 -11.605469 C 9.378906 -11.765625 8.832031 -11.851562 8.199219 -11.851562 L 4.6875 -11.851562 C 4.054688 -11.851562 3.523438 -11.765625 3.078125 -11.605469 C 2.617188 -11.433594 2.242188 -11.160156 1.957031 -10.800781 C 1.683594 -10.441406 1.46875 -9.96875 1.335938 -9.390625 C 1.207031 -8.832031 1.152344 -8.15625 1.152344 -7.351562 L 1.152344 -4.5 C 1.152344 -3.695312 1.207031 -3.007812 1.335938 -2.445312 C 1.46875 -1.871094 1.683594 -1.394531 1.957031 -1.035156 C 2.242188 -0.660156 2.617188 -0.386719 3.078125 -0.230469 C 3.507812 -0.0703125 4.054688 0.015625 4.6875 0.015625 L 8.199219 0.015625 C 8.832031 0.015625 9.378906 -0.0703125 9.824219 -0.230469 C 10.285156 -0.386719 10.65625 -0.660156 10.945312 -1.019531 C 11.234375 -1.394531 11.433594 -1.871094 11.5625 -2.445312 C 11.679688 -3.007812 11.75 -3.695312 11.75 -4.5 L 11.75 -7.351562 C 11.75 -8.140625 11.679688 -8.832031 11.5625 -9.390625 C 11.433594 -9.96875 11.234375 -10.441406 10.945312 -10.800781 Z M 9.609375 -7.59375 L 9.609375 -4.242188 C 9.609375 -3.824219 9.59375 -3.464844 9.535156 -3.179688 C 9.492188 -2.917969 9.40625 -2.691406 9.292969 -2.546875 C 9.191406 -2.386719 9.046875 -2.285156 8.859375 -2.230469 C 8.671875 -2.15625 8.429688 -2.128906 8.125 -2.128906 L 4.761719 -2.128906 C 4.457031 -2.128906 4.214844 -2.15625 4.027344 -2.230469 C 3.839844 -2.285156 3.695312 -2.386719 3.597656 -2.546875 C 3.480469 -2.691406 3.410156 -2.917969 3.351562 -3.179688 C 3.308594 -3.464844 3.28125 -3.824219 3.28125 -4.242188 L 3.28125 -7.59375 C 3.28125 -8.011719 3.308594 -8.371094 3.351562 -8.660156 C 3.410156 -8.933594 3.480469 -9.148438 3.597656 -9.304688 C 3.695312 -9.449219 3.839844 -9.550781 4.027344 -9.621094 C 4.214844 -9.679688 4.457031 -9.722656 4.761719 -9.722656 L 8.125 -9.722656 C 8.429688 -9.722656 8.671875 -9.679688 8.859375 -9.621094 C 9.046875 -9.550781 9.191406 -9.449219 9.292969 -9.304688 C 9.40625 -9.148438 9.492188 -8.933594 9.535156 -8.660156 C 9.59375 -8.371094 9.609375 -8.011719 9.609375 -7.59375 Z M 9.609375 -7.59375 "/></g></g></g><g fill="#ffffff" fill-opacity="1"><g transform="translate(147.919731, 209.833039)"><g><path d="M 9.449219 -2.128906 L 4.773438 -2.128906 C 4.472656 -2.128906 4.230469 -2.15625 4.027344 -2.230469 C 3.855469 -2.285156 3.710938 -2.386719 3.609375 -2.546875 C 3.496094 -2.703125 3.410156 -2.917969 3.367188 -3.179688 C 3.308594 -3.464844 3.292969 -3.824219 3.292969 -4.257812 L 3.292969 -11.347656 C 3.292969 -11.808594 3.007812 -11.851562 2.890625 -11.851562 L 1.566406 -11.851562 C 1.4375 -11.851562 1.152344 -11.808594 1.152344 -11.347656 L 1.152344 -4.5 C 1.152344 -3.695312 1.222656 -3.007812 1.351562 -2.445312 C 1.480469 -1.871094 1.683594 -1.394531 1.96875 -1.035156 C 2.257812 -0.660156 2.632812 -0.386719 3.09375 -0.230469 C 3.523438 -0.0703125 4.070312 0.015625 4.703125 0.015625 L 9.449219 0.015625 C 9.578125 0.015625 9.851562 -0.0429688 9.851562 -0.488281 L 9.851562 -1.625 C 9.851562 -2.070312 9.578125 -2.128906 9.449219 -2.128906 Z M 9.449219 -2.128906 "/></g></g></g><g fill="#ffffff" fill-opacity="1"><g transform="translate(159.641952, 209.833039)"><g><path d="M 11.089844 -11.851562 L 9.765625 -11.851562 C 9.636719 -11.851562 9.363281 -11.808594 9.363281 -11.363281 L 9.363281 -4.273438 C 9.363281 -3.839844 9.335938 -3.464844 9.292969 -3.191406 C 9.25 -2.917969 9.160156 -2.703125 9.0625 -2.546875 C 8.945312 -2.402344 8.816406 -2.300781 8.628906 -2.230469 C 8.441406 -2.171875 8.183594 -2.128906 7.882812 -2.128906 L 4.773438 -2.128906 C 4.472656 -2.128906 4.214844 -2.171875 4.027344 -2.230469 C 3.839844 -2.300781 3.710938 -2.402344 3.597656 -2.546875 C 3.496094 -2.703125 3.410156 -2.917969 3.351562 -3.191406 C 3.308594 -3.464844 3.28125 -3.839844 3.28125 -4.273438 L 3.28125 -11.363281 C 3.28125 -11.808594 3.007812 -11.851562 2.875 -11.851562 L 1.566406 -11.851562 C 1.4375 -11.851562 1.152344 -11.808594 1.152344 -11.363281 L 1.152344 -4.5 C 1.152344 -3.695312 1.207031 -3.007812 1.335938 -2.445312 C 1.46875 -1.871094 1.683594 -1.394531 1.96875 -1.035156 C 2.242188 -0.660156 2.632812 -0.402344 3.078125 -0.230469 C 3.523438 -0.0703125 4.070312 0 4.703125 0 L 7.9375 0 C 8.570312 0 9.117188 -0.0703125 9.566406 -0.230469 C 10.023438 -0.402344 10.398438 -0.660156 10.6875 -1.035156 C 10.972656 -1.394531 11.175781 -1.871094 11.304688 -2.445312 C 11.433594 -3.007812 11.492188 -3.695312 11.492188 -4.5 L 11.492188 -11.363281 C 11.492188 -11.808594 11.21875 -11.851562 11.089844 -11.851562 Z M 11.089844 -11.851562 "/></g></g></g><g fill="#ffffff" fill-opacity="1"><g transform="translate(173.003828, 209.833039)"><g><path d="M 11.089844 -11.851562 L 1.566406 -11.851562 C 1.4375 -11.851562 1.152344 -11.808594 1.152344 -11.363281 L 1.152344 -10.242188 C 1.152344 -9.765625 1.4375 -9.722656 1.566406 -9.722656 L 5.265625 -9.722656 L 5.265625 -0.488281 C 5.265625 -0.0429688 5.550781 0 5.667969 0 L 6.988281 0 C 7.121094 0 7.394531 -0.0429688 7.394531 -0.488281 L 7.394531 -9.722656 L 11.089844 -9.722656 C 11.21875 -9.722656 11.507812 -9.765625 11.507812 -10.242188 L 11.507812 -11.363281 C 11.507812 -11.808594 11.21875 -11.851562 11.089844 -11.851562 Z M 11.089844 -11.851562 "/></g></g></g><g fill="#ffffff" fill-opacity="1"><g transform="translate(186.380098, 209.833039)"><g><path d="M 2.875 -11.851562 L 1.554688 -11.851562 C 1.4375 -11.851562 1.152344 -11.792969 1.152344 -11.347656 L 1.152344 -0.488281 C 1.152344 -0.0429688 1.4375 0.015625 1.554688 0.015625 L 2.875 0.015625 C 2.992188 0.015625 3.28125 -0.0429688 3.28125 -0.488281 L 3.28125 -11.347656 C 3.28125 -11.792969 2.992188 -11.851562 2.875 -11.851562 Z M 2.875 -11.851562 "/></g></g></g><g fill="#ffffff" fill-opacity="1"><g transform="translate(191.529248, 209.833039)"><g><path d="M 10.945312 -10.800781 C 10.65625 -11.160156 10.285156 -11.433594 9.824219 -11.605469 C 9.378906 -11.765625 8.832031 -11.851562 8.199219 -11.851562 L 4.6875 -11.851562 C 4.054688 -11.851562 3.523438 -11.765625 3.078125 -11.605469 C 2.617188 -11.433594 2.242188 -11.160156 1.957031 -10.800781 C 1.683594 -10.441406 1.46875 -9.96875 1.335938 -9.390625 C 1.207031 -8.832031 1.152344 -8.15625 1.152344 -7.351562 L 1.152344 -4.5 C 1.152344 -3.695312 1.207031 -3.007812 1.335938 -2.445312 C 1.46875 -1.871094 1.683594 -1.394531 1.957031 -1.035156 C 2.242188 -0.660156 2.617188 -0.386719 3.078125 -0.230469 C 3.507812 -0.0703125 4.054688 0.015625 4.6875 0.015625 L 8.199219 0.015625 C 8.832031 0.015625 9.378906 -0.0703125 9.824219 -0.230469 C 10.285156 -0.386719 10.65625 -0.660156 10.945312 -1.019531 C 11.234375 -1.394531 11.433594 -1.871094 11.5625 -2.445312 C 11.679688 -3.007812 11.75 -3.695312 11.75 -4.5 L 11.75 -7.351562 C 11.75 -8.140625 11.679688 -8.832031 11.5625 -9.390625 C 11.433594 -9.96875 11.234375 -10.441406 10.945312 -10.800781 Z M 9.609375 -7.59375 L 9.609375 -4.242188 C 9.609375 -3.824219 9.59375 -3.464844 9.535156 -3.179688 C 9.492188 -2.917969 9.40625 -2.691406 9.292969 -2.546875 C 9.191406 -2.386719 9.046875 -2.285156 8.859375 -2.230469 C 8.671875 -2.15625 8.429688 -2.128906 8.125 -2.128906 L 4.761719 -2.128906 C 4.457031 -2.128906 4.214844 -2.15625 4.027344 -2.230469 C 3.839844 -2.285156 3.695312 -2.386719 3.597656 -2.546875 C 3.480469 -2.691406 3.410156 -2.917969 3.351562 -3.179688 C 3.308594 -3.464844 3.28125 -3.824219 3.28125 -4.242188 L 3.28125 -7.59375 C 3.28125 -8.011719 3.308594 -8.371094 3.351562 -8.660156 C 3.410156 -8.933594 3.480469 -9.148438 3.597656 -9.304688 C 3.695312 -9.449219 3.839844 -9.550781 4.027344 -9.621094 C 4.214844 -9.679688 4.457031 -9.722656 4.761719 -9.722656 L 8.125 -9.722656 C 8.429688 -9.722656 8.671875 -9.679688 8.859375 -9.621094 C 9.046875 -9.550781 9.191406 -9.449219 9.292969 -9.304688 C 9.40625 -9.148438 9.492188 -8.933594 9.535156 -8.660156 C 9.59375 -8.371094 9.609375 -8.011719 9.609375 -7.59375 Z M 9.609375 -7.59375 "/></g></g></g><g fill="#ffffff" fill-opacity="1"><g transform="translate(205.150023, 209.833039)"><g><path d="M 11.332031 -11.851562 L 10.054688 -11.851562 C 9.925781 -11.851562 9.652344 -11.808594 9.652344 -11.347656 L 9.652344 -2.703125 C 9.652344 -2.691406 9.652344 -2.691406 9.652344 -2.675781 L 9.578125 -2.675781 C 9.566406 -2.675781 9.550781 -2.675781 9.535156 -2.71875 L 4.992188 -10.800781 C 4.875 -11.015625 4.773438 -11.191406 4.675781 -11.320312 C 4.574219 -11.464844 4.472656 -11.578125 4.371094 -11.648438 C 4.257812 -11.738281 4.128906 -11.792969 3.96875 -11.824219 C 3.824219 -11.835938 3.652344 -11.851562 3.464844 -11.851562 L 2.386719 -11.851562 C 1.96875 -11.851562 1.652344 -11.707031 1.453125 -11.449219 C 1.25 -11.175781 1.152344 -10.699219 1.152344 -9.996094 L 1.152344 -0.488281 C 1.152344 -0.0429688 1.4375 0.015625 1.566406 0.015625 L 2.847656 0.015625 C 2.976562 0.015625 3.25 -0.0429688 3.25 -0.488281 L 3.25 -9.132812 C 3.25 -9.148438 3.25 -9.160156 3.25 -9.160156 L 3.324219 -9.160156 C 3.324219 -9.160156 3.335938 -9.160156 3.367188 -9.117188 L 7.925781 -1.035156 C 8.039062 -0.804688 8.15625 -0.632812 8.253906 -0.503906 C 8.355469 -0.359375 8.457031 -0.257812 8.570312 -0.1875 C 8.6875 -0.101562 8.816406 -0.0585938 8.960938 -0.0273438 C 9.089844 0 9.25 0.015625 9.449219 0.015625 L 10.5 0.015625 C 10.917969 0.015625 11.234375 -0.128906 11.433594 -0.402344 C 11.636719 -0.660156 11.738281 -1.136719 11.738281 -1.839844 L 11.738281 -11.347656 C 11.738281 -11.808594 11.449219 -11.851562 11.332031 -11.851562 Z M 11.332031 -11.851562 "/></g></g></g><g fill="#ffffff" fill-opacity="1"><g transform="translate(218.756421, 209.833039)"><g><path d="M 8.097656 -7.078125 L 3.78125 -7.078125 C 3.566406 -7.078125 3.292969 -7.164062 3.292969 -7.867188 L 3.292969 -8.933594 C 3.292969 -9.191406 3.335938 -9.390625 3.410156 -9.535156 C 3.464844 -9.621094 3.550781 -9.722656 3.796875 -9.722656 L 9.652344 -9.722656 C 9.765625 -9.722656 10.054688 -9.765625 10.054688 -10.210938 L 10.054688 -11.363281 C 10.054688 -11.808594 9.765625 -11.851562 9.652344 -11.851562 L 3.453125 -11.851562 C 2.660156 -11.851562 2.085938 -11.59375 1.710938 -11.058594 C 1.335938 -10.542969 1.152344 -9.851562 1.152344 -9.019531 L 1.152344 -7.925781 C 1.152344 -6.933594 1.351562 -6.128906 1.710938 -5.625 C 2.15625 -5.035156 2.820312 -4.949219 3.421875 -4.949219 L 7.738281 -4.949219 C 7.953125 -4.949219 8.242188 -4.863281 8.242188 -4.15625 L 8.242188 -2.917969 C 8.242188 -2.660156 8.199219 -2.460938 8.113281 -2.316406 C 8.054688 -2.230469 7.96875 -2.128906 7.722656 -2.128906 L 1.582031 -2.128906 C 1.453125 -2.128906 1.164062 -2.085938 1.164062 -1.640625 L 1.164062 -0.488281 C 1.164062 -0.0429688 1.453125 0 1.582031 0 L 8.070312 0 C 8.859375 0 9.449219 -0.273438 9.824219 -0.804688 C 10.183594 -1.324219 10.371094 -2 10.371094 -2.832031 L 10.371094 -4.097656 C 10.371094 -5.035156 10.183594 -5.765625 9.808594 -6.285156 C 9.421875 -6.804688 8.84375 -7.078125 8.097656 -7.078125 Z M 8.097656 -7.078125 "/></g></g></g></svg>