<svg xmlns="http://www.w3.org/2000/svg" width="500" viewBox="0 0 375 375" height="500" version="1.0"><defs><clipPath id="a"><path d="M45 152.008h69.16V170H45Zm0 0"/></clipPath><clipPath id="b"><path d="M64 172h50.16v17H64Zm0 0"/></clipPath><clipPath id="c"><path d="M30.91 184h83.25v19H30.91Zm0 0"/></clipPath><clipPath id="d"><path d="M49 205h65.16v18.258H49Zm0 0"/></clipPath></defs><g clip-path="url(#a)"><path fill="#fff" d="M53.625 167.629c3.918 0 7.137-2.922 7.66-6.719h13.23l5.657 8.203c.219.305.523.434.871.434h32.07a1.06 1.06 0 0 0 1.047-1.047c0-.566-.48-1.047-1.047-1.047h-31.55l-5.657-8.2c-.219-.308-.52-.437-.87-.437H61.241c-.523-3.796-3.742-6.718-7.66-6.718-4.266 0-7.746 3.488-7.746 7.765 0 4.274 3.523 7.766 7.789 7.766Zm0-13.395c3.09 0 5.613 2.532 5.613 5.63 0 3.097-2.523 5.628-5.613 5.628-3.09 0-5.613-2.531-5.613-5.629a5.607 5.607 0 0 1 5.613-5.629Zm0 0"/></g><g clip-path="url(#b)"><path fill="#fff" d="M113.113 179.582H79.738c-.523-3.797-3.746-6.719-7.66-6.719-4.266 0-7.746 3.492-7.746 7.766 0 4.277 3.48 7.766 7.746 7.766 3.914 0 7.137-2.922 7.66-6.72h33.375c.567 0 1.047-.48 1.047-1.046 0-.566-.48-1.047-1.047-1.047Zm-41.035 6.719c-3.09 0-5.613-2.531-5.613-5.63 0-3.097 2.523-5.671 5.613-5.671 3.09 0 5.613 2.531 5.613 5.629 0 3.14-2.523 5.672-5.613 5.672Zm0 0"/></g><g clip-path="url(#c)"><path fill="#fff" d="M113.113 193.02H84a1.14 1.14 0 0 0-.914.48l-4.09 6.543h-17.93l-4.437-8.29a1.02 1.02 0 0 0-.914-.565h-9.399c-.523-3.797-3.746-6.72-7.66-6.72-4.265 0-7.746 3.493-7.746 7.766 0 4.278 3.48 7.766 7.746 7.766 3.914 0 7.137-2.922 7.66-6.719h8.746l4.438 8.29c.176.35.523.566.914.566h19.148c.348 0 .696-.172.915-.477l4.09-6.547h28.503c.567 0 1.047-.48 1.047-1.047.043-.566-.437-1.046-1.004-1.046Zm-74.457 4.93c-3.09 0-5.613-2.532-5.613-5.63 0-3.097 2.523-5.625 5.613-5.625 3.09 0 5.614 2.528 5.614 5.625.042 3.098-2.48 5.63-5.614 5.63Zm0 0"/></g><g clip-path="url(#d)"><path fill="#fff" d="M113.113 205.367H96.316c-.39 0-.738.219-.914.524l-4.96 8.464H65.112c-.52-3.796-3.742-6.718-7.656-6.718-4.266 0-7.746 3.488-7.746 7.765 0 4.274 3.48 7.766 7.746 7.766 3.914 0 7.137-2.926 7.656-6.719h25.938c.39 0 .742-.219.914-.523l4.96-8.465h16.188c.567 0 1.047-.48 1.047-1.047 0-.566-.48-1.047-1.047-1.047Zm-55.656 15.707c-3.09 0-5.617-2.531-5.617-5.629 0-3.097 2.527-5.629 5.617-5.629s5.613 2.532 5.613 5.63c.043 3.097-2.48 5.628-5.613 5.628Zm0 0"/></g><path d="M142.145 175.468c-.266-1.106-.711-2.028-1.266-2.766a5.328 5.328 0 0 0-2.238-1.605c-.895-.34-1.945-.528-3.184-.528h-9.187v.028a2.33 2.33 0 0 0-1.817 1.105c-.105.211-.21.45-.261.66l-.028 17.977c.055.289.16.578.29.816a2.318 2.318 0 0 0 2 1.133h9.003c1.239 0 2.317-.184 3.184-.527a5.16 5.16 0 0 0 2.238-1.633c.555-.711 1-1.633 1.266-2.738.262-1.106.394-2.422.394-3.895v-4.133c0-1.472-.132-2.789-.394-3.894Zm-14.11 12.765v-13.61c0-.105.024-.155.051-.155h7.293c.606 0 1.133.078 1.551.234.422.16.738.371.977.711.261.344.445.79.55 1.344.106.605.184 1.344.184 2.21v4.923c0 .867-.078 1.605-.184 2.183-.105.582-.289 1.028-.55 1.371-.239.317-.555.551-.977.711-.418.156-.945.211-1.55.211h-7.321s-.023-.027-.023-.133ZM162.174 173.018c-.05-.132-.105-.289-.156-.394-.422-1.367-1.688-2.344-3.133-2.344-.66 0-1.293.184-1.816.555-.16.078-.29.183-.395.262-.394.343-.793.972-1.16 1.921l-7.344 18.243c-.078.238-.105.472-.05.632.023.157.156.395.578.395h2.894c.344 0 .606-.21.738-.555l1.5-3.761h5.766c.289 0 .55-.133.684-.371.156-.211.183-.5.105-.762l-.95-2.344a.828.828 0 0 0-.76-.527h-3.267l3.372-8.528c.023-.05.05-.078.05-.078h.106l.027.051 6.528 16.293c.132.371.394.582.761.582h2.82c.419 0 .524-.266.579-.395.05-.16.027-.394-.078-.632ZM193.416 170.57h-17.421c-.239 0-.766.081-.766.894v2.054c0 .868.527.95.766.95h6.761v16.898c0 .817.528.895.739.895h2.421c.239 0 .739-.078.739-.895v-16.898h6.761c.239 0 .766-.082.766-.95v-2.054c0-.813-.527-.895-.766-.895ZM213.818 173.018c-.051-.132-.106-.289-.157-.394-.421-1.367-1.687-2.344-3.132-2.344-.66 0-1.293.184-1.817.555-.16.078-.289.183-.394.262-.395.343-.793.972-1.16 1.921l-7.344 18.243c-.078.238-.106.472-.051.632.023.157.156.395.578.395h2.895c.343 0 .605-.21.738-.555l1.5-3.761h5.766c.289 0 .55-.133.683-.371.156-.211.184-.5.106-.762l-.95-2.344a.828.828 0 0 0-.761-.527h-3.266l3.371-8.528c.024-.05.05-.078.05-.078h.106l.028.051 6.527 16.293c.133.371.395.582.762.582h2.82c.418 0 .524-.266.578-.395.051-.16.028-.394-.078-.632ZM239.587 179.311h-7.898c-.395 0-.895-.16-.895-1.449v-1.949c0-.473.079-.84.211-1.105.106-.157.262-.34.711-.34h10.715c.211 0 .734-.082.734-.895v-2.11c0-.812-.523-.894-.734-.894h-11.348c-1.445 0-2.5.477-3.183 1.45-.684.949-1.027 2.21-1.027 3.738v2c0 1.816.367 3.289 1.027 4.21.816 1.079 2.027 1.239 3.133 1.239h7.894c.395 0 .922.156.922 1.45v2.26c0 .474-.078.845-.234 1.106-.106.16-.266.344-.711.344h-11.242c-.235 0-.762.078-.762.895v2.105c0 .817.527.895.762.895h11.87c1.45 0 2.528-.5 3.212-1.473.66-.95 1.004-2.187 1.004-3.715v-2.316c0-1.711-.344-3.051-1.028-4-.71-.946-1.765-1.446-3.133-1.446ZM265.093 187.55h-9.266c-.555 0-1-.078-1.367-.184a1.771 1.771 0 0 1-.793-.582c-.207-.289-.367-.683-.445-1.183-.028-.133-.028-.317-.055-.446 0 0 .027-1.898.055-1.898h11.765c.211 0 .739-.106.739-.918v-2.082c0-.817-.528-.895-.739-.895l-13.582.028c-.765.05-1.422.445-1.789 1.105-.133.211-.238.422-.289.656l-.055 3.317v.133c.028 1.238.16 2.289.344 3.16.235 1.05.63 1.922 1.13 2.578.526.683 1.21 1.16 2.054 1.449.816.316 1.789.445 2.949.445h9.344c.238 0 .761-.078.761-.894v-2.895c0-.816-.523-.894-.761-.894Zm.027-17.032h-15.137c-.21 0-.71.106-.71.946v2.054c0 .817.5.895.71.895l15.137.027c.211 0 .734-.105.734-.922v-2.078c0-.816-.523-.922-.734-.922ZM290.02 170.57h-2.344c-.235 0-.735.081-.735.921v15.875h-.132c-.028 0-.055 0-.078-.082l-8.32-14.793c-.212-.394-.395-.71-.579-.945-.184-.266-.367-.477-.55-.606-.212-.16-.45-.265-.739-.316a8.877 8.877 0 0 0-.922-.055h-1.973c-.765 0-1.343.266-1.71.739-.372.5-.555 1.367-.555 2.66v17.398c0 .817.527.922.765.922h2.34c.239 0 .739-.105.739-.922v-15.875h.132s.024 0 .079.082l8.343 14.793c.211.422.422.738.606.973.183.265.367.449.578.578.21.16.45.238.71.293.24.05.528.078.895.078h1.922c.766 0 1.344-.266 1.711-.766.371-.472.555-1.34.555-2.632V171.49c0-.84-.527-.922-.738-.922ZM308.998 179.311H301.1c-.395 0-.895-.16-.895-1.449v-1.949c0-.473.078-.84.211-1.105.106-.157.262-.34.711-.34h10.715c.21 0 .734-.082.734-.895v-2.11c0-.812-.523-.894-.734-.894h-11.348c-1.445 0-2.5.477-3.183 1.45-.684.949-1.028 2.21-1.028 3.738v2c0 1.816.368 3.289 1.028 4.21.816 1.079 2.027 1.239 3.133 1.239h7.894c.395 0 .922.156.922 1.45v2.26c0 .474-.078.845-.234 1.106-.106.16-.266.344-.711.344h-11.243c-.234 0-.761.078-.761.895v2.105c0 .817.527.895.761.895h11.872c1.449 0 2.527-.5 3.21-1.473.66-.95 1.004-2.187 1.004-3.715v-2.316c0-1.711-.343-3.051-1.027-4-.71-.946-1.766-1.446-3.133-1.446ZM334.504 187.55h-9.266c-.555 0-1-.078-1.367-.184a1.771 1.771 0 0 1-.793-.582c-.207-.289-.367-.683-.445-1.183-.028-.133-.028-.317-.055-.446 0 0 .027-1.898.055-1.898h11.765c.211 0 .738-.106.738-.918v-2.082c0-.817-.527-.895-.738-.895l-13.582.028c-.766.05-1.422.445-1.789 1.105-.133.211-.238.422-.289.656l-.055 3.317v.133c.028 1.238.16 2.289.344 3.16.234 1.05.629 1.922 1.129 2.578.527.683 1.21 1.16 2.055 1.449.816.316 1.789.445 2.949.445h9.344c.238 0 .761-.078.761-.894v-2.895c0-.816-.523-.894-.761-.894Zm.027-17.032h-15.137c-.21 0-.71.106-.71.946v2.054c0 .817.5.895.71.895l15.137.027c.21 0 .734-.105.734-.922v-2.078c0-.816-.523-.922-.734-.922ZM130.157 202.755h-4.317c-.215 0-.488-.086-.488-.79V200.9c0-.257.043-.457.117-.601.055-.086.14-.188.387-.188h5.855c.114 0 .403-.043.403-.488v-1.152c0-.446-.29-.489-.403-.489h-6.199c-.793 0-1.367.258-1.742.793-.375.516-.559 1.207-.559 2.04v1.093c0 .992.2 1.797.559 2.301.445.59 1.11.676 1.71.676h4.317c.215 0 .504.086.504.793v1.238c0 .258-.043.457-.129.602-.058.086-.144.187-.39.187h-6.141c-.129 0-.418.043-.418.488v1.153c0 .445.29.488.418.488h6.488c.79 0 1.38-.273 1.754-.805.36-.52.547-1.195.547-2.027v-1.266c0-.937-.187-1.668-.562-2.187-.387-.52-.965-.793-1.711-.793ZM145.244 199.032a2.56 2.56 0 0 0-1.12-.804c-.446-.16-.993-.247-1.626-.247h-3.512c-.632 0-1.164.086-1.609.247-.46.171-.836.445-1.121.804-.273.36-.488.832-.621 1.41-.129.559-.184 1.235-.184 2.04v2.851c0 .805.055 1.492.184 2.055.133.574.348 1.05.621 1.41.285.375.66.648 1.121.805.43.16.977.246 1.61.246h3.511c.633 0 1.18-.086 1.625-.246.461-.157.832-.43 1.121-.79.29-.374.489-.851.617-1.425.118-.563.188-1.25.188-2.055v-2.852c0-.789-.07-1.48-.188-2.039-.128-.578-.328-1.05-.617-1.41Zm-1.336 3.207v3.352c0 .418-.015.777-.074 1.062-.043.262-.129.489-.242.633a.732.732 0 0 1-.434.317c-.187.074-.43.101-.734.101h-3.363c-.305 0-.547-.027-.735-.101a.713.713 0 0 1-.43-.317c-.117-.144-.187-.37-.245-.633a7.267 7.267 0 0 1-.07-1.062v-3.352c0-.418.027-.777.07-1.066.058-.274.128-.488.246-.645a.86.86 0 0 1 .43-.316c.187-.059.429-.102.734-.102h3.363c.305 0 .547.043.734.102.188.07.332.172.434.316.113.157.2.371.242.645.059.289.074.648.074 1.066ZM157.369 207.704h-4.676c-.3 0-.543-.027-.746-.101a.748.748 0 0 1-.418-.317 1.49 1.49 0 0 1-.242-.633c-.059-.285-.074-.644-.074-1.078v-7.09c0-.46-.285-.504-.403-.504h-1.324c-.129 0-.414.043-.414.504v6.848c0 .805.07 1.492.2 2.055.128.574.331 1.05.616 1.41.29.375.665.648 1.125.805.43.16.977.246 1.61.246h4.746c.129 0 .402-.059.402-.504v-1.137c0-.445-.273-.504-.402-.504ZM170.732 197.981h-1.324c-.13 0-.403.043-.403.489v7.09c0 .433-.027.808-.07 1.082a1.717 1.717 0 0 1-.23.644.966.966 0 0 1-.434.317 2.563 2.563 0 0 1-.746.101h-3.11c-.3 0-.558-.043-.746-.101a.934.934 0 0 1-.43-.317 1.932 1.932 0 0 1-.245-.644 7.282 7.282 0 0 1-.07-1.082v-7.09c0-.446-.274-.489-.407-.489h-1.309c-.129 0-.414.043-.414.489v6.863c0 .805.055 1.492.184 2.055.133.574.348 1.05.633 1.41.273.375.664.633 1.11.805.444.16.991.23 1.624.23h3.234c.633 0 1.18-.07 1.63-.23.456-.172.831-.43 1.12-.805.286-.36.489-.836.618-1.41.129-.563.187-1.25.187-2.055v-6.863c0-.446-.273-.489-.402-.489ZM184.094 197.981h-9.524c-.129 0-.414.043-.414.489v1.12c0 .477.285.52.414.52h3.7v9.235c0 .445.285.488.402.488h1.32c.133 0 .406-.043.406-.488v-9.235h3.696c.129 0 .418-.043.418-.52v-1.12c0-.446-.29-.489-.418-.489ZM189.255 197.981h-1.32c-.117 0-.403.06-.403.504v10.86c0 .445.286.504.403.504h1.32c.117 0 .406-.059.406-.504v-10.86c0-.445-.289-.504-.406-.504ZM202.475 199.032a2.56 2.56 0 0 0-1.122-.804c-.445-.16-.992-.247-1.625-.247h-3.511c-.633 0-1.164.086-1.61.247-.46.171-.836.445-1.12.804-.274.36-.489.832-.622 1.41-.129.559-.183 1.235-.183 2.04v2.851c0 .805.054 1.492.183 2.055.133.574.348 1.05.621 1.41.285.375.66.648 1.121.805.43.16.977.246 1.61.246h3.511c.633 0 1.18-.086 1.625-.246.461-.157.832-.43 1.122-.79.289-.374.488-.851.617-1.425.117-.563.187-1.25.187-2.055v-2.852c0-.789-.07-1.48-.187-2.039-.13-.578-.328-1.05-.617-1.41Zm-1.336 3.207v3.352c0 .418-.016.777-.075 1.062-.043.262-.129.489-.242.633a.732.732 0 0 1-.433.317c-.188.074-.43.101-.735.101h-3.363c-.305 0-.547-.027-.734-.101a.713.713 0 0 1-.43-.317c-.117-.144-.188-.37-.246-.633a7.267 7.267 0 0 1-.07-1.062v-3.352c0-.418.027-.777.07-1.066.058-.274.129-.488.246-.645a.86.86 0 0 1 .43-.316c.187-.059.43-.102.734-.102h3.363c.305 0 .547.043.735.102.187.07.332.172.433.316.113.157.2.371.242.645.059.289.075.648.075 1.066ZM216.482 197.981h-1.277c-.13 0-.403.043-.403.504V207.157h-.074c-.012 0-.027 0-.043-.043l-4.543-8.082a4.36 4.36 0 0 0-.316-.52 1.322 1.322 0 0 0-.305-.327.9.9 0 0 0-.402-.176c-.145-.012-.317-.028-.504-.028h-1.078c-.418 0-.735.145-.934.403-.203.273-.3.75-.3 1.453v9.508c0 .445.285.504.413.504h1.282c.129 0 .402-.059.402-.504V200.673h.074s.012 0 .043.043l4.559 8.082c.113.23.23.402.328.531.101.145.203.246.316.317a.986.986 0 0 0 .391.16c.129.027.289.043.488.043h1.051c.418 0 .734-.145.934-.418.203-.258.304-.735.304-1.438v-9.508c0-.46-.289-.504-.406-.504ZM226.854 202.755h-4.316c-.215 0-.489-.086-.489-.79V200.9c0-.257.043-.457.118-.601.054-.086.14-.188.386-.188h5.856c.113 0 .402-.043.402-.488v-1.152c0-.446-.289-.489-.402-.489h-6.2c-.792 0-1.367.258-1.742.793-.375.516-.558 1.207-.558 2.04v1.093c0 .992.199 1.797.558 2.301.446.59 1.11.676 1.711.676h4.317c.215 0 .504.086.504.793v1.238c0 .258-.043.457-.13.602-.058.086-.144.187-.39.187h-6.14c-.13 0-.419.043-.419.488v1.153c0 .445.29.488.418.488h6.489c.789 0 1.379-.273 1.754-.805.359-.52.547-1.195.547-2.027v-1.266c0-.937-.188-1.668-.563-2.187-.387-.52-.965-.793-1.71-.793Zm0 0" fill="#fff"/></svg>